<svg viewBox="0 0 256 256" xmlns="http://www.w3.org/2000/svg" preserveAspectRatio="xMidYMid">
    <path d="M224.288 43.916l-11.963 84.2-84.2-11.963 11.963-84.2 84.2 11.963zM31.885 212.291l11.963-84.2 84.2 11.963-11.963 84.2-84.2-11.963zM43.848 32.065l84.2 11.962-11.963 84.2-84.2-11.963 11.963-84.2zm168.378 192.199l-84.2-11.963 11.963-84.2 84.2 11.963-11.963 84.2z" opacity=".8" fill="#fff"/>
    <path d="M119.642 255.595l-51.08-67.997 67.998-51.08 51.08 67.998-67.998 51.08zM255.463 136.39l-67.997 51.079-51.08-67.997 67.998-51.08 51.08 67.998zM136.437.554l51.079 67.997-67.997 51.08-51.08-67.998L136.437.553zM.463 119.7l67.998-51.08 51.079 67.998-67.997 51.08L.463 119.7z" opacity=".8" fill="#fff"/>
    <path d="M127.963 95.742l32.332 32.333-32.332 32.332-32.332-32.332 32.332-32.333z" fill="#fff"/>
</svg>
