<?xml version="1.0" encoding="utf-8"?>
<!-- Generator: Adobe Illustrator 21.1.0, SVG Export Plug-In . SVG Version: 6.00 Build 0)  -->
<svg version="1.1" id="Layer_1" xmlns="http://www.w3.org/2000/svg" xmlns:xlink="http://www.w3.org/1999/xlink" x="0px" y="0px"
	 viewBox="0 0 512 139" style="enable-background:new 0 0 512 139;" xml:space="preserve">
<style type="text/css">
	.st0{fill:#FFFFFF;}
</style>
<polygon class="st0" points="150.6,102.8 150.6,39.8 158.7,39.8 197.2,90.5 197.2,39.8 204.9,39.8 204.9,102.8 196.8,102.8 
	158.3,51.6 158.3,102.8 "/>
<path class="st0" d="M267.6,100.3c-5.1,1.9-10.6,2.9-16.4,2.9c-22.8,0-34.2-10.9-34.2-32.8c0-20.7,11-31.1,33-31.1
	c6.3,0,12.2,0.9,17.6,2.6v7c-5.4-2.1-11-3.1-16.7-3.1c-17.2,0-25.8,8.2-25.8,24.4c0,17.5,8.5,26.2,25.4,26.2c2.7,0,5.7-0.4,9-1.1
	V74.2h8.1C267.6,74.2,267.6,100.3,267.6,100.3z"/>
<path class="st0" d="M280.6,78.5V39.8h8.1v38.7c0,12.1,6,18.2,18.1,18.2c12,0,18.1-6.1,18.1-18.2V39.8h8.1v38.7
	c0,16.5-8.7,24.8-26.2,24.8S280.6,95,280.6,78.5z"/>
<polygon class="st0" points="355.6,39.8 355.6,96.2 388.6,96.2 388.6,102.8 347.5,102.8 347.5,39.8 "/>
<polygon class="st0" points="400.3,102.8 391.8,102.8 423.1,31.5 454.4,102.8 445.4,102.8 437.3,83 416.5,83 418.7,76.4 434.6,76.4 
	422.8,47.9 "/>
<path class="st0" d="M463.1,102.8v-63H490c12,0,18,5,18,15.1c0,8.2-5.9,14.3-17.6,18.2l21.6,29.7h-10.7l-20-28.3v-5.3
	c12-1.9,18.1-6.5,18.1-13.9c0-5.8-3.3-8.7-10-8.7h-18v56.2C471.4,102.8,463.1,102.8,463.1,102.8z"/>
<g>
	<polygon class="st0" points="78.3,73.3 64.7,44.9 52.8,73.3 	"/>
	<path class="st0" d="M64.5,0L0,23l9.9,85.3l54.6,30.3l55.5-30.7l10.7-85.3L64.5,0z M92.2,105.5l-8.8-20.4H47.5l-8.1,20.2l-15,0.3
		l40.2-89.4h0l41.9,89.6L92.2,105.5z"/>
</g>
</svg>
