<svg viewBox="0 0 256 257" xmlns="http://www.w3.org/2000/svg" preserveAspectRatio="xMidYMid">
    <path d="M91.794 0C31.02 0 0 35.063 0 100.525V237.86l59.535-59.692v-69.763c0-27.12 7.175-44.377 31.246-48.252 8.41-1.647 25.91-1.07 37.038-1.07v41.423c0 .378.051 1.052.148 1.398.466 1.677 1.98 2.905 3.774 2.909 1.015.002 1.965-.526 2.944-1.493L237.857.017 168.604.001h-76.81zM196.2 77.978v69.763c0 27.12-7.177 44.38-31.246 48.254-8.41 1.645-25.91 1.068-37.038 1.068v-41.421c0-.376-.051-1.052-.148-1.398-.466-1.679-1.98-2.906-3.774-2.91-1.015-.003-1.965.527-2.944 1.492L17.877 256.128l69.254.016h76.81c60.775 0 91.794-35.06 91.794-100.52V18.287L196.2 77.978z" fill="#fff"/>
</svg>
