<svg xmlns="http://www.w3.org/2000/svg" viewBox="0 0 256 224">
    <style>
        .st0{fill:#fff}
    </style>
    <path class="st0" d="M104.9 160.5c0 11.6 8.5 14.1 16.3 14.1 7.4 0 15.4-2 22.6-11.2v-18.3h-15.9c-15.2 0-23 3.3-23 15.4z"/>
    <path class="st0" d="M254.8 210.4L136.1 4.8c-2.4-4.2-7.8-5.7-12-3.2-1.3.8-2.5 1.9-3.2 3.2L2.1 210.4c-1.6 2.7-1.6 6.1 0 8.8 1.6 2.7 4.5 4.4 7.6 4.4h237.4c3.2 0 6.1-1.7 7.6-4.4 1.7-2.7 1.7-6.1.1-8.8zm-52.4-37.7l-23.1 21 .3-8.9-34.2 6-1.6-1.6.4-11.9h-.9s-9.4 15.6-30.2 15.6c-15.4 0-29.9-6.3-29.9-31.3 0-25.3 19-33.8 38.9-33.8h21.7V118c0-10.1-7.2-15.9-19.7-15.9-14.1 0-31.1 2.2-31.1 2.2l-1.6-1.6v-17s17.9-2.2 36.4-2.2c17 0 37.3 4.5 37.3 29.5v57.6l11.7-2.2-3.1-8.3 28.7 12.6z"/>
</svg>
