<svg viewBox="0 0 256 174" xmlns="http://www.w3.org/2000/svg" preserveAspectRatio="xMidYMid">
    <style>
        .st0{fill:url(#shadow_1_)}.st1{fill:url(#brim_1_)}.st2{fill:#cec7bc}.st3{fill:url(#crown_1_)}.st4{fill:url(#side-dent_1_)}.st5{fill:url(#gutter-dent_1_)}.st6{fill:url(#ribbon_1_)}
    </style>
    <path class="st0" d="M5 123c0-27.8 56.2-50.3 125.5-50.3S256 95.2 256 123c0 27.8-56.2 50.3-125.5 50.3C61.2 173.4 5 150.8 5 123z" fill="#fff"/>
    <path class="st1" d="M2.9 127.8s-20.6-40 47.4-62.4C82.1 54.9 119.4 48 152.7 46.8c38-1.3 71.7 5.3 86.4 27.7 10.6 16.2 4.2 36-16.3 51.4-12.3 9.2-39.3 18.4-57.3 23.6-18 5.1-53.3 12-82.2 10.4s-64.8-5.8-80.4-32.1z" fill="#fff"/>
    <path class="st2" d="M2.9 127.8s-20.6-40 47.4-62.4C82.1 54.9 119.4 48 152.7 46.8c38-1.3 71.7 5.3 86.4 27.7 10.6 16.2 4.2 36-16.3 51.4-12.3 9.2-39.3 18.4-57.3 23.6-18 5.1-53.3 12-82.2 10.4s-64.8-5.8-80.4-32.1zm81 30.9c28.2 1.6 62.6-5.2 80.1-10.2 17.5-5 44.2-13.6 56.2-22.6 20-15 28.1-33.7 16.9-50.9-14.2-22-48.7-28.8-85.7-27.5-32.4 1.1-68.8 8.8-99.8 19-66.3 21.9-46.2 60.9-46.2 60.9 15.3 25.6 50.3 29.7 78.5 31.3z" fill="#fff"/>
    <path class="st3" d="M57.3 95.9c-5.9-4.3-14.2-25.4-11-30 3.2-4.6 8-14.2 10.7-23.6 2.7-9.3 6.5-29.1 14-36.1s18.7-7 33.5-5.4c14.7 1.6 57.8 9.4 68.3 13.1 10.4 3.7 24 10.7 23.2 27-.8 16.3.7 24.4-1.2 33.5-1.9 9.1-21.7 26.8-46.6 28.1-25 1.5-85-2.3-90.9-6.6z" fill="#fff"/>
    <path class="st4" d="M127.8 75.8s25.7-3.4 41.2-17.9c15.5-14.5 1.8-24.9-2.4-27.5-4.2-2.6-18.3-9.4-40.6-8.4s-44.3 1.2-42.8 17.7c1.5 16.4 19.5 36.1 44.6 36.1z" fill="#fff"/>
    <path class="st5" d="M71 26.2c-2.8-1.8-3.2-11.6 7.2-18.3 10.4-6.6 37.2-2.6 54.6 1.6 17.5 4.2 45.7 10.1 44.2 11.7-1.5 1.5-43.5-3.6-62.7-2.6C88.2 20 75.4 29 71 26.2z" fill="#fff"/>
    <path class="st6" d="M195.6 71.7c-.3 0-.4.9-.8 1.4-3.3 5.4-13.1 14.6-35.4 14.6H98.8c-38.2 0-49.3-10.3-52.1-17.7-.2-.7-.5-1.6-.8-1.6-.3 0-.5 1.6-.5 1.6l-2.9 27.7c0 12.7 32.9 23 75.2 23 42.3 0 78.6-6 78.6-23 0 0 .2-16.9.1-24.4 0-.8-.1-1.6-.8-1.6z" fill="#fff"/>
</svg>
