<svg xmlns="http://www.w3.org/2000/svg" viewBox="0 0 256 301">
    <style>
        .st0{fill:#fff}
    </style>
    <path class="st0" d="M24 100.4c-9.9 0-17.8 7.9-17.8 17.8v74c0 9.9 7.9 17.8 17.8 17.8s17.8-7.9 17.8-17.8v-74c0-10-7.9-17.8-17.8-17.8zm207.2 0c-9.9 0-17.8 7.9-17.8 17.8v74c0 9.9 7.9 17.8 17.8 17.8s17.8-7.9 17.8-17.8v-74c0-10-7.9-17.8-17.8-17.8zM98 184.8c-9.9 0-17.8 7.9-17.8 17.8v74c0 9.9 7.9 17.8 17.8 17.8s17.8-7.9 17.8-17.8v-74c0-9.9-7.9-17.8-17.8-17.8zm59.2 0c-9.9 0-17.8 7.9-17.8 17.8v74c0 9.9 7.9 17.8 17.8 17.8s17.8-7.9 17.8-17.8v-74c0-9.9-7.9-17.8-17.8-17.8z"/>
    <path class="st0" d="M48.4 218.3c0 10.6 8.5 19.1 19.1 19.2h120.3c10.6 0 19.1-8.5 19.2-19.1v-115H48.4v114.9zM166.5 33.5L179 10.9c.7-1.3.3-2.7-1-3.4-.4-.2-.8-.3-1.2-.3-.9 0-1.8.4-2.2 1.3l-12.7 22.9c-10.4-4.6-22-7.2-34.3-7.2-12.3 0-23.9 2.6-34.3 7.2l-12.6-23c-.4-.8-1.3-1.3-2.2-1.3-.4 0-.8.1-1.2.3-1.3.7-1.7 2.2-1 3.4l12.5 22.6C64.7 46 48.4 69.8 48.4 97.2h158.5c-.1-27.4-16.3-51.2-40.4-63.7zM91.1 68.1c-3.6 0-6.6-3-6.6-6.6 0-3.6 3-6.6 6.6-6.6 3.6 0 6.6 3 6.6 6.6 0 3.7-3 6.6-6.6 6.6zm73.1 0c-3.6 0-6.6-3-6.6-6.6 0-3.6 3-6.6 6.6-6.6 3.6 0 6.6 3 6.6 6.6 0 3.7-3 6.6-6.6 6.6z"/>
</svg>
