<svg xmlns="http://www.w3.org/2000/svg" viewBox="0 0 256 256">
    <style>
        .st0{fill:#fff}
    </style>
    <path class="st0" d="M155.7 108.9c3.9-2.9 5.9-7.6 5.9-14.1 0-3.6-.7-6.6-2-8.9-1.3-2.3-3-4.1-5.2-5.4-2.2-1.3-4.7-2.2-7.5-2.7s-5.8-.8-8.8-.8h-31.9v36.3h34.5c6.1-.1 11-1.5 15-4.4zm5.4 32.7c-4.5-3.4-10.4-5.1-17.8-5.1h-37.1V179h36.5c3.3 0 6.5-.3 9.6-1 3-.7 5.7-1.7 8-3.3 2.3-1.5 4.2-3.6 5.5-6.2 1.4-2.6 2.1-5.9 2.1-10-.1-7.9-2.3-13.5-6.8-16.9z"/>
    <path class="st0" d="M223 0H33C14.8 0 0 14.8 0 33v190c0 18.2 14.8 33 33 33h190c18.2 0 33-14.8 33-33V33c0-18.2-14.8-33-33-33zm-25.7 180.9c-3 5.7-7.1 10.4-12.3 14-5.1 3.6-11 6.3-17.6 8-6.6 1.7-13.4 2.6-20.3 2.6h-75v-155H145c7.4 0 14.1.7 20.2 2s11.3 3.4 15.6 6.4c4.3 3 7.7 6.9 10.1 11.8 2.4 4.9 3.6 11 3.6 18.2 0 7.8-1.8 14.3-5.3 19.5-3.5 5.2-8.8 9.5-15.7 12.8 9.6 2.8 16.7 7.6 21.4 14.4 4.7 6.9 7.1 15.2 7.1 24.9-.1 7.9-1.6 14.6-4.7 20.4z"/>
</svg>
