<?xml version="1.0" encoding="utf-8"?>
<!-- Generator: Adobe Illustrator 21.1.0, SVG Export Plug-In . SVG Version: 6.00 Build 0)  -->
<svg version="1.1" id="Layer_1" xmlns="http://www.w3.org/2000/svg" xmlns:xlink="http://www.w3.org/1999/xlink" x="0px" y="0px"
	 viewBox="0 0 256 204" style="enable-background:new 0 0 256 204;" xml:space="preserve">
<style type="text/css">
	.st0{fill:#FFFFFF;}
</style>
<g>
	<polygon class="st0" points="93.8,8.4 62.6,8.4 62.7,28.3 	"/>
	<polygon class="st0" points="39.4,36.8 32.8,28 32.8,8.4 17.3,8.4 17.3,44.2 	"/>
	<polygon class="st0" points="83.1,144.1 77.5,141.8 66.8,97.2 58.9,95.1 37.4,62.8 25.8,62.8 25.8,72.2 20.8,68.2 20.8,82 8.9,77 
		8.9,53.1 9.3,52.7 0.7,52.7 0.7,150 84.5,150 	"/>
	<polygon class="st0" points="238.7,52.7 238.7,8.4 142.3,8.4 150,9.6 153.8,18.5 137.9,18.5 137.9,25.3 129.9,18.5 109.7,18.5 
		88.5,40.1 102.6,58.7 148.4,41.3 190.6,75.6 213.8,81.3 217.4,90.4 176.1,94.1 174,88.4 168.4,90.6 145.4,71.2 103.2,98.6 
		115.6,150 255,150 255,52.7 	"/>
</g>
<path class="st0" d="M37.6,201.4c-1.9,1-6,2-11.3,2c-13.9,0-22.3-8.7-22.3-22c0-14.4,10-23,23.3-23c5.2,0,9,1.1,10.6,1.9l-1.7,6.3
	c-2.1-0.9-4.9-1.7-8.5-1.7c-8.9,0-15.3,5.6-15.3,16.1c0,9.6,5.6,15.7,15.2,15.7c3.2,0,6.6-0.6,8.7-1.6L37.6,201.4L37.6,201.4z
	 M72,186.6c0,11.6-8.2,16.8-16.2,16.8c-8.9,0-15.8-6.1-15.8-16.2c0-10.4,6.8-16.7,16.3-16.7C65.7,170.4,72,177,72,186.6L72,186.6z
	 M48.2,186.9c0,6.1,3,10.7,7.8,10.7c4.5,0,7.7-4.5,7.7-10.8c0-4.9-2.2-10.5-7.6-10.5C50.5,176.3,48.2,181.7,48.2,186.9z
	 M105.6,193.2c0,3.8,0.1,6.9,0.3,9.4h-7l-0.4-4.8h-0.1c-1.4,2.3-4.5,5.5-10.1,5.5c-5.8,0-11-3.4-11-13.7v-18.5h8v17.1
	c0,5.2,1.7,8.6,5.9,8.6c3.2,0,5.2-2.3,6.1-4.3c0.3-0.7,0.5-1.6,0.5-2.5v-19h8L105.6,193.2L105.6,193.2L105.6,193.2z M136.2,201.7
	c-1.7,0.8-5,1.7-8.9,1.7c-9.8,0-16.2-6.3-16.2-16.1c0-9.4,6.5-16.8,17.5-16.8c2.9,0,5.9,0.6,7.7,1.5l-1.4,6c-1.3-0.6-3.2-1.2-6-1.2
	c-6.1,0-9.7,4.5-9.6,10.2c0,6.5,4.2,10.2,9.6,10.2c2.8,0,4.7-0.6,6.3-1.2L136.2,201.7L136.2,201.7z M140.8,156.7h8v18.8h0.1
	c1-1.5,2.3-2.8,3.9-3.6c1.6-0.9,3.4-1.4,5.4-1.4c5.4,0,11,3.6,11,13.7v18.6h-8V185c0-4.6-1.7-8-6.1-8c-3.1,0-5.3,2.1-6.1,4.5
	c-0.3,0.6-0.3,1.5-0.3,2.4v18.8h-8V156.7L140.8,156.7z M177,159.6c3.5-0.6,8-0.9,12.7-0.9c8.2,0,13.8,1.7,17.8,5
	c4.2,3.4,6.8,8.6,6.8,16.1c0,7.8-2.7,13.6-6.8,17.3c-4.3,3.9-11.3,6-19.7,6c-4.7,0-8.2-0.3-10.7-0.6V159.6L177,159.6z M185,196.6
	c1.1,0.2,2.8,0.2,4.4,0.2c10.4,0.1,16.5-5.6,16.5-16.7c0.1-9.6-5.5-15.1-15.5-15.1c-2.5,0-4.3,0.2-5.4,0.5L185,196.6L185,196.6z
	 M220.3,159.6c2.5-0.5,7.1-0.9,11.6-0.9c5.9,0,9.5,0.7,12.5,2.8c2.7,1.6,4.5,4.5,4.5,8.2c0,4-2.5,7.7-7.2,9.4v0.1
	c4.6,1.2,8.8,4.8,8.8,10.8c0,3.9-1.7,6.9-4.2,9c-3.1,2.7-8.2,4.1-16.2,4.1c-4.4,0-7.8-0.3-9.8-0.6L220.3,159.6L220.3,159.6z
	 M228.2,176.9h4.1c5.5,0,8.6-2.6,8.6-6.3c0-4.1-3.1-6-8.2-6c-2.3,0-3.7,0.1-4.5,0.3L228.2,176.9L228.2,176.9L228.2,176.9z
	 M228.2,196.9c1,0.2,2.4,0.2,4.2,0.2c5.1,0,9.6-1.9,9.6-7.3c0-5-4.4-7.1-9.9-7.1h-3.9V196.9z"/>
</svg>
