<svg xmlns="http://www.w3.org/2000/svg" viewBox="0 0 256 100">
    <style>
        .st0{fill:#fff}
    </style>
    <path class="st0" d="M33.3 95l-15-5.4v-22l15 5.1V95m2.8 0l15-5.4v-22l-15 5.1V95M19.9 66L35 61.7l14.1 4.5L35 71.1 19.9 66m-4.4-1.7l-15-5.4V37l15 5.1v22.2m2.7 0l15-5.4V37l-15 5.1v22.2M2 35.3L17.2 31l14.1 4.5-14.1 4.8-15.2-5m48.5 29l-15-5.4V37l15 5.1v22.2m2.7 0l15-5.4V37l-15 5.1v22.2M37 35.3L52.2 31l14.1 4.5-14.1 4.8-15.2-5m31.3-1.7l-15-5.4v-22l15 5.1v22.3m2.7 0l15-5.4v-22l-15 5.1v22.3m-16.2-29L70 .4l14.1 4.5L70 9.7 54.8 4.6m48.5 29l-15-5.4v-22l15 5.1v22.3m2.7 0l15-5.4v-22l-15 5.1v22.3m-16.2-29L105 .4l14 4.5-14 4.8-15.2-5.1m88.8 38.7v-4.2c0-.6.4-1 1-1.1h18.9c.6 0 1.1.4 1.1 1.1v3.6c0 .6-.5 1.4-1.4 2.6l-9.8 13.9c3.6-.1 7.4.5 10.7 2.3.7.4.9 1 1 1.6v4.5c0 .6-.7 1.3-1.4 1-5.8-3-13.5-3.4-19.9 0-.7.3-1.3-.4-1.3-1v-4.3c0-.7 0-1.8.7-2.9l11.3-16.2h-9.8c-.6.2-1.1-.3-1.1-.9m-67.4 26.3h-5.7c-.5 0-1-.4-1-1V39.2c0-.6.5-1.1 1.1-1.1h5.3c.6 0 1 .5 1 1V43h.1c1.4-3.7 4-5.4 7.5-5.4 3.6 0 5.8 1.7 7.4 5.4 1.4-3.7 4.5-5.4 7.9-5.4 2.4 0 5 1 6.6 3.2 1.8 2.5 1.4 6.1 1.4 9.2v18.6c0 .6-.5 1.1-1.1 1.1H136c-.6 0-1-.5-1-1.1V52.9c0-1.2.1-4.3-.2-5.5-.4-2-1.7-2.5-3.4-2.5-1.4 0-2.8.9-3.4 2.4-.6 1.5-.5 4-.5 5.6v15.6c0 .6-.5 1.1-1.1 1.1h-5.7c-.6 0-1-.5-1-1.1V52.9c0-3.3.5-8.1-3.5-8.1-4.1 0-4 4.7-4 8.1v15.6c.2.6-.3 1.1-1 1.1m102.2-32.1c8.4 0 13 7.3 13 16.6 0 9-5 16.1-13 16.1-8.3 0-12.8-7.3-12.8-16.4.1-9.2 4.6-16.3 12.8-16.3zm.1 6.8c-4.2 0-4.5 5.8-4.5 9.3s-.1 10.5 4.4 10.5c4.4 0 4.6-5.4 4.6-9.2 0-2.5-.1-5.4-.8-7.8-.6-2-1.9-2.8-3.7-2.8zm25.1 25.3h-5.7c-.6 0-1-.5-1-1.1V39.1c0-.5.5-1 1.1-1h5.3c.5 0 .9.4 1 .8v4.5h.1c1.6-4 3.8-5.9 7.8-5.9 2.6 0 5.1.9 6.7 3.5 1.5 2.3 1.5 6.3 1.5 9.2v18.5c-.1.5-.5.9-1.1.9h-5.7c-.5 0-1-.4-1-.9v-16c0-3.2.4-7.9-3.6-7.9-1.4 0-2.7.9-3.3 2.4-.8 1.8-.9 3.6-.9 5.6v15.8c-.1.5-.5 1-1.2 1m-74.3-14.1c0 2.2.1 4.1-1.1 6.1-.9 1.6-2.4 2.6-4 2.6-2.2 0-3.5-1.7-3.5-4.2 0-4.9 4.4-5.8 8.5-5.8l.1 1.3zm5.7 14c-.4.3-.9.4-1.4.1-1.9-1.6-2.2-2.3-3.3-3.8-3 3.2-5.3 4.2-9.3 4.2-4.8 0-8.6-3-8.6-8.9 0-4.7 2.5-7.8 6.1-9.4 3.1-1.4 7.4-1.6 10.8-2V49c0-1.4.1-3-.7-4.2-.7-1.1-2-1.5-3.2-1.5-2.2 0-4.1 1.1-4.6 3.4-.1.5-.5 1-1 1.1l-5.6-.6c-.5-.1-1-.5-.9-1.2 1.3-6.7 7.4-8.8 12.8-8.8 2.8 0 6.4.7 8.6 2.9 2.8 2.6 2.5 6.1 2.5 9.9v8.9c0 2.7 1.1 3.9 2.2 5.3.4.5.4 1.1 0 1.5-1.1 1-3.2 2.8-4.4 3.8zm-80.2-14c0 2.2.1 4.1-1.1 6.1-.9 1.6-2.4 2.6-4 2.6-2.2 0-3.5-1.7-3.5-4.2 0-4.9 4.4-5.8 8.5-5.8.1.1.1 1.3.1 1.3zm5.8 14c-.4.3-.9.4-1.4.1-1.9-1.6-2.2-2.3-3.2-3.8-3.2 3.2-5.4 4.2-9.5 4.2-4.8 0-8.5-3-8.5-9 0-4.7 2.5-7.8 6.1-9.4 3.1-1.4 7.4-1.6 10.8-2v-.7c0-1.4.1-3-.7-4.2-.7-1.1-2-1.5-3.2-1.5-2.2 0-4.1 1.1-4.6 3.4-.1.5-.5 1-1 1.1l-5.6-.6c-.5-.1-1-.5-.9-1.2 1.3-6.7 7.4-8.8 12.8-8.8 2.8 0 6.4.7 8.6 2.9 2.8 2.6 2.5 6.1 2.5 9.9v8.9c0 2.7 1.1 3.9 2.2 5.3.4.5.4 1.1 0 1.5-1.2 1.1-3.2 2.9-4.4 3.9z"/>
</svg>
