<svg xmlns="http://www.w3.org/2000/svg" viewBox="0 0 256 256">
    <style>
        .st0{fill:#fff}
    </style>
    <path class="st0" d="M0 128C0 57.3 57.3 0 128 0s128 57.3 128 128-57.3 128-128 128S0 198.7 0 128zM128 25.5C71.4 25.5 25.5 71.4 25.5 128S71.4 230.5 128 230.5 230.5 184.6 230.5 128 184.6 25.5 128 25.5z"/>
    <path class="st0" d="M206.4 166l-58.5-84.7c-2.1-3-4.6-5.5-7.5-7.5-2.9-2-6.6-3-11-3-4.6 0-8.4 1.1-11.3 3.2-3 2.1-5.5 4.6-7.4 7.3L50.6 166h34.3l44-62.2 16.8 24.8c1.7 2.4 3.3 4.8 5 7.2 1.7 2.6 3.2 4.7 4.6 6.4-2.2-.2-4.9-.3-7.9-.3H115L97.5 166h108.9z"/>
</svg>
