<svg viewBox="0 0 512 119" xmlns="http://www.w3.org/2000/svg" preserveAspectRatio="xMidYMid">
    <path d="M505.2 1.622c3.924.656 6.544 3.057 6.544 7.191 0 1.368-.564 3.295-.94 4.923-2.63 11.587-12.894 52.525-17.216 79.85l-3.976-3.976 12.656-84.052 2.933-3.936zM249.404 12.746c-5.298 1.268-10.5 1.234-15.613 0l8.119 8.43 7.494-8.43zm-81.158 0c5.297 1.268 10.499 1.234 15.612 0l-8.118 8.43-7.494-8.43zm-45.824-.033c11.972 30.299 30.813 76.16 40.2 93.688l-13.897-4.247-34.388-85.999 8.085-3.442z" fill="#fff"/>
    <path d="M111.536 12.71c3.823 1.281 6.995 1.36 10.887 0l-7.738 4.754-3.149-4.753z" fill="#fff"/>
    <path d="M117.034 16.017l35.041 85.94c-2.073 2.245-2.998 3.423-5.013 4.473-10.157-26.159-21.064-52.324-30.304-78.145l-4.56-7.733 4.836-4.535z" fill="#fff"/>
    <path d="M86.898 106.398l-10.345-3.664 36.425-85.46 4.059-1.255V28.67c-5.664 16.343-20.037 52.2-30.14 77.728zM78.318.256l3.435 7.806 8.743-4.059L94.05.256c-5.624 1.276-10.697 1.318-15.733 0z" fill="#fff"/>
    <path d="M53.65 68.326l-5.932 2.186-3.747-6.557L81.128 4.627l2.657-.91C87.452 2.89 91.45 2 94.056.257c-5.901 7.972-27.388 45.232-40.406 68.07z" fill="#fff"/>
    <path d="M45.532 67.39l1.561-1.562 36.76-62.124L78.317.256C73.88 8.523 57.511 35.273 47.093 52.401l-4.996 9.368 3.435 5.62z" fill="#fff"/>
    <path d="M15.868.256c8.15 14.442 20.66 34.645 31.225 52.145v13.427l-2.498 2.498L8.062 3.378 15.868.256z" fill="#fff"/>
    <path d="M9.847 4.184L15.868.256C9.407 1.634 6.704 1.722.256.256l2.498 2.81 7.093 1.118z" fill="#fff"/>
    <path d="M47.093 65.828l-2.81 4.06-3.747-1.562C33.56 56.27 13.053 19.54.256.256c2.594 1.88 6.099 2.911 10.146 3.569l36.691 62.003zm7.494 52.77l-10.616-4.996.937-44.34 2.185-3.434 6.557 2.498.937 50.272z" fill="#fff"/>
    <path d="M47.093 115.163l-7.494 3.435.937-50.272 6.557-2.498v49.335zm24.356-8.743c13.027-26.554 27.513-62.164 40.086-93.715l5.502 3.315-35.565 87-7.213 2.464-2.81.936zm80.254-4.62l10.932 4.604c-4.194-1.057-9.87-1.462-15.575.027l2.134-5.257 2.509.626zM92.685 75.7l7.686-3.298c11.072.39 22.144.384 33.216 0l7.797 3.395-7.259 1.587H98.191L92.685 75.7z" fill="#fff"/>
    <path d="M97.805 78.943L92.644 75.7a1383.95 1383.95 0 0 1 48.726.097l-5.161 3.146c-12.802-.415-25.603-.365-38.404 0zm86.053 27.477l-10.929-3.747V18.68l3.123-1.562 7.806-4.371c-1.62 31.17-1.655 62.394 0 93.674z" fill="#fff"/>
    <path d="M176.052 102.049v2.186l-7.806 2.185c1.24-31.175 1.36-62.395 0-93.674l7.806 4.371v84.932zm57.739 4.371l10.929-3.747V18.68l-3.123-1.562-7.806-4.371c1.62 31.17 1.656 62.394 0 93.674z" fill="#fff"/>
    <path d="M176.083 59.39l6.561-2.926c17.438.44 34.896.406 52.37 0l6.582 2.925-8.142 1.946H182.59l-6.506-1.946zm128.43-46.68c-30.667 0-45.97 19.174-45.97 47.053 0 34.917 23.162 47.013 45.57 47.013 26.615 0 45.695-14.976 45.695-46.925 0-30.75-18.06-47.14-45.295-47.14zm-.917 4.45c.288-.006.579 0 .868 0 20.254 0 35.128 13.796 35.128 42.622 0 28.79-14.855 42.583-35.089 42.583-22.077 0-35.05-15.82-35.05-42.505 0-30.179 15.984-42.328 34.143-42.7z" fill="#fff"/>
    <path d="M304.405 11.481c-33.12 0-50.496 21-50.496 48.223 0 29.797 18.97 47.97 50.448 47.97 34.031 0 50.652-20.481 50.652-47.657 0-30.3-19.85-48.536-50.604-48.536zm.098 3.103c26.15 0 43.49 15.732 43.49 45.257 0 30.677-18.325 45.061-43.88 45.061-21.515 0-43.754-11.612-43.754-45.14 0-26.768 14.699-45.178 44.144-45.178zM418.952 7.92c-31.124 0-52.448 17.596-52.448 51.892 0 33.643 19.838 52.438 52.575 52.438 24.794 0 51.96-12.735 51.96-51.96 0-42.335-29.673-52.37-52.087-52.37zm-.166 3.747c24.768 0 43.012 15.047 43.012 48.232 0 36.075-22.069 47.774-42.973 47.774-22.335 0-42.68-13.107-42.68-48.486 0-36.67 22.551-47.52 42.64-47.52z" fill="#fff"/>
    <path d="M418.747 5.841c-32.983 0-58.195 18.73-58.195 53.551 0 28.69 16.77 53.94 58.468 53.94 35.302 0 58.351-19.408 58.351-53.433 0-32.085-21.501-54.058-58.624-54.058zm.205 3.494c21.804 0 50.672 9.771 50.672 50.955 0 38.159-26.435 50.545-50.555 50.545-31.847 0-51.14-18.285-51.14-51.014 0-33.363 20.745-50.486 51.023-50.486zm60.966 102.445c0-4.03 2.45-7.776 7.361-7.776 4.701 0 8.22 2.812 8.22 7.302 0 5.595-3.704 7.657-7.096 7.657-4.691 0-8.485-2.434-8.485-7.184zm7.843-19.087c3.807-26.91 6.123-55.19 8.346-83.389 0-5.62 3.715-7.818 7.463-7.818.657 0 1.626.137 1.626.137l-1.02 6.74-13.352 83.583-3.063.747zM39.6 118.598l7.507-5.5 7.48 5.5s-4.146-.754-7.48-.754c-3.008 0-7.508.754-7.508.754zm31.847-12.166l10.474-4.528c1.598 1.916 3.02 3.54 4.982 4.5-3.77-1.02-9.478-1.478-15.454.016l-.002.012zm96.799-.012c5.07-1.221 10.262-1.275 15.593 0l-7.787-4.371-7.806 4.371zm14.398-43.567l-6.575-3.464c21.842.228 43.684.266 65.526 0l-6.567 3.444a1911.677 1911.677 0 0 0-52.384.02zm58.953 39.196v2.186l7.807 2.185c-1.242-31.175-1.36-62.395 0-93.674l-7.807 4.371v84.932z" fill="#fff"/>
    <path d="M249.404 106.42c-5.07-1.221-10.263-1.275-15.593 0l7.786-4.371 7.807 4.371zm241.801-16.884l-3.46 3.157c2.319-.408 4.111.197 5.854.899l-2.394-4.056zm20.351-81.235c0 3.671-3.407 6.648-7.61 6.648-4.202 0-7.609-2.977-7.609-6.648s3.407-6.648 7.61-6.648c4.202 0 7.609 2.977 7.609 6.648z" fill="#fff"/>
</svg>
