<svg xmlns="http://www.w3.org/2000/svg" viewBox="0 0 256 255">
    <style>
        .st0{fill:#fff}
    </style>
    <path class="st0" d="M127.7 89.5h-.4s-2.8 11.5-5.3 18.3l-11.5 30.7h33.9L133 107.8c-2.5-6.7-5.3-18.3-5.3-18.3z"/>
    <path class="st0" d="M129.6.5H125v.1L.5 64.6v125l124.6 64.7h4.8l125.6-64.7v-125L129.6.5zm59.3 187.9h-14.7c-9.4 0-12.8-2.2-15.8-10l-8.3-21.4h-45.2l-8.3 21.4c-3 7.8-6.2 10-15.6 10H66.2v-19.1h3c3.2 0 4.7-.7 5.8-3.8l39.7-99.4h25.8l39.5 99.4c1.1 3.1 2.6 3.8 5.8 3.8h3v19.1z"/>
</svg>
