<svg xmlns="http://www.w3.org/2000/svg" viewBox="0 0 256 222">
    <style>
        .st0{fill:#fff}
    </style>
    <path class="st0" d="M252.9 88.5c-.1 0-10.8-2.8-28.8-3.9l-1-9.7-2.1-6.4 12.8-13.7c11.6-12.5 10.9-32-1.5-43.6l-2.4-2.3c-12.5-11.6-32-10.9-43.6 1.5l-11 11.8L126.5 12h-.2c-1.8.2-26.9 5.5-48.7 10.1l-11-11.7C55-2.1 35.5-2.8 23.1 8.9l-2.4 2.3C8.2 22.8 7.5 42.3 19.1 54.7l12.8 13.7-2.2 6.4-1 9.9c-16.5 1.2-26.2 3.7-26.3 3.8C.7 89 0 90.7.1 92.2l2 14.6.9.5c2.8 1.5 3.5 3.7 7.3 17l.7 2.3c4.1 14.4 7.6 20.7 14.4 25.6L37 192.4l64.5 26.4 24.9 2.5 24.7-2.5 67-26.4 9.2-38.6c.1-.1.2-.1.3-.2 8.3-5.2 12-11.2 16.6-27.1l.7-2.4c3.8-13.3 4.5-15.5 7.3-17l.9-.5 2-14.4V92c.2-1.3-.5-3-2.2-3.5zM41.5 79.9l.3-.9L55 39.6s16-3.2 32.9-6.5c18.1-3.6 37.1-7.3 38.6-7.5h.1l38.5 7.5 33 6.5 13 39.4.3.9.6 4.3h-2.3c-1.4 0-2.9 0-4.3.1-10.3.2-20.7 1-31 2.5-5.2.7-10.4 1.6-15.6 2.7-4.7 1-8.5 2-11.9 2.8-7.4 1.8-12.3 3.1-19.2 3.1-6.9 0-11.8-1.2-19.2-3.1-3.3-.8-7.1-1.8-11.9-2.8-5.8-1.2-11.7-2.2-17.5-3-10.5-1.4-21-2.1-31.6-2.2h-1.7c-1.7 0-3.3 0-4.9.1l.6-4.5zm-4.8 70.3c-2-.9-3.8-1.8-5.5-3-3.6-2.6-6.1-5.8-7.9-9.3-2.2-4.3-3.2-8.9-3.8-13-1-7.4-2.2-20 2.2-24.9 1.4-1.6 3.1-3 6-4.3 2.8-1.2 6.6-2.2 12.1-2.8 6.5-.7 15.4-.8 27.8-.2 0 0 17.1 1.5 27 5 5.4 1.9 12.2 4.8 13.8 9.8 1.6 5 .4 16.1-2.2 22-2.5 5.9-9 13.8-14.5 17.5-5.1 3.4-14.8 7.7-28.1 7.6-9.4-.2-19.3-1.2-26.9-4.4zm170.5 36.3l-58.9 24.3-21.8 2.6-21.9-2.6-58.9-24.3-7.1-28.6c6.9 1.7 15.5 2.8 24.2 2.8 4 0 7.8-.2 11.4-.6 20.8-2.5 31.2-15.5 33.1-18.1 4.1-5.7 8.8-15.9 12.8-25.1 1.4-3.2 7-3.4 7.7-3.4h.6c1.6.1 5.9.6 7.1 3.4 4 9.2 8.7 19.4 12.8 25.1 1.9 2.6 12.3 15.6 33.1 18.1 3.6.4 7.4.6 11.4.6 7.6 0 15.1-.8 21.5-2.1l-7.1 27.9zm28.7-61.7c-.7 5.3-2.3 11.4-6 16.6-1.5 2.1-3.4 4.1-5.7 5.7-2.4 1.7-5.2 3-8.3 4.1-7.2 2.4-15.9 3.2-24.1 3.3-13.4.1-23.1-4.1-28.1-7.6-5.5-3.7-12-11.6-14.5-17.5s-3.8-17-2.2-22c1.6-5 8.3-7.9 13.8-9.8 10-3.5 27-5 27-5 10.8-.5 19-.5 25.2 0 5.2.4 9.1 1.1 12 2 4.5 1.4 6.8 3.2 8.6 5.2 4.5 5 3.3 17.6 2.3 25zm-106.8 54.4l3.3-.6c4.5-.8 9.3-1.6 13.5-3.5 3.3-1.5 6.7-5 5.7-8.9-.5-2-2-3.7-3.7-4.9-1.8-1.3-4.1-1.5-6.3-1.7-4.7-.4-9.6-.1-14.3.4-2.2.2-4.4-.2-6.6-.4-2.4-.2-4.9-.2-7.3-.2.7 0-1.6.1-.2 0-2.3.1-4.9.2-7.1 1-1.9.7-3.7 2.4-4.7 4.2-2.1 3.8.5 7.7 3.8 9.8 1.9 1.1 4 1.7 6.1 2.3 2.3.6 4.6 1.1 6.9 1.6l5.1.9v12.1h-24v5.7h53.9v-5.7h-24.1v-12.1z"/>
</svg>
