<svg viewBox="0 0 256 169" xmlns="http://www.w3.org/2000/svg" preserveAspectRatio="xMidYMid">
    <path d="M.627 33.431v134.98h168.41L.628 33.43z" fill="#fff"/>
    <path d="M120.353 168.41L255.541 13.165V168.41H120.353z" fill="#fff"/>
    <path d="M.836 168.41L67.908 0 168.41 168.41H.836z" fill="#fff"/>
    <path d="M14.417 168.41L71.67 90.475l68.534 55.162-19.85 22.775H14.417zm0 0H.836L41.58 66.237l30.09 24.237-57.253 77.936z" fill="#fff"/>
    <path d="M140.203 145.636l-19.85 22.775h48.267l-28.417-22.775zm8.567-9.821l-8.567 9.82 28.417 22.776-19.85-32.596m106.771 32.595H168.62l-19.85-32.595 50.565-58.087 56.206 90.683z" fill="#fff"/>
    <path d="M71.669 90.474L99.876 53.49l48.894 82.325-8.567 9.82-68.534-55.161zM99.876 53.49l14.418-20.059 33.64 47.222 33.013-32.386 18.388 29.461-50.565 58.087L99.876 53.49z" fill="#fff"/>
</svg>
