<svg xmlns="http://www.w3.org/2000/svg" viewBox="0 0 256 315">
    <style>
        .st0{fill:#fff}
    </style>
    <path class="st0" d="M67.5 313.9c-.5 0-1.1-.1-1.5-.7l-17.4-22.9v23.3h-4v-28.7c0-1.1.9-2.1 2-2.1.6 0 1.2.2 1.6.7l17.3 22.8v-23.2h4v28.7c0 1.2-.9 2.1-2 2.1m32.8.2c-4 0-8.1-.8-12-2.3l.9-3.3c3.6 1.1 7.4 2 11 2 5 0 7.6-1.8 7.6-4.3 0-2.3-2-3.4-9-6.7-7-3.3-9.7-5.4-9.7-9.5 0-5.2 4-7.3 11.4-7.3 3.1 0 7.9.6 10.6 1.5l-.6 3.4c-3-.7-6.8-1.2-9.9-1.2-5.3 0-7.4 1-7.4 3.5s1.6 3.5 9 7c7.8 3.6 9.8 5.4 9.8 9.2 0 5.3-5.1 8-11.7 8m30.5-30.9h4.1v30.5h-4.1v-30.5zm39 16.6h-10.2v10.3h10.2c3.5 0 5.6-2.2 5.6-5.3-.1-2.8-2.3-5-5.6-5m-2-13.1h-8.2v9.7h8.2c3.3 0 5.7-2.1 5.7-5-.1-2.9-2.1-4.7-5.7-4.7m2 26.9h-12.2c-1.1 0-2.1-.9-2.1-2v-26.3c0-1.1.9-2.1 2.1-2.1h10.1c6.2 0 9.9 3.1 9.9 7.9 0 2.6-1.5 5-3.9 6.4 3.5 1.1 5.8 3.9 5.8 7.4 0 4.8-4 8.7-9.7 8.7m29.4 0c-1.1 0-2-1-2-2.1v-28.4h4.1v26.7h16.3v3.7l-18.4.1zm46.3.5c-8.4 0-13.4-3.1-13.4-9.4 0-3 1.7-5.8 4.9-7.1-2.6-1.6-4-4-4-6.5 0-5.7 4.4-8.4 12.6-8.4 2.7 0 6.6.3 9.9 1.1l-.5 3.4c-3.4-.5-6.6-.9-9.7-.9-5.3 0-8.2 1.5-8.2 5 0 2.8 2.6 5 6.1 5h7c1 0 1.8.8 1.8 1.7 0 1-.8 1.8-1.8 1.8h-7.6c-4 0-6.5 2-6.5 5 0 4.4 4.1 5.8 9.2 5.8 2.8 0 6.6-.4 9.6-1.1l.6 3.3c-2.8.8-6.6 1.3-10 1.3M14.1 288.9l7.2 18-10.8-8.7 3.6-9.3zM26.9 311l-11-27c-.3-.8-.9-1.2-1.7-1.2-.8 0-1.5.5-1.8 1.2L.3 313.6h4.1l4.8-12.2 14.3 11.7c.6.5 1 .7 1.5.7 1.1 0 2-.8 2-2 .1-.1 0-.4-.1-.8zM128.3.3C57.9.3.7 57.4.7 127.9s57.1 127.6 127.6 127.6 127.6-57.1 127.6-127.6S198.8.3 128.3.3zm52.4 191c-2.5 0-4.4-1-7-3.1L107.8 135l-22.1 55.3H66.6l55.7-134c1.4-3.5 4.6-5.4 8.1-5.4s6.4 1.9 7.9 5.4l50.8 122.2c.6 1.5.9 2.9.9 3.8 0 5.3-4.4 9-9.3 9z"/>
    <path class="st0" d="M130.5 78.2l-16.9 42.2 49.9 39.3-33-81.5z"/>
</svg>
