<svg viewBox="0 0 256 292" xmlns="http://www.w3.org/2000/svg" xmlns:xlink="http://www.w3.org/1999/xlink" preserveAspectRatio="xMidYMid">
    <use fill="transparent" xlink:href="#a"/>
    <g mask="url(#b)" fill="#fff">
        <path d="M127.333 146.113l1.142-1.961-.113-69.667-1.296-2.538-63.533 37.595-1.005 2.144-.226 69.555 1.23 1.977 63.8-37.105z"/>
        <path d="M127.333 146.113l-.267-74.166 2.987.283 58.733 35.397 1.613 2.357 1.092 2.49.226 68.767-1.318 1.91-63.066-37.038z"/>
        <path d="M130.269-2.176L63.799 34.53l126.6 75.454 2.85-.41 60.127-34.249L256 71.101 130.269-2.176z"/>
        <path d="M190.399 109.984v73.167l-62.265 36.638-64.601-36.57V109.54L0 145.044v74.212L128.134 294 256 219.793V71.101l-65.601 38.883z"/>
    </g>
</svg>
