<svg viewBox="0 0 256 256" xmlns="http://www.w3.org/2000/svg" preserveAspectRatio="xMidYMid">
    <path d="M255.41 127.41c0 70.367-57.043 127.41-127.41 127.41C57.633 254.82.59 197.777.59 127.41.59 57.044 57.633 0 128 0v127.41h127.41z" fill="#fff"/>
    <path d="M128 236.619c-60.314 0-109.209-48.894-109.209-109.209C18.791 67.096 67.686 18.201 128 18.201s109.209 48.895 109.209 109.21H128v109.208z" fill="#fff"/>
    <path d="M36.992 127.41c0-50.262 40.746-91.008 91.008-91.008 50.261 0 91.007 40.746 91.007 91.008 0 50.262-40.746 91.007-91.007 91.007V127.41H36.992z" fill="#fff"/>
    <path d="M128 54.605c40.21 0 72.806 32.596 72.806 72.806S168.209 200.216 128 200.216c-40.21 0-72.806-32.596-72.806-72.805H128V54.605z" fill="#fff"/>
    <path d="M182.605 127.41c0 30.157-24.448 54.604-54.605 54.604-30.157 0-54.604-24.447-54.604-54.604S97.843 72.806 128 72.806v54.604h54.605z" fill="#fff"/>
    <path d="M128 164.541c-20.104 0-36.402-16.298-36.402-36.403S107.896 91.735 128 91.735c20.105 0 36.403 16.298 36.403 36.403H128v36.403z" fill="#fff"/>
    <path d="M109.798 127.41a18.201 18.201 0 1 1 36.403 0 18.201 18.201 0 0 1-36.403 0z" fill="#fff"/>
</svg>
