<svg xmlns="http://www.w3.org/2000/svg" viewBox="0 0 256 113.7">
    <path d="M80.1 22.2h-.2c-32.4 0-58.7 26.3-58.7 58.7v.2h10.6c.4-26.5 21.8-47.8 48.3-48.3V22.2z" fill="#00396f"/>
    <path d="M80.1 10.6V0C35.8.2 0 36.2 0 80.5v.6h10.6c.2-38.6 31.1-69.8 69.5-70.5zM80.9 49C63 49 48.5 63.5 48.5 81.3c0 17.9 14.5 32.3 32.3 32.3 17.9 0 32.3-14.5 32.3-32.3.1-17.8-14.4-32.3-32.2-32.3zm16 38l-6.4 10.5h-28L78 73.4H63.6l6-9.6h27.3L82.3 87h14.6zM212 84.3l-5.3-20.4h-13.2l12.6 33.6h11.8l12.6-33.9H218zM152.7 63.8l-3.9 22.3-4.4-22.3h-8.6l-4 22.3-3.6-22.3h-12.4l10 33.7h10.6l4.1-17.6 3.5 17.6h10.9l9.4-33.7zM245.2 88.9v-4h9.8v-8.7h-9.8v-3.8h10.7v-8.5h-22.3v33.6H256v-8.6zM173.2 63.8L161 97.5h13l1.2-4.7h9.5l1 4.7H199l-12-33.7h-13.8zm3.6 21.5l3.3-11.8 2.5 11.8h-5.8z" fill="#00396f"/>
</svg>
