<svg viewBox="0 0 256 256" xmlns="http://www.w3.org/2000/svg" preserveAspectRatio="xMidYMid">
    <path d="M256 128c0 70.692-57.308 128-128 128C57.308 256 0 198.692 0 128 0 57.308 57.308 0 128 0c70.692 0 128 57.308 128 128" fill="#fff"/>
    <path d="M243.2 128c0 63.623-51.577 115.2-115.2 115.2-63.623 0-115.2-51.577-115.2-115.2C12.8 64.377 64.377 12.8 128 12.8c63.623 0 115.2 51.577 115.2 115.2" fill="#fff"/>
    <path d="M178.286 128c0 27.772-22.514 50.286-50.286 50.286-27.772 0-50.286-22.514-50.286-50.286 0-27.772 22.514-50.286 50.286-50.286 27.772 0 50.286 22.514 50.286 50.286" fill="#fff" filter="url(#a)"/>
</svg>
