<svg viewBox="0 0 256 255" xmlns="http://www.w3.org/2000/svg" preserveAspectRatio="xMidYMid">
    <path d="M197.467 167.764l-145.52 86.41 188.422-12.787L254.88 51.393l-57.414 116.37z" fill="#fff"/>
    <path d="M240.677 241.257L224.482 129.48l-44.113 58.25 60.308 53.528z" fill="#fff"/>
    <path d="M240.896 241.257l-118.646-9.313-69.674 21.986 188.32-12.673z" fill="#fff"/>
    <path d="M52.744 253.955l29.64-97.1L17.16 170.8l35.583 83.154zm127.614-65.905L153.085 81.226l-78.047 73.16 105.32 33.666z" fill="#fff"/>
    <path d="M248.693 82.73l-73.777-60.256-20.544 66.418 94.321-6.162z" fill="#fff"/>
    <path d="M214.191.99L170.8 24.97 143.424.669l70.767.322zM0 203.372l18.177-33.151-14.704-39.494L0 203.372z" fill="#fff"/>
    <path d="M2.496 129.48l14.794 41.963 64.283-14.422 73.39-68.207 20.712-65.787L143.063 0 87.618 20.75c-17.469 16.248-51.366 48.396-52.588 49-1.21.618-22.384 40.639-32.534 59.73z" fill="#FFF"/>
    <path d="M54.442 54.094c37.86-37.538 86.667-59.716 105.397-40.818 18.72 18.898-1.132 64.823-38.992 102.349-37.86 37.525-86.062 60.925-104.78 42.027-18.73-18.885.515-66.032 38.375-103.558zm-1.698 199.822l29.408-97.409 97.665 31.376c-35.312 33.113-74.587 61.106-127.073 66.033zM155.092 88.622l25.073 99.313c29.498-31.016 55.972-64.36 68.938-105.603l-94.01 6.29z" fill="#fff"/>
    <path d="M248.847 82.833c10.035-30.282 12.35-73.725-34.966-81.791l-38.825 21.445 73.791 60.346zM0 202.935c1.39 49.979 37.448 50.724 52.808 51.162l-35.48-82.86L0 202.935zM155.232 88.777c22.667 13.932 68.35 41.912 69.276 42.426 1.44.81 19.695-30.784 23.838-48.64l-93.114 6.214zm-73.119 67.73l39.313 75.848c23.246-12.607 41.45-27.967 58.121-44.42l-97.434-31.428z" fill="#fff"/>
    <path d="M17.174 171.34l-5.57 66.328c10.51 14.357 24.97 15.605 40.136 14.486-10.973-27.311-32.894-81.92-34.566-80.814zM174.826 22.654l78.1 10.96c-4.169-17.662-16.969-29.06-38.787-32.623l-39.313 21.663z" fill="#fff"/>
</svg>
