<?xml version="1.0" encoding="utf-8"?>
<!-- Generator: Adobe Illustrator 21.1.0, SVG Export Plug-In . SVG Version: 6.00 Build 0)  -->
<svg version="1.1" id="Layer_1" xmlns="http://www.w3.org/2000/svg" xmlns:xlink="http://www.w3.org/1999/xlink" x="0px" y="0px"
	 viewBox="0 0 256 256" style="enable-background:new 0 0 256 256;" xml:space="preserve">
<style type="text/css">
	.st0{fill:#FFFFFF;}
</style>
<g>
	<path class="st0" d="M128,94.3c-1,3.4-1.5,6.2-2.2,9.3c-1,4.7-2.9,9.5-2.9,14.2c-0.1,8,0.3,16,1.2,24c1.1,9.9,2.1,17.4,3.3,27.3
		c0.1,0.3,0.7,3.1,0.7,3.1s0.4-2.2,0.5-3c1.1-10.9,3.1-18.1,3.4-33.3v0c0.2-8,2-16-0.1-24.1C130.4,106,129.2,100.1,128,94.3z"/>
	<path class="st0" d="M218.4,37.6C194.2,13.5,162.1,0.2,128,0.2c-34.1,0-66.2,13.3-90.4,37.4C13.5,61.8,0.2,93.9,0.2,128
		c0,34.1,13.3,66.2,37.4,90.4s56.2,37.4,90.4,37.4v0c34.1,0,66.2-13.3,90.4-37.4c24.1-24.1,37.4-56.2,37.4-90.4
		C255.8,93.9,242.5,61.8,218.4,37.6z M110.9,33.8c3.9-1.9,8.1-2.8,12.4-3.3c7.1-0.8,13.9,0.2,20.5,2.8c3.9,1.5,4.1,2,4.1,6
		c0,5.3,0,10.6,0,15.8c0,1.4-0.1,2-1.8,1.6c-12.1-2.4-24.2-2.4-36.2,0.1c-1.5,0.3-1.6-0.2-1.6-1.4c0.1-3,0-6.1,0-9.1
		c0-2.7,0.1-5.5,0-8.2C108,35.8,109.1,34.7,110.9,33.8z M88.6,72.2c4.8-2.4,9.9-3.5,15-4.9c20.8-5.3,41.3-3.3,61.4,3.5
		c5.3,1.8,5.2,1.9,5.2,7.4v16.8c-0.8,0.1-1.2-0.4-1.6-0.7c-11.8-8.1-24.7-14.1-38.3-18.6c-1.8-0.6-3.5-0.6-5.3,0.1
		c-13.1,4.6-25.5,10.6-37,18.5c-0.3,0.2-0.7,0.4-1.3,0.9c0-7.1,0-13.7,0-20.4C86.6,73.3,87.6,72.7,88.6,72.2z M178.3,215.5
		c-15.3,9-31.9,13.7-49.6,13.6c-27-0.1-50.4-9.6-70.1-28c-9.7-9-17.2-19.7-22.6-31.8c-0.2-0.4-0.3-0.4-0.4-0.8
		c-0.4-0.8,1.7-2,2.7-2.3c5.5-1.9,10.5-3,16.4-3.3c9.8-0.6,18.6,2.1,27.2,6.3c6.6,3.2,8.7,4.4,19.1,6.9c-0.8-0.7-2.3-15.8-3.8-22.3
		c-0.8-4.3-2.5-8.3-4.2-12.3c-3.9-9.2-9.1-17.6-16-24.9c-0.9-1-1.1-1.5,0-2.4c14.5-12.6,31-21.8,49.1-28.1c1.4-0.5,2.7-0.4,4.1,0
		c18.2,5.9,34.2,15.6,48.7,27.9c1.2,1.1,1.2,1.6,0.1,2.8c-10.1,11-16.8,23.8-21.1,38c-0.1,0.3-0.3,0.6,0,1c0.9,0.1,1.2-0.8,1.7-1.3
		c4.3-4.2,8.3-8.6,12.9-12.5c2.2-1.8,4.4-3.5,7.1-4.3c2.8-0.9,5.4-0.1,8.1,0.7c8.6,2.6,16.3,7.1,23.9,11.9c3.8,2.3,7.3,5,11.1,7.4h0
		c1.2,0.8,1.4,1.5,1,2.9C215.2,184.4,200,202.7,178.3,215.5z"/>
</g>
</svg>
