<svg viewBox="0 0 256 256" xmlns="http://www.w3.org/2000/svg" preserveAspectRatio="xMidYMid">
    <path d="M127.946 31.99l-72.874-8.07L0 .004h63.97l63.976 31.99m0-.004l74.542-6.401L255.892.004h-63.975l-63.971 31.99m0 191.911l69.536 2.503 58.41 29.483h-63.975L127.946 223.9m0 .005H57.854L0 255.89h63.97l63.976-31.992m-95.961-95.949v67.307L0 255.89v-63.97l31.985-63.974" fill="#fff"/>
    <path d="M31.985 127.949L26.702 61.19 0 .004v63.97l31.985 63.973m191.915.002l6.959-70.096L255.892.003v63.971L223.9 127.947" fill="#fff"/>
    <path d="M223.9 127.949l5.846 75.095 26.146 52.847v-63.97L223.9 127.946M0 .004L127.946 31.99l-20.583 81.492-75.378 14.467L0 .01" fill="#fff"/>
    <path d="M255.892.004L223.9 127.949l-85.942-15.584-10.013-80.379L255.892.01m0 255.881l-127.946-31.986 14.463-84.828 81.492-11.122 31.99 127.928M0 255.891L31.985 127.95l77.047 17.241 18.914 78.715L0 255.883" fill="#fff"/>
    <path d="M127.946 31.99l-95.96 95.959 95.96 95.956 95.955-95.956-95.955-95.954" fill="#fff"/>
</svg>
