<svg xmlns="http://www.w3.org/2000/svg" viewBox="0 0 256 256">
    <style>
        .st0{fill:#fff}
    </style>
    <path class="st0" d="M121.3 131.8l-7.7 30.9c9.5 2.4 38.9 11.8 43.2-5.6 4.6-18.2-26-22.9-35.5-25.3zm10.6-42.3l-7 28c7.9 2 32.3 10.1 36.3-5.8 4.1-16.5-21.4-20.2-29.3-22.2z"/>
    <path class="st0" d="M159 3.8C90.3-13.3 20.9 28.4 3.8 97-13.3 165.5 28.4 235 97 252.1c68.5 17.1 138-24.6 155.1-93.2C269.3 90.3 227.5 20.8 159 3.8zM188.9 112c-1.8 12.4-8.7 18.5-18 20.6 12.6 6.6 19 16.7 12.9 34.1-7.5 21.7-25.5 23.5-49.5 19l-5.8 23.3-14-3.5 5.7-23c-3.6-.9-7.4-1.9-11.2-2.9l-5.8 23.1-14-3.5L95 176c-3.3-.9-6.6-1.7-10-2.6l-18.3-4.6 7-16.1s10.3 2.7 10.2 2.5c3.9 1 5.7-1.6 6.4-3.3l9.2-36.8c.5.2 1 .3 1.5.4-.6-.3-1.1-.4-1.5-.5l6.6-26.3c.2-3-.8-6.8-6.5-8.2.2-.1-10.2-2.5-10.2-2.5l3.7-15 19.4 4.8v.1c2.9.7 5.9 1.4 9 2.1l5.7-23 14 3.5-5.6 22.5c3.8.8 7.6 1.7 11.3 2.6l5.6-22.5 14 3.5-5.8 23.1c17.8 6.1 30.7 15.3 28.2 32.3z"/>
</svg>
