<svg viewBox="0 0 256 256" xmlns="http://www.w3.org/2000/svg" preserveAspectRatio="xMidYMid">
    <path d="M256 204.8c0 28.16-23.04 51.2-51.2 51.2H51.2C23.04 256 0 232.96 0 204.8V51.2C0 23.04 23.04 0 51.2 0h153.6C232.96 0 256 23.04 256 51.2v153.6z" fill="#fff"/>
    <path d="M204.8 28.16c12.705 0 23.04 10.335 23.04 23.04v128c0 12.705-10.335 23.04-23.04 23.04H51.2c-12.705 0-23.04-10.335-23.04-23.04v-128c0-12.705 10.335-23.04 23.04-23.04h153.6" fill="#FFF"/>
    <path d="M204.8 28.16c12.705 0 23.04 10.335 23.04 23.04v128c0 12.705-10.335 23.04-23.04 23.04H51.2c-12.705 0-23.04-10.335-23.04-23.04v-128c0-12.705 10.335-23.04 23.04-23.04h153.6zm0-28.16H51.2C23.04 0 0 23.04 0 51.2v128c0 28.16 23.04 51.2 51.2 51.2h153.6c28.16 0 51.2-23.04 51.2-51.2v-128C256 23.04 232.96 0 204.8 0z" fill="#fff"/>
    <g fill="#fff">
        <path d="M143.36 0v122.88h-64V92.16h35.84v-64H79.36V0h64z" filter="url(#a)" transform="translate(56.32 53.76)"/>
        <path d="M64 0v28.16H28.16v64H64v30.72H0V0h64z" filter="url(#b)" transform="translate(56.32 53.76)"/>
    </g>
</svg>
