<?xml version="1.0" encoding="utf-8"?>
<!-- Generator: Adobe Illustrator 21.1.0, SVG Export Plug-In . SVG Version: 6.00 Build 0)  -->
<svg version="1.1" id="Layer_1" xmlns="http://www.w3.org/2000/svg" xmlns:xlink="http://www.w3.org/1999/xlink" x="0px" y="0px"
	 viewBox="0 0 256 318" style="enable-background:new 0 0 256 318;" xml:space="preserve">
<style type="text/css">
	.st0{fill:#FFFFFF;}
</style>
<g>
	<polygon class="st0" points="256,0 256,0 256,0 	"/>
	<path class="st0" d="M128,73L0,0v146v26v146l128-73l128,73v-146v-26V0L128,73z M64.2,159l63.8-36.3v0l63.8,36.3L128,195.3L64.2,159
		z M42.4,69.8l45.6,26l-45.6,26V69.8z M42.4,196.1l42.2,24l-42.2,24V196.1z M213.6,244.2l-42.2-24l42.2-24V244.2z M168,95.8l45.6-26
		v52L168,95.8z"/>
</g>
</svg>
