<?xml version="1.0" encoding="utf-8"?>
<!-- Generator: Adobe Illustrator 21.1.0, SVG Export Plug-In . SVG Version: 6.00 Build 0)  -->
<svg version="1.1" id="Layer_1" xmlns="http://www.w3.org/2000/svg" xmlns:xlink="http://www.w3.org/1999/xlink" x="0px" y="0px"
	 viewBox="0 0 512 92" style="enable-background:new 0 0 512 92;" xml:space="preserve">
<style type="text/css">
	.st0{fill:#FFFFFF;}
</style>
<g>
	<path class="st0" d="M124.7,45.6v-0.2c3.3-0.5,5.8-1.7,7.5-3.6c1.7-1.9,2.6-4.2,2.6-7c0-4.1-1.4-7.2-4.2-9.3
		c-2.8-2-7.2-3.1-13.3-3.1H104v48.7h14.9c5.5,0,9.7-1.2,12.7-3.6c3-2.4,4.5-5.9,4.5-10.4c0-3.4-0.9-6-2.8-7.8
		C131.4,47.4,128.6,46.2,124.7,45.6z M107.4,25.4h9.8c4.6,0,8.1,0.7,10.5,2.2c2.3,1.5,3.5,3.8,3.5,7.1c0,3.2-1,5.6-3.1,7.1
		c-2.1,1.5-5.4,2.3-10,2.3h-10.7V25.4z M118.8,68.1h-11.5v-21h10.7c9.5,0,14.3,3.3,14.3,10C132.4,64.5,127.8,68.1,118.8,68.1z"/>
	<path class="st0" d="M196,24.8c-3.5,2.1-6.2,5-8.1,8.7c-1.9,3.8-2.8,8.1-2.8,13.1c0,7.9,2,14.1,5.9,18.5c3.9,4.4,9.3,6.6,16.2,6.6
		c4.8,0,8.8-0.6,12.1-1.7v-3c-3.4,1-7.2,1.6-11.3,1.6c-6.2,0-10.9-1.9-14.2-5.8c-3.3-3.8-5-9.2-5-16.2c0-6.8,1.8-12.2,5.3-16.1
		c3.5-3.9,8.3-5.9,14.4-5.9c3.9,0,7.6,0.9,11.2,2.7l1.4-3.1c-3.8-1.8-8-2.7-12.8-2.7C203.6,21.7,199.5,22.8,196,24.8z"/>
	<path class="st0" d="M396.8,54.2c0,3.6,0.1,7.4,0.3,11.4h-0.2l-28.8-43.2h-3.4v48.7h3.3V39.6c0-2.6-0.1-6.5-0.4-11.7h0.3l28.9,43.3
		h3.4h0V22.4h-3.3V54.2z"/>
	<path class="st0" d="M452.8,65.3c-1.8,0-2.7,1.1-2.7,3.3s0.9,3.3,2.7,3.3c1.8,0,2.7-1.1,2.7-3.3S454.6,65.3,452.8,65.3z"/>
	<polygon class="st0" points="413.9,71.1 440.5,71.1 440.5,71.1 440.5,68 417.3,68 417.3,47.1 439.2,47.1 439.2,44 417.3,44 
		417.3,25.6 440.5,25.6 440.5,22.4 413.9,22.4 	"/>
	<path class="st0" d="M467.9,71.5c0,5.9-2.7,8.8-8.1,8.8c-1.6,0-3.2-0.2-5-0.7v2.9c1.3,0.6,3,0.9,5,0.9l0,0
		c7.6,0,11.4-4.1,11.4-12.3V22.4h-3.4V71.5z"/>
	<path class="st0" d="M511.7,58.6c0-2.2-0.4-4.1-1.3-5.7c-0.9-1.6-2.3-3-4.2-4.2c-1.9-1.2-4.8-2.5-8.6-3.8c-3.6-1.3-6.2-2.4-7.7-3.3
		c-1.5-0.9-2.6-2-3.2-3.1c-0.7-1.2-1-2.6-1-4.4c0-2.9,1.1-5.1,3.2-6.8c2.1-1.7,5-2.5,8.6-2.5c3.7,0,7.6,0.8,11.6,2.5l1.2-2.9
		c-4-1.7-8.3-2.6-12.9-2.6c-4.5,0-8.2,1.2-11,3.5c-2.9,2.3-4.3,5.3-4.3,8.9c0,3.3,1,6,2.9,7.9c1.9,2,5.3,3.8,10.3,5.5
		c3.4,1.2,6,2.2,7.7,3.2s3,2.1,3.8,3.3c0.8,1.2,1.2,2.7,1.2,4.6c0,3-1.2,5.4-3.5,7.2c-2.3,1.8-5.5,2.7-9.5,2.7
		c-5.4,0-9.9-0.7-13.4-2.2v3.4c3.2,1.3,7.7,2,13.7,2c5,0,8.9-1.2,11.9-3.6C510.2,65.9,511.7,62.6,511.7,58.6L511.7,58.6z"/>
	<polygon class="st0" points="262.3,22.4 257.9,22.4 238.9,42.4 233.5,47.8 233.5,22.4 230.1,22.4 230.1,71.1 233.5,71.1 
		233.5,51.2 240,45.4 258.6,71.1 262.8,71.1 262.8,71.1 242.3,43 	"/>
	<path class="st0" d="M290.5,45.6v-0.2c3.3-0.5,5.8-1.7,7.5-3.6c1.7-1.9,2.6-4.2,2.6-7c0-4.1-1.4-7.2-4.2-9.3
		c-2.8-2-7.2-3.1-13.3-3.1h-13.4v48.7h14.9c5.5,0,9.7-1.2,12.7-3.6c3-2.4,4.5-5.9,4.5-10.4c0-3.4-0.9-6-2.8-7.8
		C297.3,47.4,294.4,46.2,290.5,45.6z M273.2,25.4h9.8c4.6,0,8.1,0.7,10.5,2.2c2.3,1.5,3.5,3.8,3.5,7.1c0,3.2-1,5.6-3.1,7.1
		c-2.1,1.5-5.4,2.3-10,2.3h-10.7V25.4z M284.6,68.1h-11.5v-21h10.7c9.5,0,14.3,3.3,14.3,10C298.2,64.5,293.7,68.1,284.6,68.1z"/>
	<path class="st0" d="M159.4,22.2l-19.6,48.9h3.8l6.8-17.2h19.8l6.8,17.2h3.8l-19.2-48.9H159.4z M169.1,50.9h-17.4l6.8-17.5
		c0.7-1.7,1.4-3.7,2-5.8c0.8,2.4,1.4,4.4,2,5.7L169.1,50.9z"/>
	<path class="st0" d="M331.8,21.7c-6.8,0-12.1,2.2-16,6.7c-3.9,4.5-5.8,10.6-5.8,18.3c0,7.8,1.9,13.9,5.8,18.4
		c3.9,4.5,9.2,6.7,16,6.7c6.8,0,12.1-2.2,16-6.7c3.9-4.5,5.8-10.6,5.8-18.3c0-7.8-1.9-13.9-5.8-18.3
		C343.9,23.9,338.6,21.7,331.8,21.7z M345.2,62.9c-3.1,3.8-7.6,5.7-13.4,5.7c-5.8,0-10.3-1.9-13.4-5.7c-3.1-3.8-4.7-9.2-4.7-16.2
		c0-7,1.6-12.3,4.7-16.1c3.1-3.8,7.6-5.7,13.4-5.7c5.8,0,10.3,1.9,13.4,5.6s4.6,9.1,4.6,16.1C349.8,53.8,348.3,59.2,345.2,62.9z"/>
	<path class="st0" d="M73.7,49.8v-7.4V0.5L37,21.5v0l0,0l0,0v0L0.3,0.5v41.9v7.4v41.9v0L37,70.8v0l0,0l0,0v0l36.7,20.9l0,0V49.8z
		 M37,56.5L18.7,46.1L37,35.7l18.3,10.4L37,56.5z M61.6,35.5L48.5,28l13.1-7.5V35.5z M12.4,20.6L25.5,28l-13.1,7.5V20.6z M12.4,56.8
		l12.1,6.9l-12.1,6.9V56.8z M49.5,63.7l12.1-6.9v13.8L49.5,63.7z"/>
</g>
</svg>
