<?xml version="1.0" encoding="utf-8"?>
<!-- Generator: Adobe Illustrator 21.1.0, SVG Export Plug-In . SVG Version: 6.00 Build 0)  -->
<svg version="1.1" id="Layer_1" xmlns="http://www.w3.org/2000/svg" xmlns:xlink="http://www.w3.org/1999/xlink" x="0px" y="0px"
	 viewBox="0 0 256 256" style="enable-background:new 0 0 256 256;" xml:space="preserve">
<style type="text/css">
	.st0{fill:#FFFFFF;}
</style>
<path class="st0" d="M0,0v255.3h255.3V0H0z M111.2,174.3c-33.3,0-53.4-24.5-53.4-52.4c0-27.3,19.1-52.4,53.1-52.4
	c29.2,0,47.3,18.4,50,41.3h-24.1c-2.1-11.7-11-20.5-25.6-20.5c-19.1,0-29.9,15.1-29.9,31.6c0,17.5,12.1,31.6,30.2,31.6
	c13.4,0,22.2-7.7,25-17.5H161C157.2,157,139.1,174.3,111.2,174.3z M201.4,141.6l-0.1-0.1l-12.4,29.1l-14.7-6.3l18.4-43.1l-18.4-43.1
	l14.7-6.3l21,49.4L201.4,141.6z"/>
</svg>
