<svg viewBox="0 0 256 299" xmlns="http://www.w3.org/2000/svg" preserveAspectRatio="xMidYMid">
    <path d="M188.222 191.804v.01l-60.144 35.725-.078-.047v-.004l-60.218-35.674L7.56 227.488 128 298.842l120.444-71.354-60.222-35.684" fill="#fff"/>
    <path d="M128 227.488l60.218 35.67L128 298.842v-71.354m-60.218-35.674v71.344L7.56 227.488l60.222-35.674M128 227.488v71.354l-60.218-35.684L128 227.488m60.222 35.67v-71.344L128 227.488l60.222 35.67" fill="#fff"/>
    <path d="M67.782 263.158l60.296-35.619-60.296-35.725v71.344" fill="#fff"/>
    <g fill="#fff">
        <path d="M256 71.354l-.007-.004v-.003l-.003.002L135.553 0v71.347l60.222 35.681v71.358l60.218 35.67V71.359l.007-.005"/>
        <path d="M195.775 107.028l60.218 35.674V71.347l-60.218 35.681"/>
        <path d="M195.775 107.028l-.004-71.354L256 71.354l-60.225 35.674m0 71.358l60.218 35.67v-71.354l-60.218 35.684"/>
        <path d="M255.993 142.702l-60.218 35.684v-71.358l60.218 35.674M195.771 35.674l-60.218 35.673 60.222 35.681-.004-71.354"/>
    </g>
    <g fill="#fff">
        <path d="M.008 71.35l-.004-.003v.005L0 71.354l.004.002v142.7l60.218-35.67v-71.358l60.225-35.681V0L.008 71.35"/>
        <path d="M60.222 107.028L.004 142.712V71.347l60.218 35.681m60.225-35.681L60.225 35.674 120.447 0v71.347"/>
        <path d="M60.222 107.028L0 71.354l60.225-35.68-.003 71.354"/>
        <path d="M.004 142.712l60.218 35.674v-71.358L.004 142.712M60.225 35.674l-.003 71.354 60.225-35.681-60.222-35.673"/>
    </g>
</svg>
