<svg viewBox="0 0 256 239" xmlns="http://www.w3.org/2000/svg" preserveAspectRatio="xMidYMid">
    <path fill="#fff" d="M238.218 141.656l17.777 10.263v-96.4l-17.777-10.267zM0 55.52v96.405l17.778-10.268V45.255zm78.232 172.438l17.778 10.263 42.329-24.439-17.778-10.263z"/>
    <path fill="#fff" d="M103.118 213.59l17.777 10.265 17.444-10.073-17.778-10.263z"/>
    <path d="M168.884 198.188V177.66l-76.546-44.195-5.226 3.017.009.005v14.494zm-81.764-2.044L160 238.222l17.781-10.263-90.661-52.345z" fill="#fff"/>
    <path d="M194.712 70.374l17.776 10.263 43.508-25.118-17.782-10.261zm-57.722 53.855l-17.778-10.263-40.988 23.666L96 147.895zm79.903-91.286L199.11 22.679l-43.5 25.119 17.778 10.265zm-119.005 68.71L80.11 91.39l-40.99 23.665 17.78 10.263zm18.619-76.431l17.778 10.263 43.506-25.118L160.009.104zM.02 92.478l17.777 10.263 40.988-23.664-17.777-10.265z" fill="#fff"/>
    <path d="M238.218 102.734v90.327l17.777-10.265V92.471zm-21.334 102.643v-90.326l-17.778 10.263v90.328zm-56.89-57.482v90.327l17.78-10.264V137.63zm-81.762 80.063l17.778 10.263v-90.324l-17.778-10.266zM56.899 125.315v90.326L39.12 205.378v-90.327zM.01 182.796l17.777 10.263v-90.325L.01 92.469zm103.098-59.533l17.778 10.263 16.105-9.297-17.778-10.263zM24.904 78.11l17.778 10.264 16.103-9.298-17.776-10.263zm39.102 22.577l17.778 10.263 16.103-9.298L80.11 91.39z" fill="#fff"/>
    <path d="M96.002.094l-17.78 10.263 159.993 92.375 17.78-10.263zM56.89 22.676L39.111 32.939l159.99 92.375 17.782-10.263zM0 55.52l159.991 92.375 17.781-10.263L17.778 45.257z" fill="#fff"/>
</svg>
