<svg viewBox="0 0 256 256" xmlns="http://www.w3.org/2000/svg" preserveAspectRatio="xMidYMid">
    <path fill="#fff" d="M179.6 40.4l74.8 62-27.2 54.8-44.8-12.4h-39.2zM104 80.8l-14.4 76.4-1.2 26.4-36.8 15.6L0 204.8 15.6 39.2l94-39.2 57.6 38z"/>
    <path fill="#fff" d="M104 80.8l7.2 147.6L87.6 256 0 204.8 72 97.2zM200.8 70H112l78.4-70z"/>
    <path fill="#fff" d="M256 228.8l-78 26.8-104-29.2 30-145.6L116 70l63.6-6-6 63.6L224 108z"/>
    <path d="M48 48h160v160H48z" fill="#fff"/>
    <path d="M63.2 178h60v10h-60v-10zm-.4-109.2H90c16 0 25.2 9.2 25.2 22.8 0 15.2-12 23.2-26.8 23.2H77.2v20H62.8v-66zm37.6 23.6c0-6.4-4.4-10-12-10H77.2v20.4h11.6c7.86 0 11.6-4.8 11.6-10.4zm20.4 10A33.66 33.66 0 0 1 155.2 68c12.4 0 20 4 26 10.4L172 89.2c-5.2-4.8-10.4-7.6-16.8-7.6-11.2 0-19.2 9.2-19.2 20.8 0 11.2 8 20.8 19.2 20.8 7.6 0 12.4-3.2 17.6-7.6l9.2 9.2c-6.8 7.2-14.4 12-27.2 12a34 34 0 0 1-34-34.4z" fill="#FFF"/>
</svg>
