<svg viewBox="0 0 256 296" xmlns="http://www.w3.org/2000/svg" preserveAspectRatio="xMidYMid">
    <path d="M128 .397L0 74.297V222.1L128 296l128-73.9V162h-20.03v48.534L128 272.87 20.03 210.535V85.862L128 23.526l107.97 62.336v48.534H256V74.298L128 .397z" fill="#fff"/>
    <path d="M206.005 91.341l-78.347 45.268-57.868-33.787 57.865-33.69 41.403 23.88 19.137-11.358-60.587-34.944L39.691 97.9v9.81l87.914 51.333 68.667-39.675v68.17l-68.626 40.303L59.24 187.43v-47.305l-19.4-10.937v69.31l87.777 51.854 88.054-51.71v-101.5l-9.666-5.8z" fill="#fff"/>
</svg>
