<svg xmlns="http://www.w3.org/2000/svg" viewBox="0 0 256 256">
    <style>
        .st0{fill:#fff}
    </style>
    <path class="st0" d="M128 0C57.3 0 0 57.3 0 128s57.3 128 128 128 128-57.3 128-128S198.7 0 128 0zM99.4 196c-4.4 4.4-11.6 4.4-16.1 0l-30.7-30.7c-22-22-22.3-57.5-1.1-79.9.2-.2.3-.4.5-.6l.3-.3.3-.3c.2-.2.4-.4.6-.5 22.4-21.2 57.9-20.8 79.9 1.1l30.7 30.7c4.4 4.4 4.4 11.6 0 16.1-4.4 4.4-11.6 4.4-16.1 0L117 100.9c-13.4-13.4-35.1-13.5-48.6-.3-13.2 13.5-13.1 35.2.3 48.6l30.7 30.7c4.4 4.5 4.4 11.7 0 16.1zm105.1-25.4c-.2.2-.3.4-.5.6l-.3.3-.3.3c-.2.2-.4.4-.6.5-22.4 21.2-57.9 20.8-79.9-1.1l-30.7-30.7c-4.4-4.4-4.4-11.6 0-16.1 4.4-4.4 11.6-4.4 16.1 0l30.7 30.7c13.4 13.4 35.1 13.5 48.6.3 13.2-13.5 13.1-35.2-.3-48.6l-30.7-30.7c-4.4-4.4-4.4-11.6 0-16.1 4.4-4.4 11.6-4.4 16.1 0l30.7 30.7c22 22 22.3 57.5 1.1 79.9z"/>
</svg>
