<svg xmlns="http://www.w3.org/2000/svg" viewBox="0 0 256 256">
    <style>
        .st0{fill:#fff}
    </style>
    <path class="st0" d="M256 128C256 57.3 198.7 0 128 0S0 57.3 0 128s57.3 128 128 128c23.7 0 45.9-6.4 64.9-17.6l47.5 14.5-16.7-39.9c20.1-22.6 32.3-52.4 32.3-85zm-61.2 8.1l-64.3 71.8-68.7-61.8c-6.2-6.9-10-15-10-25-.6-10.6 3.1-20.6 11.2-29.3s17.5-13.1 28.1-14.4c10.6-1.2 20 1.2 28.1 7.5 25.6 20 31.2 38.7 16.9 56.8-3.7-17.5-11.9-30-23.7-38.1-11.9-8.7-21.9-7.5-31.2 2.5-9.4 10.6-10 19.4-2.5 27.5l48.7 44.3 49.3-54.9c3.7-5 5-10.6 4.4-16.9-.6-7.5-4.4-13.7-10-18.7-6.2-5.6-12.5-8.7-20-8.1-6.2 0-11.2 1.9-13.7 5.6l-17.5-15c8.1-8.1 18.7-12.5 31.8-12.5 12.5-.6 24.4 3.7 34.3 13.1 8.7 8.1 14.4 19.4 16.2 33.7 2.6 14.4-1.1 24.4-7.4 31.9z"/>
</svg>
