<svg viewBox="0 0 256 242" xmlns="http://www.w3.org/2000/svg" preserveAspectRatio="xMidYMid">
    <path d="M0 0h256L127.975 241.508 0 0" fill="#fff"/>
    <path d="M158.988 64.196a7.24 7.24 0 1 1-14.48 0 7.24 7.24 0 0 1 14.48 0m0 19.886a7.24 7.24 0 1 1-14.48 0 7.24 7.24 0 0 1 14.48 0m0 19.79a7.24 7.24 0 1 1-14.48 0 7.24 7.24 0 0 1 14.48 0m-43.44 0a7.24 7.24 0 1 1-14.481-.001 7.24 7.24 0 0 1 14.481.001m0-19.79a7.24 7.24 0 1 1-14.481 0 7.24 7.24 0 0 1 14.481 0m0-19.886a7.24 7.24 0 1 1-14.481-.001 7.24 7.24 0 0 1 14.481.001m21.72 0a7.24 7.24 0 1 1-14.48 0 7.24 7.24 0 0 1 14.48 0m0 19.886a7.24 7.24 0 0 1-7.24 7.24 7.24 7.24 0 0 1-7.24-7.24 7.24 7.24 0 0 1 7.24-7.24 7.24 7.24 0 0 1 7.24 7.24m0 19.79a7.24 7.24 0 1 1-14.48 0 7.24 7.24 0 0 1 14.48 0m0 20.079a7.24 7.24 0 0 1-7.24 7.24 7.24 7.24 0 0 1-7.24-7.24 7.24 7.24 0 0 1 7.24-7.24 7.24 7.24 0 0 1 7.24 7.24" fill="#fff"/>
</svg>
