<svg viewBox="0 0 256 389" xmlns="http://www.w3.org/2000/svg" preserveAspectRatio="xMidYMid">
    <ellipse opacity=".39" fill="url(#a)" cx="126.1" cy="375.1" rx="90" ry="12.8"/>
    <path opacity=".46" fill="#fff" d="M158.6 368.1c-12.5 0-23.8.7-32.5 1.8-8.7-1.1-20.1-1.8-32.5-1.8-27.4 0-49.6 3.2-49.6 7.1 0 3.9 22.2 7.1 49.6 7.1 12.5 0 23.8-.6 32.5-1.8 8.7 1.1 20.1 1.8 32.5 1.8 27.4 0 49.6-3.2 49.6-7.1-.1-3.9-22.2-7.1-49.6-7.1z"/>
    <ellipse fill="url(#b)" cx="223.4" cy="112.5" rx="12.9" ry="10"/>
    <path fill="#fff" d="M234.8 109.9s-7.3-6.5-13.5-.5c0 0 5 1.3 4.5 4.4-.5 3.1-4.7 4.2-4.7 4.2s14.5 4.1 13.7-8.1z"/>
    <path fill="#fff" d="M225.8 113.8c.5-3.1-4.5-4.4-4.5-4.4 6.3-6 13.5.5 13.5.5l.1.6c-2.7-.7-9.5-1.6-8.4 8.1-2.9.1-5.5-.7-5.5-.7s4.3-1.1 4.8-4.1z"/>
    <ellipse fill="url(#c)" cx="28.5" cy="112.5" rx="12.9" ry="10"/>
    <path fill="#fff" d="M17 109.9s7.3-6.5 13.5-.5c0 0-5 1.3-4.5 4.4.5 3.1 4.7 4.2 4.7 4.2s-14.5 4.1-13.7-8.1z"/>
    <path fill="#fff" d="M26 113.8c-.5-3.1 4.5-4.4 4.5-4.4-6.3-6-13.5.5-13.5.5l-.1.6c2.7-.7 9.5-1.6 8.4 8.1 2.9.1 5.5-.7 5.5-.7s-4.2-1.1-4.8-4.1z"/>
    <path fill="#fff" d="M124.7 13.2s-69.2-6.6-87.1 89.6-57.2 120.9-25.9 164c0 0 0 56 47.1 103.6 0 0 18.1 14.7 30.8-3.6 12.8-18.4 30.1-28.8 44.8-25s28.3 22.4 33.9 28.5c5.6 6.1 29 25.2 58.6-55.3 0 0 55.5-30.6 13.5-117.1 0 0-16.1-36.9-24.5-89.6-8.5-52.5-34.9-94.3-91.2-95.1z"/>
    <path opacity=".7" fill="#fff" d="M240.3 198s-16.1-36.9-24.5-89.6c-6.6-41.2-24.2-75.7-58.5-89.2C170.9 29.5 168.9 44 168.9 44c-31-2.9-39.7 31.3-39.7 31.3s3.5-28.9 2.4-28.6c-1.2.3-4.7 24.3-4.7 24.3l-1.5-11.4-.6 11.4-5.2-22 3.8 27.8c-6.2-39-45.3-32.1-45.3-32.1-1.6-11.5 8.6-20.6 18.2-26.5-21.3 8.1-48.4 29.5-58.7 84.7-17.8 96.2-57.3 120.8-26 163.9 0 0 0 56 47.1 103.6 0 0 18.1 14.7 30.8-3.6 12.8-18.4 30.1-28.8 44.8-25s28.3 22.4 33.9 28.5c5.6 6.1 29 25.2 58.6-55.3 0 .1 55.5-30.5 13.5-117z"/>
    <path fill="#fff" d="M119.7 71.3S114 46.5 88 46.5 56.3 81.7 56.3 81.7s0 20.3 24.8 25c0 0-12.1-4.4-18.4-13.8 0 0 6 4.8 20.3 5.5 0 0-22.2-4.8-25.3-16.6 0 0 5.8-32.4 30.4-33.3 24.7-1 31.6 22.8 31.6 22.8z"/>
    <path fill="#fff" d="M119.8 84.7l-.5.7s.5-30.6-27.8-32c-28.3-1.5-32.7 28.3-32.7 28.3s.8 7.7 27.8 9.2c16.9.9 25.4-1.5 29.4-3.4 2.6-.8 2.6 1.1 2.6 1.1-8.4 8.1-27.5 10.6-27.5 10.6 15.8.8 25.1-4.8 25.1-4.8-5.2 9.1-19.7 12.6-19.7 12.6 20.4-.2 25.6-18.2 25.6-18.2l-2.3-4.1z"/>
    <path fill="#fff" d="M59.6 81.8s6-29.3 32.4-27.5c26.4 1.8 26.9 31.1 26.9 31.1s-9.4 5.5-32.8 3.6c-23.6-2.1-26.5-7.2-26.5-7.2z"/>
    <path fill="#fff" d="M109.5 62c-3.5-1.8-7.4-2.7-11.5-2.7-14.1 0-25.5 11.4-25.5 25.5 0 .8.1 1.6.1 2.4 3.5.7 7.8 1.3 13.2 1.8 23.5 2 32.8-3.6 32.8-3.6s-.2-14.3-9.1-23.4zm24.7 8.5s5.5-24.1 30.8-24.1 30.8 34.2 30.8 34.2 0 19.7-24.1 24.2c0 0 11.7-4.2 17.8-13.4 0 0-5.8 4.7-19.7 5.3 0 0 21.6-4.7 24.5-16.1 0 0-5.6-31.4-29.5-32.3-23.9-.8-30.6 22.2-30.6 22.2z"/>
    <path fill="#fff" d="M134.1 83.5l.5.6s-.5-29.7 27-31.1 31.7 27.5 31.7 27.5-.8 7.5-27 8.9c-16.4.9-24.6-1.4-28.6-3.3-2.5-.8-2.6 1.1-2.6 1.1 8.1 7.8 26.7 10.3 26.7 10.3-15.3.8-24.4-4.7-24.4-4.7 5.2 8.9 19.2 12.4 19.2 12.4-19.8-.2-24.8-17.7-24.8-17.7l2.3-4z"/>
    <path fill="#fff" d="M192.6 80.7s-5.8-28.4-31.4-26.7c-25.6 1.7-26.1 30.2-26.1 30.2s9.1 5.3 31.9 3.5c22.8-2 25.6-7 25.6-7z"/>
    <path fill="#fff" d="M144.1 61.5c3.4-1.7 7.1-2.7 11.1-2.7 13.6 0 24.8 11.1 24.8 24.8 0 .8-.1 1.5-.1 2.3-3.4.7-7.6 1.3-12.8 1.7-22.8 1.9-31.9-3.5-31.9-3.5s.2-13.7 8.9-22.6zm-77.5 50s57.8 9.3 113.6-6.8 3.2 99.6-45 101c-48.3 1.4-73.7-33.6-84.5-72-.1 0-8.9-27.2 15.9-22.2z"/>
    <path fill="#fff" d="M66.6 111s57.8 8.8 113.6-6.4c55.8-15.1 3.2 94.3-45 95.6-48.3 1.3-73.8-31.8-84.6-68.2 0 0-8.8-25.6 16-21z"/>
    <path fill="#fff" d="M71.9 119.2s61.6 12.7 107-6.9c0 0 13.7-6.9 18 1.1 4.3 8-19.3 72.5-65.6 75-46.3 2.6-63.7-37.5-72-56.2 0 0-3.6-8.7.7-12.2 3.1-2.6 4.6-2.3 11.9-.8z"/>
    <path fill="#fff" d="M71.9 119.2s61.6 12.7 107-6.9c0 0 13.7-6.9 18 1.1 4.3 8-19.3 72.5-65.6 75-46.3 2.6-63.7-37.5-72-56.2 0 0-3.6-8.7.7-12.2 3.1-2.6 4.6-2.3 11.9-.8z"/>
    <path opacity=".7" fill="#fff" d="M110.8 138.9c11.8-3.7 25.7-5.8 41.1-4.3 3.2-7 2.3-12.5 1.7-14.6-6.2 1.2-12.4 2.1-18.6 2.6 1.5 3.7-1.1 7.3-6.7 6.8-5.3-.5-4.9-4.1-4.1-6.2-6.3.2-12.3.2-17.9-.1-3.1 9.9 2.2 14.4 4.5 15.8z"/>
    <path fill="#fff" d="M94.9 122.3c-11.2-1-19.3-2.4-22-2.9-.1 2.9.7 12.2 11 13.3 8.4.9 10.5-6 11-10.4zm83.9-9.9c-4.9 2.1-10 3.9-15.2 5.3.8 3.3 3.8 9.7 9.7 9.6 7.5-.2 12.5-9.2 12.6-17.2-3.8.7-7.1 2.3-7.1 2.3z"/>
    <path d="M173.609 165.495l-.5.5c2.2 2.6 4.7 4.8 6.7 6.4.2-.2.3-.4.4-.5-2-1.5-4.5-3.7-6.6-6.4zm20.6-54.8c.2.1.4.3.6.4 1-1.6 2.2-3.7 3-6l-.6-.3c-.8 2.3-1.9 4.4-3 5.9zm-13.1.7c.2-.1.4-.2.7-.3-.2-2.5-.5-4.9-.7-6.8-.2.1-.4.1-.7.2.2 2 .5 4.5.7 6.9zm7.5 31.8l-.3.6c3.6 2.4 6 3.4 7.8 3.7l.3-.6c-1.7-.3-4.2-1.3-7.8-3.7zm-33.5-23.6c.2-.1.4-.1.7-.2l-.8-9.6c-.2.1-.5.1-.7.1l.8 9.7zm-12.4 2c.2-.1.5-.1.7-.1l-.9-10c-.2 0-.5.1-.7.1l.9 10zm18.8 55.2c-.2.2-.4.3-.6.4 1.1 2.8 2.8 6.1 5.5 8.9.2-.2.4-.3.5-.4-2.7-2.8-4.4-6.2-5.4-8.9zm20.6-22.4c-.2.2-.3.4-.4.6 1.5 1.9 3.7 4.4 6.6 6.2.1-.2.3-.4.4-.6-2.9-1.8-5.2-4.3-6.6-6.2zm-13.4-38.3c.2-.1.4-.2.7-.2l-.4-8.6c-.2.1-.5.1-.7.2l.4 8.6zm-41.4 6.9l-.4-10.1c-.2 0-.5 0-.7.1l.4 10.1c.2-.1.5-.1.7-.1zm69.2-.8c-.1.2-.1.5-.2.7 3.9-.5 6.3-2 7.8-3.7v-1c-1.3 1.7-3.5 3.4-7.6 4zm-3 9.8c-.1.2-.1.4-.3.6 1.5.8 4.4 1.8 8.2 1.5.1-.2.1-.5.2-.7-3.8.4-6.6-.7-8.1-1.4zm-112.1-11.3c.3.1.5.1.7.1-.8-3-1.1-5.8-1.3-8.3-.2 0-.5-.1-.7-.1.2 2.6.5 5.4 1.3 8.3zm-17.8-2.6c.3-.1.5-.1.8-.1-1.2-1.6-2.5-4.1-3-7.7h-.7c.5 3.6 1.7 6.1 2.9 7.8zm15.3 62.3c.2.2.4.3.5.5 1.9-2.5 4.3-5.2 7.1-7.2-.2-.2-.4-.3-.5-.5-2.8 2.1-5.2 4.8-7.1 7.2zm20.4 1.9l-.6-.3c-1.6 2.4-3.4 5.5-5.1 9l.6.3c1.7-3.6 3.5-6.7 5.1-9zm-.2-59.7h.6c-.6-2.6-1.3-5.9-1.7-9.3h-.7c.5 3.4 1.2 6.7 1.8 9.3zm15.1 64.7c-.2-.1-.5-.1-.7-.1-1.3 3.9-2.1 7.6-2.5 10.6.2.1.4.1.7.2.5-3.1 1.2-6.7 2.5-10.7zm30-1.3c1.6 4.6 3.8 8.1 5.8 10.7l.6-.3c-2-2.5-4.3-6.1-5.8-10.6-.2 0-.4.1-.6.2zm-86.4-60.7c-3.1-.8-6.2-2.3-8.7-3.8 0 .3 0 .5-.1.8 2.5 1.5 5.6 3 8.7 3.7v-.7h.1zm9.2 23.3l-.3-.6c-3.6 1.4-6.1 3.4-7.9 5.3l.3.6c1.8-1.9 4.3-3.9 7.9-5.3zm47.5-25.4h.7l-1-9.8h-.7l1 9.8zm16.9 65.2h-.6c-.4 3.6-.7 7.9-.8 11.8h.7c.1-3.9.4-8.2.7-11.8zm-71-53.5c-.1-.2-.2-.5-.3-.7-2.1.2-4.8.8-8.2 2 .1.2.2.4.2.6 3.5-1.2 6.2-1.7 8.3-1.9zm15.4 27.3c-.2-.2-.3-.4-.4-.6-2.5 1-5.6 2.7-8.3 5.4.2.2.3.4.4.6 2.8-2.7 5.9-4.4 8.3-5.4z" fill="#fff"/>
    <path opacity=".5" fill="#fff" d="M107.3 25.3s1.4 7.4 18.2 7.4 16.2-7.9 16.2-7.9-2.9 6-16 6-18.4-5.5-18.4-5.5z"/>
    <path fill="#fff" d="M141 22.9c0 2.9-7.3 5.1-16.2 5.1s-16.2-2.3-16.2-5.1c0-2.9 7.3-5.1 16.2-5.1s16.2 2.3 16.2 5.1z"/>
    <path fill="#fff" d="M124.9 0c-7.6 0-13.8 11.6-14.6 22.5 0 0 1.5 3.9 15.1 3.9 12.1 0 14.1-3.9 14.1-3.9-.8-10.9-7.1-22.5-14.6-22.5z"/>
    <path fill="#fff" d="M133.5 13.8c0 4.7-3.9 8.5-8.6 8.5-4.8 0-8.6-3.8-8.6-8.5s3.9-11.7 8.6-11.7c4.7 0 8.6 7 8.6 11.7z"/>
    <path opacity=".7" fill="#fff" d="M240.3 198s-10.4-24-18.9-60.9c-2.6 13.6-8 46.8-5.2 66.8 3.5 25.7 13.4 131-32.4 147.1 0 0-13.8 2.2-31.4-17.7-17.5-19.9-41.3-43.6-41.3-43.6l12-5.3s6.2 8.2 18.7 4.4c0 0-8.2 1.5-14-4.7 0 0 8.5 2.9 14-4.1 0 0 3.8 1.2 2.7 3.8 0 0 4.4-3.5 1.2-7.9 0 0 24.5-21.3 14.6-45.6l-7-9.4s5.9-5 6.2-6.4c.3-1.5-1.8-16.1-1.8-16.1s17.6-17.3 29.9-36.3c-13.4 20-33.2 37.4-52.3 37.9-43.6 1.2-68.7-25.8-81-57.9H54l.3.9c2.1 6 15.4 40.8 47.6 55.8l-18.7 4.1s66.8 19.6 69.7 35.1c2.9 15.5-107.2 40.6-140.7 14.6-10.6-8.2-10.8-23-9.8-35.5-4.5 17.6-3.5 32 9.3 49.6 0 0 0 56 47.1 103.6 0 0 18.1 14.7 30.8-3.6 12.8-18.4 30.1-28.8 44.8-25 14.7 3.8 28.3 22.4 33.9 28.5 5.6 6.1 29 25.2 58.6-55.3-.1.2 55.4-30.4 13.4-116.9z"/>
    <path opacity=".6" fill="#fff" d="M95.4 284.5c58.4-8.8 71.5-38.3 64.8-54-6.7-15.8-77.1-27.5-77.1-27.5s72.6 14.3 74.7 34.2c2.9 27.5-80.9 58.2-146.1 29.6 0 0 0 2.4.4 6.5 12.7 6.5 41.3 17.5 83.3 11.2z"/>
    <path fill="#fff" d="M113.5 87.2c.2-.9.3-1.7.3-2.6 0-8-6.5-14.4-14.4-14.4S85 76.8 85 84.7c0 1.5.2 2.8.6 4.2.2 0 .4.1.5.1 13.5.9 22.4-.4 27.4-1.8zm136.7 135.5c1.4 19.6.9 53.3-17.1 66.4 0 0 2.4-47.6-12.6-75.6 0 0 26.3 64.2-19 136.9 0 0-12.8 32.1-41.7 2.7-28.9-29.5-67.5-14-67.5-14l14.9 2.1s-14.9 3.8-20.8 16.1c-5.8 12.1-34.4 11.7-68-53.2 6.2 19.4 17.9 43.8 40.2 66.3 0 0 18.1 14.7 30.8-3.6 12.8-18.4 30.1-28.8 44.8-25s28.3 22.4 33.9 28.5c5.6 6.1 29 25.2 58.6-55.3.1.1 44.8-24.5 23.5-92.3z"/>
    <path fill="#fff" d="M125.3 281.5s8.9 5 15.5-2.5c0 0 2.5-1 3.6.2-.2 0-9.8-7.4-19.1 2.3z"/>
    <path d="M143.513 278.722c.4.2.6.4.6.4-.1-.1-.3-.3-.6-.4zm0 0c-2.3-1.4-10.4-5.6-18.4 2.7 0 0 9 1.4 13.6-3.1l1.8.7c.1-.1 1.8-.7 3-.3z" fill="#fff"/>
    <path opacity=".6" fill="#fff" d="M91.9 54.3c-26.4-1.8-32.4 27.5-32.4 27.5s2.9 5.2 26.4 7.1 32.8-3.6 32.8-3.6-.5-29.3-26.8-31zm-5.8 33.4c-21.9-1.8-24.6-6.6-24.6-6.6s5.6-27.4 30.2-25.7 25.1 29 25.1 29-8.7 5.1-30.7 3.3z"/>
    <path fill="#fff" d="M140.2 86c-.1-.8-.2-1.7-.2-2.5 0-7.8 6.3-14 14-14s14 6.3 14 14c0 1.4-.2 2.8-.6 4-.2 0-.4.1-.5.1-13.2 1.1-21.8-.3-26.7-1.6z"/>
    <path opacity=".6" fill="#fff" d="M161.3 54c25.6-1.7 31.4 26.7 31.4 26.7s-2.8 5-25.6 6.9c-22.8 1.9-31.9-3.5-31.9-3.5s.5-28.4 26.1-30.1zm5.5 32.5c21.3-1.8 24-6.4 24-6.4s-5.4-26.6-29.4-25S137 83.3 137 83.3s8.5 5 29.8 3.2z"/>
    <path fill="#fff" d="M120.8 74.6l3.7 6-.6-7.1 2.2 4.7-.2-9.9 1.6 8.3 1.6-11.6.2 14.7 3.2-7.7s-4.4 13.9-4.4 19.5L127 81v9l-1.6-7.3.2 6.5-4.8-14.6z"/>
    <path opacity=".3" fill="#FFF" d="M60.4 85.6s23 13.7 55.5 2.8c-.1 0-29.1 20.5-55.5-2.8z"/>
    <path opacity=".3" fill="#FFF" d="M65.9 95.7s20.8 11.9 46.6 1.1c0-.1-23.2 19.7-46.6-1.1zm71.3-8.6s27.8 11.2 54.3-2.6c0 .1-23.3 22-54.3 2.6z"/>
    <path opacity=".3" fill="#FFF" d="M140.5 95.2s21.7 9.9 43.7.3c.1 0-20 17.4-43.7-.3zM66.7 61.7s9.2-12.6 23.6-12.2c14.4.4 21.3 9.3 24.4 14.2-.1.1-20.7-25.6-48-2zm74.1-.7s19-24.8 42.8-1.5c0-.1-21.1-17-42.8 1.5z"/>
    <path opacity=".4" fill="#fff" d="M254.5 272.5c-8.4 18.8-19 27.5-19 27.5.4-3.7.7-9.2.9-13.6-1 1-2.1 2-3.3 2.8 0 0 .1-2 .1-5.4-2.5 19-6.5 31.3-6.5 31.3s22-12.1 27.8-42.6z"/>
    <path opacity=".15" fill="#FFF" d="M130.9 285.9s7.8.7 11.2-4.3c0 0 2.9 8.9-11.2 4.3z"/>
    <path opacity=".25" fill="#FFF" d="M52.8 130.9s-7.5-20.4 9.3-18.7 63 5.3 96.9-1.7c34.1-6.9 36.2-7.7 42.3.4 0 0-6.4-7.1-18.1-3.3-11.8 3.9-59.4 16-120.9 6.9 0 .1-12-1.8-9.5 16.4z"/>
    <path fill="#fff" d="M129.2 197.1C94 195.8 73.3 175.9 62 158.8c14 24.3 37.3 42.3 73.1 41.3 32.4-.8 66.8-50.5 68.9-78.5-7 26.4-29.7 77.2-74.8 75.5z"/>
    <g fill="#fff" fill-opacity=".5">
        <path opacity=".7" d="M197.38 116.675c-.5 15.4-23.8 69.4-66.1 71.8-46.4 2.6-63.7-37.6-72.1-56.2 0 0-3.6-8.7.7-12.2 1.4-1.2 2.5-1.8 3.8-2 0 0-8.7-1.9-6.7 16.6.7 6.6 1.7 14.7 4.5 23.4 13.9 24.7 37.4 43.1 73.6 42.1 17-.5 34.4-14.2 47.6-31.3 10.1-16.9 19.4-37.8 14.7-52.2z"/>
        <path opacity=".7" d="M178.78 112.375s5.1-2.6 10-2.8c-3.4-.3-8-.1-12.7 2.2-8.1 3.9-57.8 12.6-97.7 8.6 17.2 2.5 64 7.6 100.4-8z"/>
    </g>
    <path fill="#fff" d="M73.2 158.4c11.2 16.3 28.9 31.6 58.1 30 26.9-1.5 46.1-23.9 56.7-43.9-57.3-26.6-103 4.5-114.8 13.9z"/>
    <path opacity=".3" fill="#FFF" d="M65 148.7s18.4 44.5 64.9 41.9c46.6-2.6 66.7-64.3 66.7-64.3s-16.9 67.5-67.5 68.1C78.4 195 65 148.7 65 148.7z"/>
    <path opacity=".3" fill="#fff" d="M188 144.6c-5.2-2.4-10.3-4.4-15.2-5.9 0 .7 0 1.4-.1 2-1.5.6-3.3-.1-4.8.8 2.8 4-2.5 3.5-5 3.7-.4 2.5 1.9 3.3 2.3 5.4.5 2.6-1 5.8-3.4 5.2-2-.5-3.5-3.3-5.2-4.4-3.4-2.4-4.3-1.6-4.9 1.5-.5 2.9-.5 4.9-3.9 3.6-2-.8-5.1-5.2-7.6-3.1-2.2 1.8 1.2 8.5-1.6 9.9-2.7 1.3-4-3.6-4.5-5-1.2-3.7-4.5-4-6.9-.6-1.7 2.3-1.1 11.5-6 9.4-2.3-1-2.8-6-6-3.6-2.3 1.7-1.3 8.3-5.4 8.3-2 0-1.7-.9-2.3-2.5-.3-.7-.4-1.7-.9-2.4-.4-.6-1-.3-1.3-.7-1.7-2.4-.4-5.3-1.9-7.5-2.5-3.5-4.4.1-4.7 2.8-.3 2.5-.1 6.9-3.8 5.3-.1-1.7.7-3.5 0-5.1-1-2.7-2.9-2-5.2-2.9-.5-2.7 2.5-4.5 2.3-6.7-.3-2.4-2.7-.4-4.1-1.6-.1-.8 0-1.5.1-2.2-7.1 3.9-12.4 7.8-15.4 10.2 11.2 16.3 28.9 31.6 58.1 30 27.5-1.5 46.7-23.8 57.3-43.9z"/>
    <path opacity=".6" fill="#fff" d="M73.2 158.4c11.2 16.3 28.9 31.6 58.1 30 26.9-1.5 46.1-23.9 56.7-43.9-57.3-26.6-103 4.5-114.8 13.9zm32.9 9.7c-17.8-16.3 13.2-30 18.2-29.2 5 .8 8 27.7 8 27.7l.4-28.5s19.4-1.9 26.9 12.9-35.7 33.4-53.5 17.1z"/>
    <path opacity=".4" fill="#fff" d="M130.4 135.1s2.2 16.1 1.4 28.4c0 0-1-22.3-5.5-27.2l4.1-1.2z"/>
    <path fill="#fff" d="M65.4 114.4s65.3 8.4 113.9-6.5c-.1 0-52.2 24-113.9 6.5zm3.4 44.8s22.7 34.8 61.6 32.1c38.9-2.7 58.6-43 58.6-43s-15.7 49.5-60.5 49.8c-44.9.3-59.7-38.9-59.7-38.9zm-46.3 30.4s87.8 13.5 128 43.4c.1 0-61.6-24.1-128-43.4z"/>
    <path opacity=".4" fill="#fff" d="M142.5 235.4c-.2-.8.3-2 .4-2.8.4-2.6 2.1-3.2 1.8-6.8-8.1-3-16.1-6-22.1-7.8l.1.1v.7c-4.1 2.4 4.3 3.3 1.7 6.5 3.2-.4 1.6 2.7 1.1 4-.8 2.2-.8 3.6.1 5.6 1 2.2.9 3.1.9 5.5 0 1 .4 1.9.3 2.8-.1.9-.9 1.6-1 2.4-.2 2.4 1.7 2 2.9 3.8 1.3 1.8.1 3.4-.6 5.2-.5 1.2-1.9 4.2-.4 5.4 1.9 1.6 3.1-1 3.3-2.3.2-1.2-.4-2.3-.4-3.3 0-1.5.5-1.8.9-3.1.9-2.9-.6-3.3-1.5-5.8-.9-2.6 1-3.7 1-6.2 0-1.6-2.4-4.9-.3-5.7.1-.5-.4-1.6-.2-1.8.3-.9.3-.6.8-1.4.6-.9 1.7-2.3 2.8-1.5 1.1.8.2 2.6.5 3.8.3 1.2 1.5 2 .9 3.8-.4 1.1-2.1 1.6-2.3 2.8-.2 1.5 1.2 1.8 1.4 3.1.3 1.6-1.1 2.2-1 3.8.1 1.4 1.4 2.2 1.2 3.7 1.6.7 2.6-.1 3.3-1.6 1-2.1-.5-2.3-.8-4.1-.1-1 .5-1.5.6-2.4.1-1.3-.1-1.1-.3-2.1-.4-1.5-.7-2.8-.7-4.5 0-2.7 2.6-7 3.5-2.6.4 1.6.1 2.5.8 4.2.6 1.6.5 2.5.5 4.3 1.9 1.1 2.7-2 2.3-3.5-.5-1-1.3-1.4-1.5-2.2z"/>
    <g fill="#fff">
        <path fill-opacity=".779" d="M181.702 182.965c-.7 5.2-1.5 20 9.7 20s9.3-16.1 9.3-16.1-.2-12.6-12.3-23.7c-.2.8-5.7 12.7-6.7 19.8z"/>
        <path d="M188.402 163.265c0 .7-8.1 12.7-9 19.8-.7 5.2-1.3 17.1 9.9 17.1 11.2 0 9.3-16.1 9.3-16.1s-.6-9.1-10.2-20.8v-.2.2z"/>
        <path fill-opacity=".7" d="M189.102 187.165c8.3 0 6.9-9.8 6.9-9.8s-.5-7-7.6-14.1c0 0-5.5 9.5-6.6 13.5-.5 3.1-.9 10.4 7.3 10.4z"/>
        <path d="M197.202 183.765s-.2-5.4-4.8-12.8c3 6 3.2 10 3.2 10s1.7 14.5-8.4 14.5c-3.3 0-5.4-1.1-6.8-2.8 1.1 3.1 3.5 5.6 8.4 5.6 10.1.1 8.4-14.5 8.4-14.5z"/>
    </g>
    <path opacity=".3" fill="#FFF" d="M81.3 38.7s28.1-3.4 37.4 18c0 0-2.8-12.7-.4-13.7 2.3-1.1 5.7 19.4 5.7 19.4s1.3-11.2 2.1-11.4c.9-.2.9 8.3.9 8.3s1.7-19.4 5.3-19.6c3.6-.2.4 20.7.4 20.7s6.4-22 34-21.1c0 0-18.6-4.5-30.8 8 0 0 1.3-12.5-3-12.5s-6.4 12.7-6.4 12.7-.2-3-.9-3-1.5 8.7-1.5 8.7-4.5-16.7-7-16.1c-2.6.7-1.5 9.7-1.5 9.7s-11.3-12.5-34.3-8.1z"/>
    <path fill="#fff" d="M126.042 104.904s.4-3.6-3.5-3.4c-3.8.3-10 4.3 3.5 3.4z"/>
    <path fill="#fff" d="M122.542 101.604c-1.9.1-4.3 1.2-4.7 2.1.8.3 3.6 1.3 7.3.3l1 1.1c-.1-.2.3-3.8-3.6-3.5z"/>
    <path fill="#fff" d="M125.742 103.104c-.4-.9-1.3-1.6-3.1-1.5-1.8.1-4.2 1.1-4.7 2 1.5.1 5.6.5 7.8-.5zm2.659 1.8s-.4-3.6 3.5-3.4c3.8.3 10 4.3-3.5 3.4z"/>
    <path fill="#fff" d="M131.901 101.604c1.9.1 4.3 1.2 4.7 2.1-.8.3-3.6 1.3-7.3.3l-1 1.1c.1-.2-.2-3.8 3.6-3.5z"/>
    <path fill="#fff" d="M128.801 103.104c.4-.9 1.3-1.6 3.1-1.5 1.8.1 4.2 1.1 4.7 2-1.5.1-5.6.5-7.8-.5z"/>
    <path opacity=".2" fill="#fff" d="M131.2 188.4c26.9-1.5 46.1-23.9 56.7-43.9-2.4-1.2-4.8-2.2-7.2-3.1.1 2-.3 3.9-1.9 4.5-2.4.8-2.8-1.3-3.7 1.8-.8 2.4-1.6 1.1-3.6 1.7-1.9.5-1.3 2.1-1.2 3.6.2 4-.2 8.4-5 8.4-1.9 0-3.7-1.2-5.6-1-.8.1-1 .1-1.6.6-.7.5-1.1 2-1.8 2.1-1.2.1-1.8-2.8-3.4-1.3-1.4 1.3.6 4.2-1.9 4.8-1.8.5-2.9-1.8-4.8-1.3-1.8.5-1.2 2.6-1.3 4.3-.2 2.6-1 2.7-3.4 1.9-1-.4-1.3-.5-2.2-.4-.9.1-1.8.6-2.8 0-1.2-.7-1.1-2.1-2.2-3-.8-.7-3.3-2.3-4.2-1.3-.8.8.4 4 .4 5.2-.1 1.4.8 4.8-.5 5.4-.9.4-3.8-.2-4.5-.8-1.3-1.1-1.6-3.5-2.9-4.8-1.2-1.1-3.4-1.5-4.6-.3-1.2 1.2 0 3.7-.8 5.2-.8 1.7-3 2.1-4.6 1.5-1.8-.7-1.7-2.4-2.8-3.4-1.5-1.4-4.3.1-5.7-1.2-1.4-1.3-.4-3.4-1-5-.2-.4-1-1.8-1.4-1.9-1-.3-1.2.6-1.9.9-.5.3-1.6.2-2.1.7-.8.7-.4 1.4-.6 2.3-.6 2.4-2.7 1.9-4.5 1.1-1.6-.6-1.7-1.4-1.7-3.1 0-1.3-.1-3.5-1-4.5-1-1.2-2.6-.4-4-.9-.3-1.6 1.6-2.9.4-4.1-.7-.7-1.5-.3-1.9-1.2-.4-.7.2-1.9-.1-2.7-.7-2.6-2.4-.4-3.4-1.7-.2-.3-.2-.7-.1-1.2-3.7 2.4-6.5 4.5-8.4 6 11.9 16.4 29.6 31.8 58.8 30.1z"/>
    <path fill="#fff" d="M120.5 113.3c4.6-.2 9.2-.5 14-.9 2-1 3.8-2.2 4.7-3.6 1.8-2.9-.1-6.2-1.1-7.7.9 1.7.6 4.8-1.4 5.7-2.4 1.1-15.5 1.9-19.1-.3-3.6-2.1-1.2-5.7-1.2-5.7-4.7 6.9-.4 10.6 4.1 12.5z"/>
    <path fill="#fff" d="M116.3 107.3c2.7 2.9 5.2 4.7 6.9 5.9 3.3-.2 6.7-.4 10.2-.7 2.1-1.5 6.2-4.8 6.3-8.4-.4-1.2-1-2.3-1.5-2.9.9 1.7.6 4.8-1.4 5.7-2.4 1.1-15.5 1.9-19.1-.3-3.6-2.1-1.2-5.7-1.2-5.7-1.1 1.5-1.7 2.9-2 4.1.5.7 1 1.5 1.8 2.3z"/>
    <path opacity=".5" fill="#fff" d="M114.3 137.8c-20.5 5.6-35.2 15.9-41.1 20.7 11.2 16.3 28.9 31.6 58.1 30 26.9-1.5 46.1-23.9 56.7-43.9-17.7-8.3-34.3-11-49.1-10.5 7.4 1 28.5 4.8 32.8 15.2 5.3 12.7-24.2 24.6-39.3 26.3-15.2 1.7-40.6-2-39.8-18.4.3-9.4 11.9-15.8 21.7-19.4z"/>
    <path opacity=".3" fill="#FFF" d="M117.6 100s8.9-3.6 19.5 0c0 0-9.6-6.7-19.5 0z"/>
    <path fill="#fff" fill-opacity=".2" d="M141.4 219.2s7.8-.1 8.4-6.5c.6-6.6-3.5-44.4-3.5-44.4s-.3-9.3-12.2-9.3c-11.8 0-12.2 9.3-12.2 9.3s-4 37.8-3.7 44.4c.4 6.5 8.5 6.5 8.5 6.5h14.7z"/>
    <path fill="#fff" d="M141.232 234.256c-.2-.8.3-2 .4-2.8.4-2.6 2-4.6 2.9-7.1-8.1-3-17.2-5.8-23.2-7.6l.1.1v.7c-4.1 2.4 4.3 3.3 1.7 6.5 3.2-.4 1.6 2.7 1.1 4-.8 2.2-.8 3.6.1 5.6 1 2.2.9 3.1.9 5.5 0 1 .4 1.9.3 2.8-.1.9-.9 1.6-1 2.4-.2 2.4 1.7 2 2.9 3.8 1.3 1.8.1 3.4-.6 5.2-.5 1.2-1.9 4.2-.4 5.4 1.9 1.6 3.1-1 3.3-2.3.2-1.2-.4-2.3-.4-3.4 0-1.5.5-1.8.9-3.1.9-2.9-.6-3.3-1.5-5.8-.9-2.6 1-3.7 1-6.2 0-1.6-2.4-4.9-.3-5.7.1-.5-.4-1.6-.3-1.8.3-.9.3-.6.8-1.4.6-.9 1.7-2.3 2.8-1.5 1.1.8.2 2.6.5 3.8.3 1.2 1.5 2 .9 3.8-.4 1.1-2.1 1.6-2.3 2.8-.2 1.5 1.2 1.8 1.4 3.1.3 1.6-1.1 2.2-1 3.8.1 1.4 1.4 2.2 1.2 3.7 1.6.7 2.6-.1 3.3-1.6 1-2.1-.5-2.3-.8-4.1-.2-1 .5-1.5.6-2.4.1-1.3-.1-1.1-.3-2.1-.4-1.5-.7-2.8-.7-4.5 0-2.7 2.6-7 3.5-2.6.4 1.6.1 2.5.8 4.2.6 1.6.5 2.5.5 4.3 1.9 1.1 2.7-2 2.3-3.5-.5-.7-1.2-1.1-1.4-2z"/>
    <path fill="#fff" d="M121.332 216.956v.7c-4.1 2.4 4.3 3.3 1.7 6.5 2.5-.4 2.1 1.5 1.5 3 .1 0 .2-.1.3-.1 1.2-.1 1.2.5 2.1.8.3.1 1.3.1 1.5.3.5.4.2 1.4.5 1.8.1.1.2.2.4.3.2-.4.3-.4.6-1 .6-.9 1.7-2.3 2.8-1.5.9.7.4 2.1.4 3.3.8-.2 1.4-.5 2.4-.5.3.3.5.6.7.8.9-1.9 2.3-2.9 2.9.1.1.4.2.8.2 1.1.8-.3 1.6-.6 2.5-.5.1-.2.1-.4.1-.6.4-2.6 6.3-5.7 2.2-7.6-8.2-3-16.5-5.3-22.6-7.1-.2.1-.2.2-.2.2zM135.716 245.592c.4.1.8.2 1.2.2.1-1.1-.9-1.6-1.1-2.9-.2-1 .5-1.5.6-2.4.1-1.3-.1-1.1-.3-2.1-.1-.2-.1-.4-.2-.6-1.4-.2-2.8-.2-4.2-.3-.1.1-.1.2-.1.3-.2 1.5 1.2 1.8 1.4 3.1.2 1.1-.4 1.7-.7 2.5 1.5-.1 3 1 3.4 2.2zm-10.6-11.7c-.4-.3-.7-.5-1.1-.6l.2.4c1 2.2.9 3.1.9 5.5 0 1 .4 1.9.3 2.8-.1.9-.9 1.6-1 2.4v.1c.1 0 .1 0 .1-.1 1.7-.5 2.5 2.1 4.4 1.6.2-.1.3-.1.5-.2-.3-.5-.5-1-.8-1.6-.9-2.6 1-3.7 1-6.2 0-.2 0-.3-.1-.5-.6-.1-1.2-.2-1.8-.4-.8-.8-1.6-2.4-2.6-3.2z"/>
    <path d="M142.418 237.219c0-.3 0-.6-.1-.9-.2-.8-1-1.2-1.2-2.1-.2-.8.3-2 .4-2.8v-.1c-.9 0-1.9.1-2.8 0v.1c.4 1.6.1 2.5.8 4.2.3.7.4 1.2.5 1.8.8-.3 1.7-.3 2.4-.2zm-7-3.2c0-1.1.5-2.6 1.1-3.5-.4-.3-.8-.5-1.4-.5-.8-.1-1.4.1-2.1.2-.1.5-.1.9 0 1.3.3 1.2 1.5 2 .9 3.8-.4 1.1-2.1 1.6-2.3 2.8v.2c.8 0 1.1.3 1.8.5.7.3 1.7.3 2.7.2 0-.1 0-.2-.1-.4-.3-1.5-.6-2.9-.6-4.6zm-6.2-1.7c.1-.5-.4-1.6-.3-1.8.3-.8.3-.7.7-1.2-.2-.3-.2-.6-.4-1.1-.3-.9-.6-1.1-1.5-1.2-.4 0-.8.2-1.2.1-.4-.1-.8-.5-1.2-.7-.3-.1-.5-.2-.7-.2-.2.7-.5 1.4-.7 1.8-.8 2.2-.8 3.6.1 5.6.2.3.3.6.4.9.6.5 1.2 1 1.6 1.6 1 1.5 1.4 1.8 3.2 1.9h.3v-.1c0-1.4-2.3-4.7-.3-5.6z" fill="#fff"/>
    <path opacity=".3" fill="#FFF" d="M133.832 225.456c.6.2.9.5.9 1.1 0 .4 0 .9.1 1.3 0 .4 0 .4.3.4s1.3-.3 1.3.1c.4.1.8-.8 1.1-1 .4-.2.8.1 1 .4.2.2.1.6.4.7.3.1.4-.1.6-.1.3 0 .2.2.4.3.3.1.3-.3.4-.5.2-.4.5-.7.8-.9.2-.1.5-.2.8-.2.1 0 .3.2.4.1.3-.2.3-1.2.2-1.5-.2-.5-.8-.8-1.3-.7-.2 0-.4.1-.6.3-.1.1-.2.4-.2.5-.4.3-.7-.2-.8-.5-.2-.4-.3-.8-.6-1-.6-.5-1.5-.4-2 .2-.4.3-.4.9-.7 1.2-.3.3-.4-.4-.7-.6-.6-.5-1.4 0-2 .2m-7.7 2.8c-.4.1-.7.8-.7 1.2 0 .6.6.7.7 1.2.2.8-.7 1.3-.9 2-.3 1.2 1.2 1 1.3 2 0 .2-.1.4.1.5.2.2.7.3.9.2.3-.2.5-.8.6-1.1.2-.5.3-1 .4-1.5.2-.6.6-1.2.3-1.9-.3-.6-.8-.8-1.2-1.1-.3-.3-.5-.7-.8-.9-.4-.2-.4-.3-.5-.7m.5 10.4c-.1.5.5.8.4 1.3-.1.4-.4.8-.4 1.2s.4 1 .2 1.4c-.1.5-.7.8-1 1.2-.3.5-.5.8-.2 1.3s.8.8 1.4.6c1.2-.4.7-1.9.6-2.7 0-.4 0-.7.1-1.1.2-.5.1-.7-.1-1.2-.2-.6.2-1.8-.7-1.8m.8 15c-.5.6-1 1.3-1.2 2-.1.3-.2.8-.1 1.1.3.8 1 .8 1.5.3s.8-1.2.9-1.9c.1-.5 0-.7-.3-.9-.2-.2-.3-.5-.5-.7m6.2-17c-.1.3-.5.6-.7.8-.3.3-.7.6-.9.9-.3.4-.6 1.2-.3 1.5.2.2.4.2.6.4.2.2.4.5.5.7.2.3.2 1 .5 1.2.4.2.8-.2.8-.6.1-.5-.1-1 .2-1.5.3-.5.4-1 .3-1.6 0-.2-.2-.4-.3-.6-.1-.2-.3-.3-.5-.5-.1-.1-.1-.2-.1-.3m-.9 6.5c-.3.3-.5.9-.6 1.3-.1.6.5.7.9 1 .4.4.2.6.4 1s.6.3.8.1c.8-.5 1-2.1.3-2.7-.2-.2-.5-.5-.7-.6-.3-.1-.7-.1-.9-.2m6.7-7.9c.4.4.5 1.6.4 2.1-.1.4-.2.7-.3 1-.2.8.6 1 1 .3.3-.4.5-1 .5-1.5-.1-.5-.4-.6-.6-.9-.2-.2-.2-.4-.4-.6-.2-.1-.3-.2-.4-.4"/>
    <path fill="#fff" d="M134.2 216.4h7.1s6.3-.1 6.8-6.2c.6-6.2-2.2-42-2.2-42s-.3-8.8-11.8-8.8h.1c-11.4 0-11.8 8.8-11.8 8.8s-2.5 35.8-2.2 42c.4 6.2 6.8 6.2 6.8 6.2h7.2z"/>
    <path fill="#fff" fill-opacity=".7" d="M134.1 216.4h6.4c6.4 0 7.7-4.4 7.7-6.8-2.2 2.4-5.9 3.1-8 3.9-2.8 1.2-5.3 1-6.7.7-1.4-.2-1.5-1.1-6.1-.5-2.4.3-5-1-7-2.2.8 2.9 2.6 4.9 7.3 4.9h6.4z"/>
    <path fill="#fff" d="M147.5 194.7c.1.6.1 1.2.1 1.8-2.4-1.2-4.9-.6-7.9.7-3.9 1.8-8.3.6-12.7-1-2.3-.9-4.8-.3-6.5.4-.2 4-.4 7.5-.5 9.7 1.1.5 2.7.8 4.4.2 0 0 4.2 1.2 6.3.9 0 0 .8-.2 2 .4s2.7.6 3.5.1c0 0 2.5.1 3.4-.5 0 0 1.6-.1 2.2-.5 0 0 2.4-.1 3.7-1.3 0 0 1.3 0 2.6-.1-.2-2.4-.4-6.3-.6-10.8z"/>
    <path fill="#fff" d="M144 204.7c2 .2 3.3.2 4.1.1-.1-1.8-.2-4-.3-6.5-.7 0-1.4 0-1.9-.1-1-.1-2.9.4-3.9.8-1 .5-2 .4-3.2.2-1.2-.2-1.5-.7-3.1-.1-1.7.6-3.3.8-3.3.8s-.4-.2-1.1-.1c-.7.1-2.4-.1-2.4-.1l-2.2.2c-1.8.9-5.1.3-6.3.1-.1 1.1-.1 2.2-.2 3.1 3.4-.5 5.2 1.5 5.2 1.5 3.1-1 4.9.4 4.9.4 4.5-1.3 9.4-.6 13.7-.3zm1.9-36.9c-1-8.8-11.6-8.7-11.6-8.7s-10.9-.2-11.9 8.7c-.4 3.1-.8 9.2-1.1 15.7 1.1 1.8 2.6 3.6 4.1 4.1 3.6 1.2 3.9-1.1 8.9.5 5 1.5 6.8-.5 9.2-1.6 1.1-.5 2.5-.2 3.7.4-.5-7.8-.9-15.5-1.3-19.1z"/>
    <path fill="#fff" d="M147.1 186.4c0 .2 0 .4.1.6-1.3-.6-2.6-.9-3.7-.4-2.4 1.2-4.2 3.1-9.2 1.6-5-1.5-5.4.8-8.9-.5-1.6-.5-3-2.3-4.1-4.1-.3 4.5-.5 9.2-.7 13.2 1.8-.7 4.2-1.3 6.5-.4 4.4 1.6 8.8 2.7 12.7 1 3-1.4 5.6-1.9 7.9-.7-.2-3.4-.4-6.8-.6-10.3z"/>
    <path fill="#fff" d="M147.1 186.4c0 .2 0 .4.1.6-1.3-.6-2.6-.9-3.7-.4-2.4 1.2-4.2 3.1-9.2 1.6-5-1.5-5.4.8-8.9-.5-1.6-.5-3-2.3-4.1-4.1-.3 4.5-.5 9.2-.7 13.2 1.8-.7 4.2-1.3 6.5-.4 4.4 1.6 8.8 2.7 12.7 1 3-1.4 5.6-1.9 7.9-.7-.2-3.4-.4-6.8-.6-10.3zm-19.4 23.8c-.1-.1-.2-.3-.3-.5-.1-.1-.1-.3-.2-.4-.1.3 0 .6.2.8.1.1.3.2.3.5v-.4z"/>
    <path opacity=".3" fill="#fff" d="M125.1 191.8c-1.2-.2-1.4 2.6-.3 2.9 1.1.3 1.3-1.5 1-2.1-.2-.4-.4-.8-.8-.8"/>
    <path opacity=".3" fill="#FFF" d="M125.1 192.1c-.9-.3-.3.9-.2 1.3.4.1.4-.9.3-1.1"/>
    <path opacity=".3" fill="#fff" d="M124.8 194.6c-.5-.1-.7-.7-.7-1.2-.1.7.2 1.4.7 1.6.9.2 1.1-.9 1.1-1.7-.1.7-.4 1.5-1.1 1.3zm13-4.7c-.5 0-1.2.2-1.6.5-.2.1-.3.3-.3.5.1.3.3.4.5.5.5.3.8.4 1.4.2.4-.1 1-.3 1.2-.7.3-.5-.7-1-1.2-1"/>
    <path opacity=".3" fill="#FFF" d="M136.6 190.8c-.2-.1-.1-.3.1-.4.2-.1.5-.1.7-.2.4-.1.9-.2 1.2.1-.4 0-.8 0-1.1.2-.1 0-.8.6-.9.3"/>
    <path opacity=".3" fill="#fff" d="M139 190.9c-.2.4-.8.6-1.2.7-.6.1-.9.1-1.4-.2-.2-.1-.4-.2-.5-.4-.1.1-.1.2-.1.3.1.2.3.4.5.5.5.3.8.4 1.4.2.4-.1 1-.3 1.2-.7.2-.2.1-.3.1-.4zm5 .5c.1-.5-.5-.7-.9-.7-.6.1-.5.8-.6 1.2-.1.4-.3.9-.1 1.4.1.4.5.8.7 1.2.2.5.1 1 .2 1.5s.6.7 1.1.5c.8-.4.6-2.1.3-2.7-.2-.4-.4-.6-.5-1-.1-.3.1-1.2-.1-1.4"/>
    <path opacity=".3" fill="#FFF" d="M143.1 191.1c0-.1-.1-.1-.2-.1-.1.3-.6 1.9-.1 1.9l.3-.9c.1-.3.3-.4.3-.8-.1-.1-.2-.1-.3-.1"/>
    <path opacity=".3" fill="#fff" d="M144.3 196.4c-.4.2-1-.1-1.1-.5-.1-.5 0-1-.2-1.5-.2-.4-.5-.8-.7-1.2-.2-.5 0-1 .1-1.4 0-.2 0-.5.1-.7-.3.2-.2.7-.3 1-.1.4-.3 1-.1 1.4.1.4.5.8.7 1.2.2.5.1 1 .2 1.5s.6.7 1.1.5c.2-.1.4-.3.5-.6-.1.2-.2.3-.3.3zm-.9 1.7c-.1-.2-.1-.5-.1-.7-.1-.5-.9-.3-1.1-.1-.3.3-.6.8-.5 1.2.2.8 1.4 1.7 2.2 1.4.5-.2.5-.8.1-1.1-.3-.2-.7-.4-.7-.8"/>
    <path opacity=".3" fill="#FFF" d="M142.5 197.5c-.3.1-.9.7-.2.8.1-.2.3-.3.4-.5.1-.2.1-.4-.2-.3"/>
    <path opacity=".3" fill="#fff" d="M143.9 199.9c-.8.4-2-.6-2.2-1.4v.4c.2.8 1.4 1.7 2.2 1.4.3-.2.4-.5.4-.8-.1.2-.3.3-.4.4zm-18.8-.4c-.1-.2.1-.5.1-.7s.1-.6 0-.8c-.2-.5-.8-.6-1.2-.4-1.2.7-.8 2.2.3 2.7-.4.4-.8.8-.8 1.4 0 .5.4 1.1 1 1.2.7.1.8-.7.5-1.1-.2-.3-.2-.4.1-.7.2-.2.4-.3.5-.6.1-.3-.1-.4-.3-.5-.2-.1-.2-.2-.2-.5"/>
    <path opacity=".3" fill="#FFF" d="M124.6 197.9c-.3-.4-1.6.8-.9 1.4.5.5.3-.3.4-.6.1-.2.6-.7.5-.8m-.2 2.4c.1-.2.3-.3.4 0 .1.2-.2.4-.3.5-.1.2-.3.3-.3.5-.1.2.1.5-.1.7-.4.5-.5-.4-.4-.6.2-.5.7-.6.7-1.1"/>
    <path opacity=".3" fill="#fff" d="M124 200.7l.3-.3c-.7-.4-1.1-1.2-.9-2-.5.8-.2 1.8.6 2.3zm.4 2.2c-.5-.1-1-.7-1-1.2 0-.2.1-.3.1-.5-.2.2-.3.5-.3.8 0 .5.4 1.1.9 1.2.4.1.6-.2.6-.5.1.2-.1.2-.3.2zm14.5-1.4c-.8 0-.9 1-.9 1.6-.1.5-.1 1.2.5 1.3.6.1.8-.3.9-.8 0-.4.4-1.1.3-1.5-.1-.2-.4-.5-.6-.6"/>
    <path opacity=".3" fill="#FFF" d="M138.7 201.8c-.4-.2-.6 1.5-.5 1.8.2 0 .4-.7.5-.9s.5-.5.4-.8c-.1-.1-.3-.2-.4-.1"/>
    <path opacity=".3" fill="#fff" d="M139.3 203.5c-.1.6-.2.9-.9.8-.4 0-.5-.4-.5-.7-.1.5 0 1 .5 1 .6.1.8-.3.9-.8 0-.4.4-1 .3-1.4-.1.5-.3.9-.3 1.1zm-10.4 5.4c.2-.5.3-1.1-.2-1.3-.6-.3-1 .1-1.3.6-.2.5-.4 1.2-.1 1.6.1.2.3.3.3.5.1.3 0 .6.1.8.3 1.3 1.8.7 2.2-.2.2-.5 0-.9-.4-1.1-.4-.3-.8-.6-.6-.9"/>
    <path opacity=".3" fill="#FFF" d="M128.1 207.7s-.8 1.2-.3 1.1c.3-.1.8-1.1.3-1.1m-.3 3c.3.3.8.4 1.1.2.2-.1.3-.4.5-.4.3-.1.2.2.1.4-.2.4-.5.6-.9.7s-.9-.1-.8-.6"/>
    <path opacity=".3" fill="#fff" d="M129.8 210.8c-.4.9-1.9 1.5-2.2.2v.4c.3 1.3 1.8.7 2.2-.2.1-.2.1-.4.1-.5l-.1.1zm.9-2.7c-.7-.2-.8 1.6.3 1.4.4-.1.6-.5.5-.9-.1-.3-.5-.5-.8-.5"/>
    <path opacity=".3" fill="#FFF" d="M130.6 208.4c-.4-.1-.3.4.1.3.4-.1.1-.4-.1-.3"/>
    <path opacity=".3" fill="#fff" d="M130.9 209.4c-.5.1-.7-.2-.8-.6-.1.5.2 1 .8.9.4-.1.6-.5.5-.8-.1.3-.2.5-.5.5zm12.2-1.2c-.2-.5-.9-.4-1.3-.1-.4.3-.8.9-.9 1.4-.1.5.2.9.7.9.5 0 1-.4 1.2-.8.3-.5.4-1 .3-1.4"/>
    <path opacity=".3" fill="#FFF" d="M142.6 208.1c-.5-.3-1.9 1.3-1.3 1.6.3-.2.5-.4.7-.7.1-.2.2-.3.4-.5 0-.1.1-.3.2-.4"/>
    <path opacity=".3" fill="#fff" d="M143.1 208.5c0 .4-.2.8-.4 1.1-.2.4-.8.8-1.2.8-.4 0-.6-.3-.7-.5-.1.5.2.9.7.9.5 0 1-.4 1.2-.8.4-.6.5-1 .4-1.5zm.3 5c.1-.4-.6-.8-.9-.8-.6 0-.7.7-.7 1.2 0 .6.3 2.4 1.3 1.8.3-.2.4-.6.4-.9 0-.2.1-.4.1-.6-.1-.3-.3-.4-.2-.7"/>
    <path opacity=".3" fill="#FFF" d="M142.4 213.1c-.4-.1-.5 1.5-.1 1.7.4.2.4-.7.4-.9 0-.4-.2-.6-.5-.7"/>
    <path opacity=".3" fill="#fff" d="M143 215.7c-1 .6-1.3-1.2-1.3-1.8 0-.2.1-.4.1-.6-.2.3-.3.6-.3.9-.1.6.3 2.4 1.3 1.8.2-.1.3-.3.4-.5 0 .1-.1.2-.2.2zm-16.5-50c-.5.2-1 .6-.9 1.2.1.6.8.9 1.2.4.3-.3.1-.6.3-.9.1-.1.6-.1.7-.2.4-.4.6-.9.4-1.5.8.1 2.2.8 2.9.1.7-.8-.9-1.2-1.5-1.4-.9-.2-1.9-.8-2.6-.1-.3.3-.5.5-.6.9-.1.4.3 1.1.2 1.3 0 .1-.1.1-.1.1"/>
    <path opacity=".3" fill="#FFF" d="M126.8 165.9c-.2.1-.7.4-.4.6.3 0 .5-.4.4-.6m0-1.9v.2c.3.2.5-.4.7-.4.3-.1.8 0 1.1.1.4.1.7.2 1 .3.2 0 .4 0 .5.1.2 0 .3.1.5.1v-.1c-.6-.4-1.3-.4-1.9-.6-.5-.2-1.7-.4-1.8.4"/>
    <path d="M131.01 164.759c-.7.8-2.1 0-2.9-.1v.4c.8.1 2.1.8 2.8 0 .2-.2.2-.4.2-.6 0 .2 0 .2-.1.3zm-4.4.8c.1-.2-.1-.6-.2-1v.1c0 .2.1.6.2.9zm1.2.6c-.2.1-.6.1-.7.2-.2.3-.1.6-.3.9-.4.5-1.1.2-1.2-.3v.3c.1.6.8.9 1.2.4.3-.3.1-.6.3-.9.1-.1.6-.1.7-.2.4-.3.5-.8.5-1.2-.1.3-.3.6-.5.8z" fill="#fff"/>
    <path opacity=".3" fill="#fff" d="M130.1 171.9c-.6.4-1.2 1-1.3 1.8-.1.6.4.9.9.7.5-.2.9-.7 1-1.2.1-.4 0-1.2-.6-1.1"/>
    <path opacity=".3" fill="#FFF" d="M130 172.2c-.3.1-.8.8-.8 1 .3.1.9-.7.8-1"/>
    <path opacity=".3" fill="#fff" d="M129.8 174.3c-.5.2-.9 0-.9-.5h-.1c0 .6.6 1 1.2.8.5-.2.7-.9.7-1.4-.1.5-.5.9-.9 1.1zm-8.2 4.6c-.1.9-.2 1.8-.2 2.7.2-.1.5-.1.7-.1.2-.1.4-.2.5-.4.2-.4.3-1 .2-1.4-.3-.5-.7-.8-1.2-.8z"/>
    <path opacity=".3" fill="#FFF" d="M121.7 179.2s-.1-.1 0 0c.2.3.2.6.7.6.1-.4-.4-.8-.8-.7"/>
    <path opacity=".3" fill="#fff" d="M122.8 180.1c0 .4 0 .8-.2 1-.1.2-.3.4-.5.4-.2.1-.5.1-.7.1 0 .2 0 .4-.1.7.2-.1.4-.1.4-.1.4-.2.7-.5.9-.9.3-.3.4-.9.2-1.2zm13.8-4.6c-1.1-.3-3.1 2.3-1.3 2.5.6.1 1-.2 1.4-.7.3-.4.4-1 .3-1.4-.1-.1-.2-.4-.4-.4"/>
    <path opacity=".3" fill="#FFF" d="M136.4 175.7c-.4 0-1.4.7-1.3 1.2.4 0 1.3-.9 1.3-1.2"/>
    <path opacity=".3" fill="#fff" d="M136.7 177.3c-.4.5-.8.8-1.4.7-.4-.1-.7-.2-.7-.5-.1.4.1.8.7.8.6.1 1-.2 1.4-.7.2-.3.4-.8.3-1.1-.1.3-.2.6-.3.8zm5.1-1.3c-.6-.1-1 1.2-1 1.6-.1.6.3 1.1.9.8.5-.3.7-.8.7-1.3 0-.3-.2-1.2-.6-1.1 0 0 0 .1 0 0"/>
    <path opacity=".3" fill="#FFF" d="M141.6 176.3c-.3.1-.6.8-.5 1.1.3.2.9-1.1.5-1.1"/>
    <path opacity=".3" fill="#fff" d="M141.7 178.4c-.5.3-.8-.1-.9-.5v.1c-.1.6.3 1.1.9.8.5-.2.7-.8.7-1.3v-.2c-.1.4-.3.9-.7 1.1zm-15.8 4.2c-.9-.1-2.1 1.2-1.3 1.9.6.5 2.1.6 2.3-.4.1-.5-.6-1.5-1-1.5"/>
    <path opacity=".3" fill="#FFF" d="M125 183.1c-.2-.1-.4.1-.4.3.3.1.4-.1.6-.2.3-.1.5 0 .8-.1.1-.6-1.1-.3-1.3 0"/>
    <path opacity=".3" fill="#fff" d="M124.6 184.5c-.2-.2-.3-.3-.3-.5-.1.3 0 .6.3.8.6.5 2.1.6 2.3-.4v-.3c-.3.9-1.8.8-2.3.4zm9.8-2.4c-.7 0-.9.7-1 1.3-.1.4-.3 1.1.4 1.1.6 0 1.2-2 .6-2.4"/>
    <path opacity=".3" fill="#FFF" d="M134.1 182.4c-.4.1-.6 1-.5 1.3.3.1.5-.4.5-.6 0-.2.3-.8 0-.7"/>
    <path opacity=".3" fill="#fff" d="M133.7 184.5c-.3 0-.4-.2-.5-.4-.1.4 0 .7.5.7s1-1.2.9-1.9c0 .7-.4 1.6-.9 1.6zm10.4-4.5c-.8-.4-2.2.1-2.2 1.1s1.4 1.7 2.2 1.4c.5-.1.9-.7.9-1.3-.1-.5-.5-1-.9-1.2"/>
    <path opacity=".3" fill="#FFF" d="M144.3 180.5c-.4-.4-1.9-.5-2 .3-.2.6.7.2.9.1.3-.2.8-.1 1.1-.4"/>
    <path opacity=".3" fill="#fff" d="M144.9 181.4c-.1.5-.5.8-.8 1-.8.3-2.1-.4-2.2-1.2v.2c0 1 1.4 1.7 2.2 1.4.5-.2.9-.8.8-1.4 0 .1 0 .1 0 0z"/>
    <g fill="#fff">
        <path d="M134.191 216.358h-3.4v6.7c0 .5 1.5 1.7 3.4 1.7s3.4-.4 3.4-.9v-7.5h-3.4z"/>
        <path opacity=".5" d="M136.491 216.358v7.2c0 .5-1.5.9-3.4.9-.7 0-.8-.4-1.3-.5.6.2 1.1.8 2.3.8 1.9 0 3.4-.4 3.4-.9v-7.5h-1z"/>
        <path d="M131.189 223.158s.1 0 0 0l.1-6.8-.1-1.1v7.9zm4.5 1.4l.1-8.3h-.1v8.3zm-2 .1h.6v-8.4h-.6v8.4zm2.9-.3c.1-.1.2-.1.3-.1v-8h-.3v8.1zm-4.9 0l.1-8.1h-.1v8.1zm.9 0c.1 0 .2.1.3.1v-8.1h-.3v8.3-.3zm2.1.3l.1-8.4h-.1v8.4z"/>
    </g>
    <path opacity=".5" fill="#fff" d="M132.89 219.946s-.7-.7-1.2-.1c-.5.5 0 1.8 1.1 1.5 0 0 .3.3.3.7 0 .4-.4 1-.4 1.5s1.4 1.2 1.3-.1c0 0 1.1-1.4.5-2 0 0 .4-.6.8-.6s1.2-.5.8-1c-.4-.5-.8-1.1-1.9-.1-1.2.9-1.3.2-1.3.2z"/>
    <path opacity=".7" fill="#FFF" d="M132.39 219.846c-.2 0-.4-.1-.5 0-.1.2.1.3.2.4s.4.2.4 0c.1-.1 0-.3-.1-.4m.7.6c.3-.1.6-.2 1-.4v-.1c.2-.1.4-.1.5-.2.2-.1.3-.2.4-.3.3-.2.8.2.4.4-.4.1-.7.2-1 .4-.4.1-.8.2-1.1.2m.2 1.6c0 .2-.5.9-.2.9.2 0 .4-.7.2-.9"/>
    <path d="M133.09 222.042v-.2c0-.4-.3-.7-.3-.7-.7.2-1.2-.3-1.3-.8-.1.6.4 1.4 1.3 1.2 0 .1.2.3.3.5zm2.2-1.4c-.4 0-.8.6-.8.6.1.1.1.1.1.2.2-.1.4-.5.7-.5.3 0 1.1-.5.8-.9-.1.4-.6.6-.8.6zm-.6 1.2c-.1.7-.7 1.4-.7 1.4.1 1.2-1.1.7-1.3.2v.3c0 .5 1.4 1.2 1.3-.1 0 0 .8-1.1.7-1.8z" fill="#fff"/>
    <path fill="#fff" d="M130.8 220.7c.2.1.1.3.1 1.3 1.4 1 3.8 2 6.3 2.5.2.1.3-1 .4-.9 1 .7 2.1 1.5 3.1 2.5 0 0-8.7.8-12.9-5.5 0 0 1.2-.1 3.1.2l-.1-.1z"/>
    <path fill="#fff" d="M128 220.6c6.8 4.8 6.1 3.8 12.7 5.3-1-1-2.2-1.9-3.2-2.6-.3.3-.1.9-.7.9-1.7-.3-5-1.9-5.9-2.4-.2-.2.1-1.1-.1-1.3-1.8-.3-2.9-.1-2.9-.1 0 .2.1.2.1.2zm-10.5-143c-16.1 5.3-35.9 2.5-44.2.9-.5 2-.8 4.1-.8 6.3 0 .8.1 1.6.1 2.4 3.5.7 7.8 1.3 13.2 1.8 23.5 2 32.8-3.6 32.8-3.6s0-3.4-1.1-7.8z"/>
    <circle fill="#FFF" cx="88" cy="69.1" r="7.8"/>
    <circle fill="#FFF" cx="95.5" cy="77.3" r="4.3"/>
    <path fill="#fff" d="M167 87.6c5.3-.5 9.5-1.1 12.8-1.7.1-.8.1-1.5.1-2.3 0-2.4-.4-4.7-1-6.9-16.4 3.5-35.9 1.4-42.8.4-1 4.1-1 7.1-1 7.1s9.1 5.3 31.9 3.4z"/>
    <circle fill="#FFF" cx="164.6" cy="69.7" r="7.8"/>
    <circle fill="#FFF" cx="157.1" cy="77.9" r="4.3"/>
</svg>
