<svg xmlns="http://www.w3.org/2000/svg" viewBox="0 0 512 116">
    <style>
        .st0{fill:#fff}
    </style>
    <path class="st0" d="M469.6 78.7s3.9-8.6 13.5-7.7c0 0 9.9 1 10 11.7 0 0 .1 10.7-13.6 11.2h-55.6V.7h-20.1v112h74.9c33.3-.5 32.3-29.5 32.3-29.5-1.2-29.8-28.6-29.4-28.6-29.4-11.8 0-19.4 7.1-23 11.4l10.2 13.5M203.6.6H238c12.9 0 20.9 2.4 27.3 7.6 6.4 5.2 13.2 14.3 13.2 27.2 0 7.4-2.7 19.1-10.8 26.9-6.7 6.4-13.1 7.9-18.7 9.3l30.5 41.4h-25.2l-29.7-43h-.3v43h-20.8V.6h.1zm20.8 53.7h13.4c17.1 0 20-11.4 20-17.3 0-6.2-3.8-17-20-17h-13.4v34.3z"/>
    <path class="st0" d="M278 70.9c0-25.5 20.8-45.1 44.9-45.1 23.8 0 44.6 19 44.6 44.8 0 27.6-21.2 45.1-44.6 45.1-25.1-.1-44.9-20.7-44.9-44.8m69.3.1c0-15.3-11.8-26.7-24.4-26.7-10.5 0-24.7 9-24.7 26.6 0 15.9 12 26.3 24.7 26.3 14.7-.1 24.4-12.8 24.4-26.2m27-70.4h20.2v112.3h-20.2V.6zM47.1.6h16.2l47.1 112.3H87.5l-12-29H35.3l-12 29H.4L47.1.6zm-4.8 63.7h25.8L55.3 29.9H55L42.3 64.3zm151.1 48.6h-18.5v-10.3h-.3c-3.8 6.1-12.6 13.1-26.9 13.1-21.4 0-42.9-17.6-42.9-44.8 0-28.4 22.8-45.1 42.9-45.1 12.3 0 19.6 4.1 25.5 10.3V.6h20.2v112.3zm-43.5-15.8c15.2 0 24.9-13.7 24.9-26.4 0-13.8-10.6-26.4-24.9-26.4-15 0-24.9 14-24.9 25.8 0 15.6 11.7 27 24.9 27z"/>
</svg>
