<svg viewBox="0 0 256 297" xmlns="http://www.w3.org/2000/svg" preserveAspectRatio="xMidYMid">
    <path d="M127.834 0l2.865 6.447v63.99l-2.865 4.059-5.595.49-56.007-32.724-2.15-5.014L127.835 0" fill="#fff"/>
    <path d="M.332 74.496l1.432 4.536 55.555 31.835 6.764.16 2.626-4.298V41.307l-2.626-4.06L.332 74.497m0 147.557l2.387-4.656 57.239-32.8 4.125.924 5.253-1.432 56.545 32.402 1.953 5.562 2.03 3.582v68.048l-2.03 2.866L.332 222.054" fill="#fff"/>
    <path d="M64.083 37.248l63.75 37.248 2.866 6.446v60.647l-2.865 6.686-7.763-.707-53.958-31.527-2.03-5.014v-73.78" fill="#fff"/>
    <path d="M127.834 148.275l-1.308 3.744-56.116 32.787-6.327.716-1.91-4.656v-67.331l1.91-2.508 63.75 37.248" fill="#fff"/>
    <path d="M.332 222.054l63.75-36.532v-74.495L.333 74.496v147.558m127.501-73.779l1.671 4.656v63.75l-1.671 5.373-63.751-36.532 63.75-37.247m.001 148.275v-74.496l3.175-.848 57.234 33.44 3.342 4.656-63.751 37.248" fill="#fff"/>
    <path d="M127.834 148.275v73.779l63.75 37.248 2.03-5.373v-63.75l-2.03-4.657-3.7-5.013-55.734-32.564-4.316.33" fill="#fff"/>
    <path d="M191.585 111.027l2.03 3.224v65.9l-2.03 5.371-63.751-37.247 2.937-4.688 53.89-31.486 6.924-1.074" fill="#fff"/>
    <path d="M127.834 74.496l4.178-1.075 57.196 32.775 2.377 4.831-63.751 37.248V74.496m63.751 184.806v-73.78l3.682-.835 57.084 32.71 2.985 4.657-63.751 37.248" fill="#fff"/>
    <path d="M255.336 74.496h-5.142l-56.39 32.313-2.22 4.218v74.495l63.752 36.532V74.496" fill="#fff"/>
    <path d="M127.834 0v74.496l63.75 36.531 63.752-36.531L127.834 0" fill="#fff"/>
</svg>
