<svg viewBox="0 0 256 425" xmlns="http://www.w3.org/2000/svg" preserveAspectRatio="xMidYMid">
    <path d="M65.7 330.3L.107 362.385l127.292 62 127.64-62.194-65.76-32.539-61.928 30.754L65.699 330.3zM57.602 98.175v-.02l69.93-34.107 69.934 34.106L255.004 62.2 127.484 0 0 62.18v.055l57.554 35.964.048-.024z" fill="#fff"/>
    <path d="M.156 298.428l62.915-30.803 64.714 32.042L.156 362.462v-64.034zM196.678 99.41v100.768l-70.342 34.424 64.686 32.339 62.979-30.797V62.19l-57.323 35.976v1.243z" fill="#fff"/>
    <path d="M255.004 298.216l-197.415-98.25V98.182L0 62.23v173.702l255.004 126.321v-64.037z" fill="#fff"/>
</svg>
