<svg viewBox="0 0 256 116" xmlns="http://www.w3.org/2000/svg" preserveAspectRatio="xMidYMid">
    <path d="M199 33.9l5.8-20.1.8.1.6 21.1L217 17.1l1 .5-5.1 20.3 15.3-14.5.8.7-10.3 18.4 18.6-9.9.6.7-14.8 15.2 20.6-4.7.4.8-18.2 10.7 21.1.8v.9l-20.4 5.6 20.3 6v.9l-21.1.3L243.7 81l-.5.9-20.4-5.1L237.2 92l-.5.9-18.2-10.5 9.7 18.5-.9.7-15-14.7 5 20.3-1 .6-10.7-18.2-.3 20.9-1.1.3-5.8-20.2-6 20.2-1.1-.3V89.6l-.6-.2-11.6 17.5 5-20.3-15.3 14.4-.9-.7 10.5-18.2-18.8 9.7-.6-.7 14.8-14.9-20.6 4.5-.3-.8 18.3-10.7-20.9-.8-.4-.9 20.3-5.7-20-5.9.1-1 21-.3-17.8-10.8.1-1 20.6 5.2-14.6-15.4.8-.8 18.4 10.1-10-18.3.6-.7 15.4 14.8-5-20.6-.2-.3L191.8 35l.2-21.2h1.2l5.8 20.1z" fill="#fff"/>
    <path d="M256 101.9c0-20.1-16.3-36.5-36.5-36.5-8.1 0-15.6 2.7-21.7 7.2.8-3.8 1.2-7.8 1.2-11.8C199 27.2 171.8 0 138.2 0c-26.7 0-49.4 17.3-57.6 41.2-4.6-3.4-10.2-5.5-16.4-5.5-15.1 0-27.3 12.2-27.3 27.3 0 2.3.3 4.6.8 6.8-20.9.7-37.7 17.9-37.7 39 0 2.5.2 4.9.7 7.2h252.5c1.8-4.4 2.8-9.1 2.8-14.1z" fill="#fff"/>
    <path d="M191.8 60.8c0 29.6-24.1 48.3-53.7 48.3S84.6 90.4 84.6 60.8c0-29.6 24-53.6 53.6-53.6s53.6 24 53.6 53.6" fill="#fff"/>
    <path d="M183.6 61.1c0 18.1-20.5 32.8-45.7 32.8-25.3 0-45.7-14.7-45.7-32.8 0-18.1 20.5-32.8 45.7-32.8 25.3.1 45.7 14.7 45.7 32.8" fill="#fff"/>
    <circle fill="url(#a)" cx="64.4" cy="63.2" r="20.3"/>
    <path d="M80.8 55.5c3.4 5.9-.9 14.9-9.6 19.9-8.7 5-18.6 4.3-22-1.6-3.4-5.9.9-14.9 9.6-19.9 8.8-5.1 18.6-4.3 22 1.6m-10 53.2c0-17.6-14.3-31.9-31.9-31.9C21.3 76.8 7 91.1 7 108.7v.2h63.8v-.2zm178.1-7.1c0-16.1-13-29.1-29.1-29.1s-29.1 13-29.1 29.1c0 2.3.3 4.5.8 6.6h56.7c.5-2.2.7-4.4.7-6.6z" fill="#fff"/>
    <path d="M250.2 109.2l-1.1-2.2-1.2-2-1.7-2.6-1.7-2.2-2-2.5-2.1-2.2-2.4-2.3-2.2-1.9-2.6-1.8-2.5-1.5-2.8-1.6-2.3-1.2-2.4-1-2.2-.6-2.2-.4-2.1-.4-2.6-.2-164.9.3-2.6.1-2.7.2-2.9.3-2.4.5-3.1.7-2.1.7-2.3.9-2.3.8-2.9 1.5-2.1 1-2.8 1.8-2.5 2-2.7 2.1-2.3 2.3-1.8 2.2-1.9 2.5-1.4 2.5-1.1 2.2-.6 2-.4 1.7h244.6l-.7-1.7z" fill="#fff"/>
    <path d="M202.6 67.8l22.1 28.9-.8.6-25.8-23.2-99.1 18-.1-.9L191 70l-50.7-17.2.6-.8 61.7 15.8z" fill="#fff"/>
</svg>
