<svg viewBox="0 0 256 317" xmlns="http://www.w3.org/2000/svg" preserveAspectRatio="xMidYMid">
    <path d="M211.69 309.979V228.12h-81.201l81.2 81.858" fill-opacity=".7" fill="#fff"/>
    <path d="M220.801 263.566v-88.533H132.98l87.822 88.533m-53.335-35.448v88.534h87.822l-87.822-88.534" fill-opacity=".7" fill="#fff"/>
    <path d="M202.444 180.962v-70.027h-69.467l69.467 70.027" fill-opacity=".7" fill="#fff"/>
    <path d="M235.424 164.267V75.733h-87.822l87.822 88.534" fill-opacity=".8" fill="#fff"/>
    <path d="M85.735 0v88.533h87.822L85.735 0" fill-opacity=".8" fill="#fff"/>
    <path d="M106.334 138.667V50.133H.135l87.443 88.552 18.756-.018" fill-opacity=".88" fill="#fff"/>
    <path d="M106.334 316.175V209.067H.135l106.199 107.108" fill-opacity=".7" fill="#fff"/>
    <path d="M106.357 227.467v-88.534H18.535l87.822 88.534" fill-opacity=".5" fill="#fff"/>
    <path d="M132.976 110.933v88.534h87.823l-87.823-88.534m-26.841 9.967V32.365H18.313l87.822 88.533m24.354 107.22v88.534h87.822l-87.822-88.534" fill-opacity=".7" fill="#fff"/>
</svg>
