<svg viewBox="0 0 256 216" xmlns="http://www.w3.org/2000/svg" preserveAspectRatio="xMidYMid">
    <g fill="#fff" fill-rule="evenodd">
        <path d="M109.645 213.398c-.193 0-.29 0-.483-.097l-15.843-3.96c-.096 0-.29-.097-.386-.194L82.5 203.931v1.932c0 .772-.387 1.449-1.063 1.739l-5.313 2.608c-.29.096-.58.193-.87.193-.29 0-.58-.097-.87-.193l-52.938-26.47c-.676-.29-1.063-.966-1.063-1.738v-14.394l-17.485-8.695c-.676-.29-1.063-.966-1.063-1.739v-21.156c0-.773.387-1.449 1.063-1.739l7.922-3.96c.29-.097.58-.194.87-.194.289 0 .579.097.868.193l12.076 6.087 2.029-1.063c.29-.097.58-.193.87-.193.289 0 .579.096.869.193l.966.483 12.365-15.747-1.739-.869c-.676-.29-1.063-.966-1.063-1.739V87.716l-5.506-2.801c-.676-.29-1.063-.966-1.063-1.74V40.864c0-.772.387-1.449 1.063-1.738l74.095-37c.29-.096.58-.193.87-.193.29 0 .58.097.869.193l41.443 20.77 1.739-.87c.29-.096.58-.193.87-.193.289 0 .579.097.869.194l31.782 15.843c.676.29 1.063.966 1.063 1.739V64.82l41.25 20.673c.676.29 1.062.966 1.062 1.74v12.075l6.86 3.477c.096.097.289.194.386.29l15.843 13.235c.483.386.676.87.676 1.449v3.96c0 .774-.387 1.45-1.063 1.74l-10.626 5.313c-.29.096-.58.193-.87.193-.386 0-.772-.097-1.159-.386l-10.143-7.632v3.864l6.859 4.444 15.65 5.216c.772.29 1.352.966 1.352 1.836v3.96c0 .774-.387 1.45-1.063 1.74l-10.626 5.313c-.29.096-.58.193-.87.193-.193 0-.29 0-.483-.097l-15.843-3.96c-.096 0-.29-.097-.386-.194l-15.263-7.631-.773.386c-.193.193-.29.387-.58.483-.29.193-.676.29-1.063.29-.29 0-.58-.097-.869-.193l-18.355-9.178v2.126c0 .772-.386 1.449-1.062 1.739l-74.095 36.999c-.29.096-.58.193-.87.193-.29 0-.58-.097-.87-.193l-10.626-5.313c-.676-.29-1.062-.966-1.062-1.74v-2.125c-.194.097-.483.097-.677.097-.29 0-.58-.097-.869-.193l-10.626-5.313c-.677-.29-1.063-.966-1.063-1.74v-1.448l-4.25-2.126c-.677-.29-1.063-.966-1.063-1.738v-7.922l-23.668-11.496-8.115 10.144 38.545 19.224c.676.29 1.063.966 1.063 1.739v1.738l17.485 8.695c.097.096.29.193.386.29l15.843 13.234c.483.387.677.87.677 1.45v3.96c0 .773-.387 1.45-1.063 1.739l-10.626 5.313c-.29.097-.58.193-.87.193-.386 0-.773-.096-1.16-.386l-15.649-11.69-5.12-1.835v2.995l17.389 11.206 15.65 5.217c.772.29 1.352.966 1.352 1.835v3.961c0 .773-.386 1.45-1.063 1.739l-10.626 5.313c0 .097-.29.097-.58.097z"/>
        <path d="M108.293 3.864l7.921 3.96 2.609 1.353 10.626 5.314 21.156 10.626 2.609-1.352 31.879 15.843v26.469l42.312 21.156v13.235l7.922 3.96 15.843 13.235v3.961l-10.627 5.313-13.138-10.046v8.79l7.922 5.12 15.843 5.314v3.96l-10.627 5.314-15.843-3.961-16.132-8.018-2.416 1.16v.289l-21.156-10.627v5.314l-74.095 36.999-10.626-5.313v-5.314l-2.609-1.352v2.608l-10.626-5.313v-2.608l-5.313-2.608v-9.178l-26.18-12.752-10.53 13.235 40.67 20.287v2.898l18.548 9.274 15.843 13.235v3.96l-10.626 5.314-15.843-11.883-7.921-2.801v6.762l18.547 11.882 15.843 5.314v3.96l-10.626 5.314-15.843-3.961-13.041-6.57v5.024l-5.314 2.609-52.939-26.47v-15.65l-18.45-9.177v-21.156l7.92-3.961 12.946 6.472 2.898-1.449 2.318 1.16 14.877-18.838-3.96-1.932v-31.01l-6.57-3.285V40.863l73.999-36.999zm0-3.864c-.58 0-1.16.097-1.739.386L32.555 37.482c-1.352.676-2.125 2.029-2.125 3.478v42.312c0 1.45.87 2.802 2.125 3.478L37 88.972v28.691c0 1.353.676 2.609 1.836 3.285l-9.95 12.655c-.387-.097-.773-.193-1.256-.193-.58 0-1.16.096-1.74.386l-1.158.58-11.206-5.7c-.58-.29-1.16-.386-1.74-.386-.579 0-1.159.096-1.738.386l-7.922 3.961C.87 133.313 0 134.666 0 136.115v21.156c0 1.449.87 2.801 2.125 3.478l16.423 8.211v13.235c0 1.449.87 2.801 2.125 3.477l52.94 26.47c.579.29 1.158.386 1.738.386.58 0 1.16-.096 1.739-.386l5.313-2.608a3.818 3.818 0 0 0 1.932-2.319l7.825 3.864c.29.097.483.193.773.29l15.843 3.96c.29.097.58.097.966.097.58 0 1.16-.096 1.739-.386l10.626-5.313c1.353-.676 2.125-2.029 2.125-3.478v-3.96c0-1.643-1.062-3.189-2.608-3.672l-8.598-2.898 9.081-4.54c1.353-.676 2.125-2.029 2.125-3.478v-3.96a3.96 3.96 0 0 0-1.352-2.995l-12.558-10.434c.29.097.58.097.772.097.58 0 1.16-.097 1.74-.386l74.094-37c1.063-.483 1.74-1.449 2.029-2.511l15.65 7.825c.58.29 1.159.386 1.739.386.676 0 1.449-.193 2.028-.58.194-.096.29-.193.483-.386l14.298 7.149c.29.096.483.193.773.29l15.843 3.96c.29.097.58.097.966.097.58 0 1.159-.097 1.738-.387l10.627-5.313c1.352-.676 2.125-2.028 2.125-3.478v-3.96c0-1.643-1.062-3.188-2.608-3.671l-8.598-2.898 9.08-4.54c1.353-.677 2.126-2.03 2.126-3.478v-3.961c0-1.16-.483-2.222-1.352-2.995l-16.133-13.138a2.103 2.103 0 0 0-.773-.483l-5.796-2.898V87.137c0-1.45-.87-2.802-2.125-3.478L188.86 63.565V39.608c0-1.45-.87-2.802-2.125-3.478L155.05 20.287c-.58-.29-1.16-.387-1.739-.387-.58 0-1.16.097-1.739.387l-.87.483-19.416-9.757L120.658 5.7l-2.608-1.353-7.922-3.96c-.58-.29-1.159-.387-1.835-.387zM51.2 136.694l5.603-7.052 21.156 10.337v6.762c0 1.45.87 2.802 2.126 3.478l3.187 1.546v.29c0 .29 0 .579.097.772L51.2 136.694zm38.545 22.123v-.483c0-.29 0-.58-.097-.773l6.376 3.188c.193.096.29.193.483.193v.29c0 .386.097.773.193 1.062l-6.955-3.477z"/>
        <path d="M185.093 129.546l-74.095 36.999v-42.313l74.095-37.095v42.409z" stroke="#333"/>
        <g stroke="#333">
            <path d="M169.154 63.372v42.312l52.938 26.47V89.841l-52.938-26.47zm52.938 26.469v42.313l5.314-2.609V87.136l-5.314 2.705z"/>
            <path d="M169.154 63.372l5.313-2.609 52.939 26.373-5.314 2.705-52.938-26.47zm5.312 7.728l-10.626 5.217 42.41 21.156 10.529-5.216L174.466 71.1zm-26.469-2.415l-7.922 3.961 31.783 15.843 7.922-3.96-31.783-15.844zm-7.922 3.961v21.156l31.783 15.843V88.49l-31.783-15.843z"/>
            <path d="M163.84 76.607v36.999l42.41 21.156V97.763l-42.41-21.156z"/>
            <path d="M216.779 92.257l-10.53 5.216v37.096l10.53-5.313v-37z"/>
            <path d="M206.249 124.233v7.921l18.451 9.274v-5.313l-18.451-11.882zm18.451 11.882v5.313l15.843 3.961v-3.96l-15.843-5.314zm15.843 5.313v3.961l10.627-5.313v-3.96l-10.627 5.312zm-5.217-10.626l-10.626 5.313 15.843 5.313 10.627-5.313-15.844-5.312z"/>
            <path d="M216.779 118.92l-10.53 5.313 18.451 11.882 10.627-5.313-18.548-11.882zM206.249 100.372v7.921l18.451 6.666v-5.313l-18.451-9.274zm18.451 9.274v5.313l15.843 11.882v-3.96L224.7 109.645zm15.843 13.234v3.961l10.627-5.313v-3.96l-10.627 5.312z"/>
            <path d="M216.779 95.155l-10.53 5.217 18.451 9.274 10.627-5.314-18.548-9.177z"/>
            <path d="M235.326 104.332l-10.626 5.314 15.843 13.234 10.627-5.313-15.844-13.235z"/>
        </g>
        <path d="M40.863 42.216v75.35l48.979 23.862V65.98L40.863 42.216z" stroke="#333"/>
        <path d="M71.294 59.411v38.352l10.626 6.57v42.408l26.373 13.138V77.96l-37-18.548zM116.31 7.825l-72.742 37 63.469 31.782 72.743-37-63.47-31.782z" stroke="#333"/>
        <path d="M34.294 40.863l73.999-36.999 42.409 21.156-74.095 37-42.313-21.157z" stroke="#333"/>
        <path d="M108.293 14.49l10.626-5.313 10.627 5.314-10.627 5.216-10.626-5.216z" stroke="#333"/>
        <path d="M108.293 83.176l74.095-37v79.312l-74.095 37.096V83.176zM55.45 40.863l10.53 5.314 52.94-26.47-10.627-5.216L55.45 40.863z" stroke="#333"/>
        <path d="M108.293 25.02l8.018-3.96 2.608-1.353-10.626-5.216v10.53z" stroke="#333"/>
        <path d="M103.076 27.629l2.609-1.256 5.313-2.705-7.922-3.96v7.92zm0-7.922l7.922 3.96 2.608-1.255-7.921-3.96-2.609 1.255z" stroke="#333"/>
        <path d="M97.763 30.334l2.608-1.353 5.314-2.608-7.922-3.96v7.92zm0-7.922l7.922 3.96 2.608-1.352-7.922-3.96-2.608 1.352z" stroke="#333"/>
        <path d="M92.45 32.942l2.705-1.353 5.216-2.608-7.921-3.96v7.92zm0-7.922l7.921 3.961 2.705-1.352-7.921-3.961-2.705 1.352z" stroke="#333"/>
        <g stroke="#333">
            <path d="M87.137 35.647l2.705-1.353 5.313-2.705-8.018-3.96v8.018z"/>
            <path d="M87.137 27.629l8.018 3.96 2.608-1.255-7.921-3.961-2.705 1.256z"/>
        </g>
        <g stroke="#333">
            <path d="M81.92 38.255l2.608-1.352 5.314-2.609-7.922-3.96v7.921z"/>
            <path d="M81.92 30.334l7.922 3.96 2.608-1.352-7.922-3.96-2.608 1.352z"/>
        </g>
        <path d="M76.607 40.863l2.608-1.255 5.313-2.705-7.921-3.961v7.921zm0-7.921l7.921 3.96 2.609-1.255-7.922-4.058-2.608 1.353z" stroke="#333"/>
        <path d="M71.294 43.568l2.704-1.352 5.217-2.608-7.921-3.961v7.921zm0-7.921l7.921 3.96 2.705-1.352-7.922-3.96-2.704 1.352z" stroke="#333"/>
        <path d="M65.98 46.177l2.705-1.353 5.313-2.608-8.018-3.96v7.92zm0-7.922l8.018 3.96 2.609-1.352-7.922-3.96-2.705 1.352z" stroke="#333"/>
        <path d="M60.764 48.785l2.608-1.256 5.313-2.705-7.921-3.96v7.92zm0-7.922l7.921 3.961 2.609-1.256-7.922-3.96-2.608 1.255z" stroke="#333"/>
        <path d="M118.92 101.724v15.843l18.547-9.274V92.45l-18.548 9.274z" stroke="#010101"/>
        <path d="M132.154 105.685v-10.53l-13.235 6.569v10.626l13.235-6.665z"/>
        <path d="M137.468 108.294V92.449l-13.235 6.667-5.313 2.608"/>
        <path d="M118.92 101.724v15.843l18.547-9.274V92.45l-18.548 9.274z" stroke="#333"/>
        <path d="M153.31 84.528v15.843l18.548-9.177v-15.94l-18.548 9.274z" stroke="#010101"/>
        <path d="M166.545 88.49V77.96l-13.235 6.568v10.627l13.235-6.666z"/>
        <path d="M171.858 91.195v-15.94l-13.234 6.664-5.314 2.609"/>
        <path d="M153.31 84.528v15.843l18.548-9.177v-15.94l-18.548 9.274zm-76.703 9.274V62.02L34.294 40.863v42.313l52.843 26.47v42.312l10.626 5.313v-42.313l10.53 5.314v-10.627L76.607 93.802zm108.486 35.744l-74.095 36.999v-42.313l74.095-37.095v42.409z" stroke="#333"/>
        <path d="M100.371 118.92v42.312l10.627 5.313v-42.313l-10.627-5.313z" stroke="#333"/>
        <g stroke="#333">
            <path d="M185.093 71.294l-74.095 36.999V76.607l74.095-37v31.688z"/>
            <path d="M79.215 60.764l74.095-37.096 31.783 15.94-74.095 36.999-31.783-15.843z"/>
            <path d="M126.841 58.059l21.156-10.53 10.626 5.313-21.156 10.53-10.626-5.313zm-47.626 2.705V92.45l31.783 15.843V76.607L79.215 60.764z"/>
        </g>
        <path d="M110.998 124.232l74.095-37.095-2.705-1.256-74.095 36.999 2.705 1.352z" stroke="#333"/>
        <g stroke="#333">
            <path d="M54.098 103.076v13.235l10.627 5.217v-13.235l-10.627-5.217z"/>
            <path d="M22.412 147.997v9.274l5.217 2.608v-9.177l-5.217-2.705zm34.391-43.665l-34.39 43.665 5.216 2.705 34.39-43.665-5.216-2.705zm-29.174 46.37v9.177l37.096-46.273v-5.313l-2.705-1.256-34.391 43.665z"/>
        </g>
        <g stroke="#333">
            <path d="M43.568 137.177l-10.626 5.314 42.312 21.156 10.627-5.313-42.313-21.157zm-31.782-5.023l-7.922 3.96 37 18.549 7.92-3.961-36.998-18.548zm-7.922 3.961v21.156l37 18.548v-21.156l-37-18.548z"/>
            <path d="M32.942 142.684v37.096l42.312 21.156V163.84l-42.312-21.156zm52.938 15.65l-10.626 5.313v36.999l10.627-5.313v-37z"/>
            <path d="M75.255 190.309v7.922l18.547 9.274v-5.314l-18.547-11.882zm18.547 11.882v5.314l15.843 3.96v-3.96l-15.843-5.314zM109.645 207.505v3.96l10.627-5.216v-4.058l-10.627 5.314z"/>
            <path d="M104.332 196.975l-10.53 5.216 15.843 5.314 10.627-5.314-15.94-5.216z"/>
            <path d="M85.881 185.093l-10.627 5.216 18.548 11.882 10.53-5.216-18.451-11.882zm-10.626-18.548v7.921l18.547 6.57v-5.217l-18.547-9.274zm18.547 9.274v5.216l15.843 11.98v-3.963l-15.843-13.233z"/>
            <path d="M109.645 189.053v3.961l10.627-5.313v-3.96l-10.627 5.311zm-23.764-27.821l-10.627 5.312 18.548 9.274 10.53-5.314-18.451-9.272z"/>
            <path d="M104.332 170.505l-10.53 5.314 15.843 13.233 10.627-5.313-15.94-13.235zM22.412 139.785v42.41l52.842 26.372v-42.312l-52.842-26.47zm52.842 26.47v42.312l5.314-2.608v-42.313l-5.314 2.609z"/>
            <path d="M22.412 139.785l5.217-2.608 52.939 26.47-5.314 2.608-52.842-26.47z"/>
        </g>
        <path d="M44.824 46.177l10.627-5.314 10.53 5.314-10.53 5.313-10.627-5.313z" stroke="#333"/>
    </g>
</svg>
