<svg viewBox="0 0 256 229" xmlns="http://www.w3.org/2000/svg" preserveAspectRatio="xMidYMid">
    <path d="M191.9 3.5l-64 110.8 64 110.8c3.6-2.1 6.6-5.1 8.8-9l51.8-89.8c4.4-7.7 4.4-16.5 0-24.2l-51.8-89.8c-2.2-3.7-5.2-6.7-8.8-8.8z" fill="#fff"/>
    <path d="M127.9 114.4l41.4 71.6c.4-.5.8-1.1 1.1-1.7l35.6-61.6c3-5.3 3-11.4 0-16.6l-35.6-61.6c-.4-.6-.7-1.1-1.1-1.7l-41.4 71.6zm0 0L95 57.4l95-54.8c.7.3 1.3.6 1.9 1l-64 110.8zM55.1 216.3c-17.3-29.9-34.6-59.9-51.8-89.8-1.8-3.2-2.9-6.6-3.2-10l95 54.8-31.2 53.9c-3.5-2.1-6.6-5.1-8.8-8.9z" fill="#fff"/>
    <path d="M95 171.4l95 54.8c.7-.3 1.3-.6 1.9-1l-64-110.8-32.9 57zm-39.8-159L3.3 102.3c-1.8 3.2-2.9 6.5-3.2 9.9l95-54.8L63.9 3.5c-3.5 2.1-6.5 5-8.7 8.9z" fill="#fff"/>
    <path d="M95 57.3l32.9 57-32.9 57-95-54.8c-.1-1.4-.1-2.9 0-4.3l95-54.9zm0 0l95-54.8c-3.1-1.4-6.6-2.2-10.2-2.2H76.1C71.7.3 67.5 1.4 64 3.5l31 53.8zM63.9 225.2L95 171.4l95 54.8c-3.1 1.4-6.6 2.2-10.2 2.2H76.1c-4.5 0-8.6-1.1-12.2-3.2z" fill="#fff"/>
</svg>
