<svg viewBox="0 0 256 256" xmlns="http://www.w3.org/2000/svg" preserveAspectRatio="xMidYMid">
    <path d="M127.979 155.387L256 27.93v-7.323C256 9.227 246.773 0 235.392 0H20.608C9.227 0 0 9.227 0 20.608v150.304l71.067-70.656 56.912 55.13" fill="#fff"/>
    <path d="M71.088 157.83L0 228.767v6.624C0 246.773 9.227 256 20.608 256h214.784c11.381 0 20.608-9.227 20.608-20.608V86.597L127.979 214.053 71.088 157.83" fill="#fff"/>
    <path d="M0 170.912l71.067-70.656 56.912 55.13L256 27.932l-.021 58.682-128 127.44-56.891-56.224L0 228.768v-57.856" fill="#fff" filter="url(#a)"/>
    <path d="M99.552 185.968l.005-58.117-28.469 29.978 28.464 28.139" fill="#fff"/>
</svg>
