<svg viewBox="0 0 256 416" xmlns="http://www.w3.org/2000/svg" preserveAspectRatio="xMidYMid">
    <path d="M0 256v32c0 5.394 116.377 14.428 192.2 32 36.628-8.49 63.8-18.969 63.8-32v-32c0-13.024-27.172-23.51-63.8-32C116.376 241.575 0 250.61 0 256m0-128v32c0 5.394 116.377 14.428 192.2 32 36.628-8.49 63.8-18.969 63.8-32v-32c0-13.024-27.172-23.51-63.8-32C116.376 113.575 0 122.61 0 128" fill="#fff"/>
    <path d="M0 192v96c0-8 256-24 256-64v-96c0 40-256 56-256 64M0 64v96c0-8 256-24 256-64V0C256 40 0 56 0 64m0 256v96c0-8 256-24 256-64v-96c0 40-256 56-256 64" fill="#fff"/>
</svg>
