<svg xmlns="http://www.w3.org/2000/svg" viewBox="0 0 256 283">
    <style>
        .st0{fill:#fff}
    </style>
    <path class="st0" d="M236.4 56.5L147.7 5.3c-12-6.9-26.8-6.9-38.8 0L20.2 56.5C8.2 63.4.8 76.2.8 90.1v102.4c0 13.9 7.4 26.7 19.4 33.6l88.7 51.2c12 6.9 26.8 6.9 38.8 0l88.7-51.2c12-6.9 19.4-19.7 19.4-33.6V90.1c0-13.9-7.4-26.7-19.4-33.6zm7.2 131.1c0 12.5-6.7 24.1-17.6 30.4l-80.2 46.3c-10.9 6.3-24.2 6.3-35.1 0L30.6 218C19.7 211.7 13 200.1 13 187.6V95c0-12.5 6.7-24.1 17.5-30.4l80.2-46.3c10.9-6.3 24.2-6.3 35.1 0L226 64.6c10.9 6.3 17.6 17.9 17.6 30.4v92.6z"/>
    <path class="st0" d="M73.7 109.9h113v9.9h-113v-9.9zm0 33.3h113v9.9h-113v-9.9zm0 33.2h113v9.9h-113v-9.9z"/>
</svg>
