<svg xmlns="http://www.w3.org/2000/svg" viewBox="0 0 256 256">
    <style>
        .st0{fill:#fff}
    </style>
    <path class="st0" d="M231.1 162.2L256 96.4l-48-10.9V208H48V48h118.8L140.4 0 4.8 39.6l27 77.7L0 151.6V256l110.6-22 85 22 60.4-50.8-.9-.2z"/>
    <path class="st0" d="M62.8 178h60v10h-60v-10zM89.2 68.8h13.2l28 66h-15.2l-6-14.8H81.6l-6 14.8H60.8l28.4-66zm15.2 38.8l-8.8-21.2-8.8 21.2h17.6zm22.4-5.2c-.4-18.8 14.4-34.4 33.2-34.8h1.6c12.4 0 20 4 26.4 10.4l-9.2 10.8c-5.2-4.8-10.4-7.6-17.2-7.6-11.2 0-19.2 9.2-19.2 20.8s8 20.8 19.2 20.8c7.6 0 12.4-3.2 17.6-8l9.2 9.6c-6.8 7.2-14.4 12-27.2 12-18.5.5-33.9-14.2-34.4-32.7v-1.3z"/>
</svg>
