<svg id="Layer_1" xmlns="http://www.w3.org/2000/svg" viewBox="0 0 256 226">
    <style>
        .st0{fill:#fff}
    </style>
    <path class="st0" d="M155.9 58.4h-55.8l28 48.1 27.8-48.1m-61.3 3.1l-27.9 48.2h55.8L94.6 61.5m28 54.5H66.7l27.9 48.3 28-48.3m-61.2 3.1l-28 48.2h55.9l-27.9-48.2m99.9-57.6l-27.9 48.2h55.8l-27.9-48.2m27.9 54.5h-55.8l27.9 48.3 27.9-48.3M128 3.8l-28 48.3h55.8L128 3.8M89.2 173.6H33.3l28 48.6 27.9-48.6m105.4-54.5l-27.9 48.2h55.9l-28-48.2m28 54.5h-55.9l27.9 48.6 28-48.6"/>
</svg>
