<svg xmlns="http://www.w3.org/2000/svg" viewBox="0 0 256 254">
    <style>
        .st0{fill:#fff}
    </style>
    <path class="st0" d="M99 147.6H88.1c0-3.9-3.2-7.1-7.1-7.1-3.9 0-7.1 3.2-7.1 7.1H63c0-9.9 8.1-18 18-18s18 8.1 18 18m102.8 0h-10.9c0-3.9-3.2-7.1-7.1-7.1-3.9 0-7.1 3.2-7.1 7.1h-10.9c0-9.9 8.1-18 18-18s18 8.1 18 18"/>
    <path class="st0" d="M231.6 110.3V66.9H136V43.7h14V.5h-43.2v43.2h14v23.2H25.3v43.2C10.9 113.2 0 126 0 141.3c0 15.3 10.9 28.2 25.3 31.3v80.9h206.3v-81.1c14-3.4 24.4-16.1 24.4-31.1s-10.4-27.6-24.4-31zM122 15.7h12.9v12.9H122V15.7zM15.2 141.3c0-6.9 4.2-12.8 10.1-15.4v30.8c-6-2.5-10.1-8.5-10.1-15.4zm25.3 63.2h176v33.8h-176v-33.8zm0-122.4h176v107.2h-176V82.1zm191.1 74.3v-30c5.5 2.8 9.2 8.5 9.2 15s-3.7 12.2-9.2 15z"/>
</svg>
