<?xml version="1.0" encoding="utf-8"?>
<!-- Generator: Adobe Illustrator 21.1.0, SVG Export Plug-In . SVG Version: 6.00 Build 0)  -->
<svg version="1.1" id="Layer_1" xmlns="http://www.w3.org/2000/svg" xmlns:xlink="http://www.w3.org/1999/xlink" x="0px" y="0px"
	 viewBox="0 0 256 288" style="enable-background:new 0 0 256 288;" xml:space="preserve">
<style type="text/css">
	.st0{fill:#FFFFFF;}
</style>
<path class="st0" d="M256,85.7c0-4.8-1-9.1-3.1-12.8c-2.1-3.6-5.1-6.6-9.3-9c-34.1-19.7-68.2-39.3-102.3-59
	c-9.2-5.3-18.1-5.1-27.2,0.3c-13.6,8-81.5,47-101.7,58.7C4.1,68.7,0,76.1,0,85.7c0,6.2,0,12.3,0,18.5c0,33.3,0,66.6,0,99.9
	c0,0,0,0,0,0c0,0.1,0,0.2,0,0.3c0,4.7,1,8.9,3,12.5c2.1,3.7,5.2,6.8,9.4,9.3c20.2,11.7,88.2,50.7,101.7,58.7
	c9.1,5.4,18,5.6,27.2,0.3c34.1-19.7,68.2-39.3,102.3-59c4.2-2.4,7.3-5.6,9.4-9.3c2-3.6,3-7.8,3-12.6C256,204.3,256,125.2,256,85.7z
	 M129.1,105.4c-23,0-28.5,24.8-28.5,40.2c0,10.2,4.1,40,28.5,40c26.4,0,25.4-23.1,25.4-23.1l38,2.2c0,20-12.2,55.3-63.2,55.3
	c-31.5,0-72-18.3-72-74.4c0-56.1,41.3-75.6,72-75.6c48.2,0,65,40.7,65,57.2l-39.8-0.3v0C154.5,127,152.1,105.4,129.1,105.4z"/>
</svg>
