<svg viewBox="0 0 256 256" xmlns="http://www.w3.org/2000/svg" xmlns:xlink="http://www.w3.org/1999/xlink" preserveAspectRatio="xMidYMid">
    <use fill="#67BF79" xlink:href="#a"/>
    <path d="M256 128c0 70.692-57.308 128-128 128C57.308 256 0 198.692 0 128 0 57.308 57.308 0 128 0c70.692 0 128 57.308 128 128" fill="#fff" mask="url(#b)"/>
    <path d="M63.111 187.022L96.178 72l64.533 60.978L200 90.133l87.533 86.289-110.844 124.889L63.111 187.022" fill="#fff" mask="url(#b)"/>
    <path d="M77 189.6c-16.733 0-16.733 0-16.733-16.733V81c0-16.733 0-16.733 16.733-16.733h3.334c16.733 0 16.733 0 16.733 16.733v91.867c0 16.733 0 16.733-16.733 16.733H77zm44.041 0c-5.699 0-8.508-2.809-8.508-8.508V72.774c0-5.698 2.809-8.507 8.508-8.507h37.537c32.178 0 52.628 32.273 52.628 63.025 0 30.752-20.628 62.308-52.628 62.308h-37.537z" fill="#FFF" mask="url(#b)"/>
</svg>
