<svg viewBox="0 0 256 258" xmlns="http://www.w3.org/2000/svg" preserveAspectRatio="xMidYMid">
    <path d="M76.188 140.056l7.168 5.599-5.321 6.81-7.171-5.605-5.605 7.172-6.815-5.326 5.605-7.172-7.169-5.599 5.327-6.814 7.173 5.604 5.603-7.172 6.81 5.33-5.605 7.173m70.929-29.267l13.048 3.157-7.653 31.624-13.048-3.157 7.653-31.624M89.331 40.203l13.401.776-1.88 32.48-13.401-.776 1.88-32.48m16.423 79.925l30.28 9.117-6.953 23.092-30.28-9.117 6.953-23.092m-97.978-6.557l14.81 27.38-14.636-.28L0 125.977l7.776-12.406m104.636-22.223l21.159 22.834-14.246 3.37-11.356-12.254 4.443-13.95m23.358 10.061l-11.545-11.046 7.149-16.244 11.544 11.046-7.148 16.244M36.399 55.966l-3.403-12.604 9.215-9.25 12.619 3.357 3.402 12.605-9.216 9.249-12.617-3.357M6.982 107.34l6.131-21.768 15.785 16.193-21.916 5.575M149.811 2.674l-15.048 13.069L121.762.637l28.049 2.037M75.692 97.748L87.121 77.78l19.917 11.518-31.346 8.45M96.015 5.249l1.813 4.731-30.685 11.761-1.813-4.732 30.685-11.76M210.09 29.881l-2.724 4.272-27.704-17.672 2.725-4.272 27.703 17.672M43.554 84.745l7.547 1.7-10.251 45.492-7.546-1.7 10.25-45.492m-19.237 61.292c-10.236 0-18.533 8.297-18.533 18.535 0 10.236 8.298 18.535 18.533 18.535 10.239 0 18.536-8.299 18.536-18.535H24.317v-18.535m4.178-37.676c2.948 1.297 3.776 5.899 1.849 10.279-1.927 4.38-5.879 6.879-8.827 5.582-2.949-1.297-3.777-5.9-1.85-10.279 1.927-4.38 5.879-6.879 8.828-5.582m69.035-9.092c4.99 2.295 6.272 10.164 2.863 17.576-3.409 7.412-10.217 11.561-15.207 9.266s-6.273-10.164-2.864-17.576c3.409-7.412 10.217-11.561 15.208-9.266m10.687 60.132c2.386 5.18.12 11.314-5.06 13.7-5.181 2.385-11.314.12-13.699-5.062-2.386-5.18-.439-25.637-.439-25.637s16.813 11.818 19.198 16.999M79.882 30.998c4.478 3.531 5.248 10.024 1.719 14.505-3.53 4.479-10.023 5.248-14.504 1.718-4.479-3.53-12.042-22.639-12.042-22.639s20.346 2.886 24.827 6.416" fill="#fff"/>
    <path d="M40.837 159.46c-5.986 0-10.856-4.87-10.856-10.855s4.87-10.856 10.856-10.856c5.985 0 10.854 4.871 10.854 10.856 0 5.985-4.869 10.855-10.854 10.855zm0-16.752a5.902 5.902 0 0 0-5.896 5.897 5.902 5.902 0 0 0 5.896 5.896 5.901 5.901 0 0 0 5.895-5.896 5.902 5.902 0 0 0-5.895-5.897zm-14.16-56.387c-7.415 0-13.447-6.033-13.447-13.448s6.032-13.448 13.447-13.448c7.415 0 13.446 6.033 13.446 13.448s-6.031 13.448-13.446 13.448zm0-20.752a7.312 7.312 0 0 0-7.304 7.304c0 4.028 3.276 7.305 7.304 7.305 4.027 0 7.303-3.277 7.303-7.305s-3.276-7.304-7.303-7.304zm181.08 110.247l7.977 2.481-6.821 4.824.106 8.353-6.695-4.997-7.912 2.683 2.684-7.911-4.997-6.696 8.354.107 4.823-6.821 2.481 7.977M119.331 17.823c7.043 0 12.752 5.709 12.752 12.752 0 7.042-5.709 12.751-12.752 12.751-7.042 0-12.751-5.709-12.751-12.751 0-7.043 5.709-12.752 12.751-12.752m-68.5 44.03a8.334 8.334 0 1 1 0 16.667 8.334 8.334 0 0 1 0-16.667m47.394-41.55l1.186 8.796-7.999 3.845-6.129-6.418 4.209-7.813 8.733 1.59M230.34 130.5l9.493 9.494-23.009 23.005-9.492-9.494L230.34 130.5m-19.97-93.65l-2.725 11.19-34.976-8.517 2.725-11.19 34.976 8.517m-56.911 24.809l9.79 12.81-9.769 7.466-9.79-12.81 9.769-7.466m56.292 79.324l-11.102-11.493 7.782-15.95 11.1 11.492-7.78 15.951m-15.032-70.409l3.378-12.611 12.613-3.379 9.231 9.232-3.379 12.612-12.611 3.379-9.232-9.233m-79.566-11.373l15.391-16.568 6.652 21.613-22.043-5.045M85.73 176.704l-6.882 27.433-27.403-7.003 34.285-20.43m86.058-95.568l19.93-.043-.045 19.929-19.885-19.886m-14.231 65.167l4.134 6.538-42.402 26.809-4.134-6.537 42.402-26.81m35.371-29.462c1.906 5.152-2.752 11.623-10.404 14.454-7.653 2.831-15.401.95-17.307-4.201-1.906-5.152 2.752-11.623 10.404-14.455 7.653-2.831 15.401-.95 17.307 4.202m5.279 28.728c4.94 2.851 6.636 9.166 3.787 14.107-2.85 4.939-9.165 6.636-14.106 3.786-4.94-2.85-15.172-20.671-15.172-20.671s20.55-.071 25.491 2.778m-73.041 87.366c-5.243-5.243-5.243-13.774 0-19.016 5.243-5.244 13.775-5.244 19.018-.001 5.244 5.243 5.242 13.774-.001 19.017-5.243 5.244-13.773 5.244-19.017 0zm14.675-14.673c-2.849-2.849-7.482-2.848-10.33 0-2.849 2.849-2.849 7.482 0 10.33 2.848 2.848 7.48 2.848 10.329-.001 2.848-2.848 2.849-7.482.001-10.329zm-96.188-12.133a17.346 17.346 0 0 1-6.214 11.763l-5.067-6.106a9.41 9.41 0 0 0 3.378-6.392c.483-5.183-3.344-9.795-8.532-10.283a9.411 9.411 0 0 0-6.906 2.141l-5.066-6.106a17.344 17.344 0 0 1 12.707-3.939c9.544.888 16.588 9.378 15.7 18.922M167.301 92.908l8.207 5.143-9.075 3.386-2.356 9.395-6.024-7.585-9.664.663 5.354-8.073-3.617-8.986 9.331 2.595 7.428-6.216.416 9.678m56.273-45.897a4.92 4.92 0 1 1 0 9.841 4.92 4.92 0 0 1 0-9.841M115.036 67.269a8.333 8.333 0 1 1 0 16.666 8.333 8.333 0 0 1 0-16.666m119.625 41.418l-2.537 8.506-8.874.214-2.946-8.371 7.051-5.39 7.306 5.041m-56.368 109.048l-1.506-21.243 17.595-1.247 1.505 21.243-17.594 1.247m-4.623 26.517l-29.627 9.553 2.953-14.339 15.901-5.127 10.773 9.913m-8.788-200.144l-7.762 10.497-12.972-1.475-5.21-11.972 7.764-10.497 12.971 1.474 5.209 11.973m78.878 138.846l-5.571 11.809-13.011 1.078-7.44-10.729 5.571-11.807 13.012-1.08 7.439 10.729M191.953 55.362L176.32 69.508l-4.435-20.61 20.068 6.464m-27.278 166.251l-12.765-15.307 15.363-12.696-2.598 28.003m-81.734 25.459l1.613-7.567 49.065 10.46-1.613 7.567-49.065-10.46m84.185-220.528c5.797-2.652 8.347-9.5 5.694-15.298-2.651-5.797-9.5-8.347-15.296-5.695-5.799 2.652-8.347 9.501-5.695 15.298l10.496-4.802 4.801 10.497m-63.6-13.01c-1.285-2.955 1.229-6.897 5.617-8.806 4.387-1.909 8.986-1.062 10.271 1.893 1.285 2.954-1.229 6.896-5.617 8.805-4.387 1.909-8.985 1.062-10.271-1.892m114.517 77.509c2.389 5.488-.133 11.897-5.622 14.285-5.488 2.388-11.896-.134-14.285-5.623-2.388-5.488.134-11.895 5.624-14.284 5.488-2.387 11.896.135 14.283 5.622zm-15.36 6.684a5.904 5.904 0 0 0 7.76 3.054 5.904 5.904 0 0 0 3.054-7.759 5.902 5.902 0 0 0-7.758-3.053 5.902 5.902 0 0 0-3.056 7.758zm-16.815 128.279a8.333 8.333 0 0 1 8.333 8.333 8.333 8.333 0 1 1-16.666 0 8.333 8.333 0 0 1 8.333-8.333m-45.152-50.651c6.919 0 12.529 5.61 12.529 12.529 0 6.92-5.61 12.529-12.529 12.529-6.92 0-12.529-5.609-12.529-12.529 0-6.919 5.609-12.529 12.529-12.529m21.027-10.002l14.689-1.737 6.192 13.433-10.86 10.04-12.907-7.226 2.886-14.51m-93.97 76.272l-26.106-17.848 13.612-19.909 26.105 17.848-13.611 19.909M251.151 85.743c1.066 5.603-2.611 11.009-8.213 12.075-5.603 1.066-11.009-2.612-12.075-8.215-1.066-5.603 5.758-24.987 5.758-24.987s13.465 15.524 14.53 21.127M94.674 181.599c2.519-3.162 9.721-1.613 16.087 3.458 6.366 5.072 9.485 11.747 6.966 14.908-2.519 3.162-9.722 1.614-16.088-3.458-6.365-5.072-9.484-11.746-6.965-14.908m12.369 55.763l-17.174-12.146 6.159-22.536 17.174 12.146-6.159 22.536M63.476 101.506L56.114 85.73l13.672-13.672 7.363 15.775-13.673 13.673m-7.644 3.382c-4.118 4.866-3.512 12.149 1.354 16.267 4.866 4.119 12.148 3.513 16.266-1.351 4.12-4.867 3.512-12.15-1.353-16.268l-7.457 8.811-8.81-7.459m-10.218 72.859a5.83 5.83 0 1 1 0 11.662 5.83 5.83 0 0 1 0-11.662m16.542 3.524L51.482 170.24l7.193-13.559 15.118 2.65 2.151 15.198-13.788 6.742m180.515-67.918a17.344 17.344 0 0 1 12.107-5.514l.28 7.93a9.415 9.415 0 0 0-6.58 2.996c-3.549 3.809-3.339 9.797.47 13.355a9.414 9.414 0 0 0 6.773 2.525l.279 7.929a17.339 17.339 0 0 1-12.465-4.649c-7.011-6.535-7.4-17.56-.864-24.572m7.028 41.702c2.949 1.298 3.777 5.9 1.85 10.279-1.927 4.38-5.88 6.878-8.829 5.581-2.949-1.298-3.777-5.9-1.849-10.28 1.927-4.379 5.88-6.878 8.828-5.58m-19.026 52.118l-22.369 21.648-3.679-14.171 12.007-11.618 14.041 4.141M72.587 62.461l1.576 4.759-4.521 1.498-1.577-4.763-4.761 1.577-1.499-4.526 4.763-1.576-1.576-4.759 4.526-1.497 1.576 4.762 4.762-1.576 1.494 4.525-4.763 1.576" fill="#fff"/>
</svg>
