<svg viewBox="0 0 256 249" xmlns="http://www.w3.org/2000/svg" preserveAspectRatio="xMidYMid">
    <path d="M167.876 46.369l-23.68 15.804L119.8 25.615 143.48 9.81l24.395 36.559zM187.129 156.2l40.46 60.63-48.198 32.165-40.46-60.632-7.06-10.576 48.2-32.165 7.058 10.577zm-60.707 40.51l8.908 13.349-36.686 24.482-15.967-23.926 8.015-5.348 28.672-19.134 7.058 10.577zm80.75-69.173l10.29-6.867 15.966 23.926-23.683 15.805-8.908-13.35 13.393-8.937-7.058-10.577zm-6.335 19.515l-7.058-10.577 13.393-8.938 7.058 10.577-13.393 8.938zM41.11 130.967l-8.015 5.348L8.698 99.756l36.687-24.482 17.1 25.627-28.671 19.134L62.486 100.9l7.296 10.933-28.673 19.133zm89.379-59.645l-48.2 32.165-7.295-10.933L34.912 32.49 83.112.326l40.081 60.063 7.296 10.933z" fill="#fff"/>
    <path d="M157.59 53.238l-13.393 8.937-7.297-10.933-17.1-25.626L143.483 9.81l24.397 36.56-10.29 6.868zM97.75 215.844l-7.058-10.577 28.672-19.134 7.058 10.577-28.672 19.134zm103.087-68.792l-7.058-10.577 13.393-8.938 7.058 10.577-13.393 8.938zM41.11 130.967l-7.296-10.932L62.485 100.9l7.297 10.933-28.673 19.133z" fill="#fff"/>
    <path d="M144.197 62.175L136.9 51.242l13.395-8.938 7.295 10.934-13.393 8.937zm42.932 94.025l-48.199 32.163-7.058-10.576 48.199-32.165 7.058 10.577zm-63.936-95.81l7.296 10.932-48.2 32.165-7.295-10.933 48.2-32.165zm-95.754-8.737l9.097 13.633-13.633 9.097-9.097-13.633 13.633-9.097zm49.129 163.431l9.097 13.633-13.632 9.097-9.098-13.632 13.633-9.098zm-35.864 13.73L.792 168.518 214.089 25.856l41.852 59.333L40.704 228.814z" fill="#fff"/>
</svg>
