<svg viewBox="0 0 256 194" xmlns="http://www.w3.org/2000/svg" preserveAspectRatio="xMidYMid">
    <g clip-path="url(#a)">
        <path d="M65.4-.004h125.718a6.5 6.5 0 0 1 4.62 1.93l63.2 63.906-131.125 130.944L-2.95 65.832 60.8 1.905a6.5 6.5 0 0 1 4.6-1.909" fill="#fff"/>
        <path d="M194.649 1.045a6.489 6.489 0 0 0-3.531-1.05H65.4a6.497 6.497 0 0 0-4.601 1.91l2.086 2.638 31.918 31.372 66.29-.273L194.65 1.045zm-66.244 195.14l-.592.592L-2.95 65.832l1.104-1.106H67.25l61.154 127.777v3.682z" fill="#fff"/>
        <path d="M84.478 109.075l10.873 22.05h65.567l10.776-21.548-44.206-43.935-43.01 43.433zm109.37-43.433h64.931L193.375.042l-32.826 32.683 33.299 32.916v.001z" fill="#fff"/>
        <path d="M160.549 32.726L127.904.456 95.162 33.284l32.327 32.36 33.06-32.917z" fill="#fff"/>
        <path d="M127.488 65.642H62.886l21.592 43.44 43.01-43.435 44.207 43.936 22.153-43.94h-66.36zm-64.602 0h64.602l-32.326-32.36-32.276 32.36z" fill="#fff"/>
        <path d="M160.549 32.726l-33.06 32.917h66.359v-.001l-33.3-32.916z" fill="#fff"/>
        <path d="M160.549 32.726L127.904.456l32.645 32.27zm-65.387.557L62.636.723l-65.54 64.92h65.79v-.001l32.276-32.36zm32.741 163.857l33.015-66.015H95.351l32.552 66.015zm43.792-87.562l-10.776 21.548h32.457l-21.681-21.548zM62.643 131.125h32.708l-10.873-22.05-21.835 22.05z" fill="#fff"/>
        <path d="M177.459 65.124c5.336-1.131 15.08-10.956 15.932-15.768.044-.248.445-.245.517-.005 1.464 4.915 11.434 14.847 15.844 15.773.258.054.288.902.03.96-4.556 1.032-14.488 11.062-15.86 15.85-.075.26-.494.263-.557-.001-1.09-4.555-10.807-14.497-15.937-15.85-.257-.067-.23-.904.03-.96" fill="#FFF"/>
    </g>
</svg>
