<svg xmlns="http://www.w3.org/2000/svg" viewBox="0 0 256 256">
    <style>
        .st0{fill:#fff}
    </style>
    <path class="st0" d="M206.1 160.3c-.1-3-.1-5.6-.1-8-.1-12.2-.1-21.9-7.7-29.2-5.7-5.5-12.5-7.1-23.3-7.3 1.7-6.2 2.2-13.1 1.5-20.7-.1-22.9-17.2-39.8-40.8-40.5h-.3l-37.1.6c-14.3-.3-25.5 3.9-33.4 12.2-4.9 5.1-10.5 14-11.2 28.6v.4c0 1-.1 2.1-.1 3.1l-.9 56.3c-.1 1.2-.1 2.4-.1 3.6-.9 16.2 2.8 28.9 11.2 37.7 8.3 8.7 20.5 13.1 36.4 13.1h57.9c29.2-.2 47.6-19.2 47.9-49.5v-.2l.1-.2zM101.2 86.8l31.8.5-.4 25-31.8-.5.4-25zM97.4 174v-25H161v25H97.4z"/>
</svg>
